<svg width="651" height="307" viewBox="0 0 651 307" fill="none" xmlns="http://www.w3.org/2000/svg">
<path d="M497.951 11C445.573 11 395.651 42.9178 358.822 97.751L281.074 203.325C248.338 254.066 201.689 282.711 153.403 282.711C82.2013 282.711 24.0945 224.604 24.0945 153.403C24.0945 147.674 24.0945 141.945 24.9129 137.034H309.718C310.536 137.034 312.173 137.034 312.992 136.216C316.265 134.579 317.084 130.487 314.629 127.214C285.166 83.8381 225.422 11 153.403 11C74.8356 11 11 74.8356 11 153.403C11 231.97 74.8356 295.805 153.403 295.805C205.781 295.805 256.522 264.706 291.713 210.691L369.462 105.117C403.016 53.5571 449.665 24.0945 497.133 24.0945C568.334 24.0945 626.441 82.2013 626.441 153.403C626.441 224.604 568.334 282.711 497.133 282.711C434.116 282.711 378.464 218.057 351.457 179.592C349.002 176.318 345.728 176.318 342.454 177.955C339.181 180.41 339.181 183.684 340.818 186.957C369.462 227.059 428.387 294.987 497.133 294.987C575.7 294.987 639.536 231.151 639.536 152.584C640.354 74.8356 576.518 11 497.951 11ZM153.403 24.0945C182.047 24.0945 212.328 38.0074 243.427 64.1964C265.524 83.0197 283.529 105.935 296.624 123.94H27.3681C40.4626 66.6516 92.0222 24.0945 153.403 24.0945Z" stroke="#1C7468" stroke-width="21"/>
</svg>
