<svg width="44" height="29" viewBox="0 0 44 29" fill="none" xmlns="http://www.w3.org/2000/svg">
<path d="M7.02093 10.2188C7.02117 10.897 7.09495 11.5727 7.23991 12.2337C3.27197 12.9846 0.47345 16.6381 0.771772 20.7352C1.07618 24.9237 4.51475 28.1748 8.6708 28.1934H8.67192H34.5932C39.3771 28.1934 43.25 24.2694 43.25 19.4354C43.25 14.6014 39.3771 10.6777 34.5932 10.6777H34.593C34.3165 10.678 34.0403 10.6915 33.7653 10.7183C32.7711 7.74219 30.011 5.72145 26.8873 5.71498L26.887 5.71498C26.1671 5.7142 25.4518 5.82373 24.7654 6.03882C22.8707 2.13637 18.5772 0.0318246 14.359 0.972854L14.359 0.972856C10.0683 1.93023 7.01783 5.77805 7.02093 10.2188ZM7.02093 10.2188L7.27093 10.2187M7.02093 10.2188L7.27093 10.2187M7.27093 10.2187C7.26791 5.89316 10.239 2.14829 14.4135 1.21686L7.48651 12.191C7.3438 11.544 7.27117 10.8826 7.27093 10.2187ZM8.67192 26.2753L8.67082 26.2753C5.3568 26.2899 2.6438 23.6008 2.59426 20.2401C2.54499 16.8792 5.17734 14.1098 8.49067 14.0244L8.49134 14.0243C8.7966 14.0157 9.07802 13.8597 9.24928 13.6067C9.42091 13.3536 9.46193 13.034 9.36068 12.7458C8.01427 8.84553 10.0187 4.57767 13.8511 3.16936L13.7649 2.9347L13.8511 3.16936C17.6818 1.76158 21.9222 3.73268 23.3617 7.59717C23.4534 7.84685 23.6439 8.04723 23.8888 8.14971L23.889 8.14976C24.1344 8.25229 24.4108 8.24668 24.6517 8.13424L24.6524 8.13391C25.3526 7.80435 26.115 7.63363 26.8867 7.63279C29.4311 7.63775 31.6254 9.45162 32.1349 11.9798C32.2376 12.4974 32.7377 12.8368 33.255 12.7311C33.6956 12.6418 34.1438 12.5964 34.5935 12.5958C38.3217 12.596 41.349 15.6556 41.349 19.4354C41.349 23.2159 38.3216 26.2753 34.5932 26.2753L8.67192 26.2753Z" fill="white" stroke="white" stroke-width="0.5"/>
</svg>
