<svg width="22" height="17" viewBox="0 0 22 17" fill="none" xmlns="http://www.w3.org/2000/svg">
<path d="M19.125 1H2.87501C1.84107 1 1 1.84107 1 2.87501V14.125C1 15.159 1.84107 16 2.87501 16H19.125C20.1589 16 21 15.159 21 14.125V2.87501C21 1.84107 20.1589 1 19.125 1ZM19.125 2.25C19.2099 2.25 19.2907 2.26761 19.3645 2.29838L11 9.54799L2.63542 2.29838C2.70927 2.26766 2.79005 2.25 2.87497 2.25H19.125ZM19.125 14.75H2.87501C2.53017 14.75 2.24999 14.4699 2.24999 14.125V3.61902L10.5904 10.8474C10.7083 10.9493 10.8541 11 11 11C11.1459 11 11.2917 10.9494 11.4096 10.8474L19.75 3.61902V14.125C19.75 14.4699 19.4698 14.75 19.125 14.75Z" fill="#1C7468" fill-opacity="0.3"/>
<path d="M11.475 10.923L19.65 3.83801V14.125C19.65 14.4146 19.4146 14.65 19.125 14.65H2.87501C2.58539 14.65 2.34999 14.4146 2.34999 14.125V3.83801L10.525 10.923L10.525 10.923C10.6616 11.0412 10.8309 11.1 11 11.1C11.1691 11.1 11.3384 11.0413 11.475 10.923L11.475 10.923ZM19.125 0.9H2.87501C1.78584 0.9 0.9 1.78584 0.9 2.87501V14.125C0.9 15.2142 1.78584 16.1 2.87501 16.1H19.125C20.2142 16.1 21.1 15.2142 21.1 14.125V2.87501C21.1 1.78584 20.2142 0.9 19.125 0.9ZM19.125 2.35C19.1339 2.35 19.1427 2.35023 19.1515 2.35068L11 9.41566L2.84845 2.35068C2.85724 2.35023 2.86608 2.35 2.87497 2.35H19.125Z" stroke="#1C7468" stroke-opacity="0.29" stroke-width="0.2"/>
</svg>
