<svg width="17" height="10" viewBox="0 0 17 10" fill="none" xmlns="http://www.w3.org/2000/svg">
<path d="M10.0225 5.00025C10.0225 6.09369 9.13593 6.98024 8.04249 6.98024C6.94905 6.98024 6.0625 6.09369 6.0625 5.00025C6.0625 3.90681 6.94905 3.02026 8.04249 3.02026C9.13593 3.02026 10.0225 3.90681 10.0225 5.00025Z" fill="white"/>
<path d="M15.9765 4.67723C15.8328 4.48635 12.4052 0 8.04232 0C3.67942 0 0.251837 4.48637 0.108154 4.67723C-0.0360512 4.86811 -0.0360512 5.13138 0.108154 5.32215C0.25188 5.51363 3.67942 10 8.04232 10C12.4052 10 15.8328 5.51363 15.9765 5.32215C16.1201 5.1314 16.1201 4.86859 15.9765 4.67723ZM8.04232 8.05212C6.35889 8.05212 4.99007 6.68283 4.99007 4.99986C4.99007 3.31689 6.35889 1.94761 8.04232 1.94761C9.72575 1.94761 11.0946 3.31643 11.0946 4.99986C11.0946 6.68329 9.72575 8.05212 8.04232 8.05212Z" fill="white"/>
</svg>
