<svg width="23" height="16" viewBox="0 0 23 16" fill="none" xmlns="http://www.w3.org/2000/svg">
<path d="M22.0594 7.58309C21.8629 7.31423 17.18 1 11.1991 1C5.21824 1 0.535149 7.31423 0.338825 7.58283C0.152683 7.8379 0.152683 8.18384 0.338825 8.4389C0.535149 8.70776 5.21824 15.022 11.1991 15.022C17.18 15.022 21.8629 8.70772 22.0594 8.43912C22.2458 8.1841 22.2458 7.8379 22.0594 7.58309ZM11.1991 13.5714C6.79357 13.5714 2.97789 9.38056 1.84836 8.0105C2.97643 6.63924 6.78411 2.45054 11.1991 2.45054C15.6045 2.45054 19.4199 6.6407 20.5499 8.01149C19.4218 9.38271 15.6141 13.5714 11.1991 13.5714Z" fill="#1C7468" fill-opacity="0.3"/>
<path fill-rule="evenodd" clip-rule="evenodd" d="M0.339606 7.58264C0.535931 7.31404 5.21902 0.999805 11.1999 0.999805C17.1808 0.999805 21.8637 7.31404 22.0602 7.58289C22.2466 7.8377 22.2466 8.1839 22.0602 8.43892C21.8637 8.70752 17.1808 15.0218 11.1999 15.0218C5.21902 15.0218 0.535931 8.70756 0.339606 8.43871C0.153465 8.18364 0.153465 7.8377 0.339606 7.58264ZM22.2217 7.46486C22.4595 7.79001 22.4594 8.23168 22.2217 8.55694L22.2216 8.55703C22.1186 8.69785 20.8876 10.3581 18.9269 11.985C16.9698 13.6089 14.259 15.2218 11.1999 15.2218C8.14081 15.2218 5.42997 13.6089 3.47283 11.985C1.51214 10.3581 0.281143 8.69778 0.178086 8.55665L0.178052 8.55661C-0.0593506 8.2313 -0.0593506 7.79004 0.178052 7.46474L0.178139 7.46462C0.281142 7.3237 1.51213 5.66347 3.47284 4.03658C5.42997 2.41265 8.14081 0.799805 11.1999 0.799805C14.259 0.799805 16.9698 2.41266 18.9269 4.03662C20.8876 5.66354 22.1186 7.32383 22.2217 7.46486ZM5.41505 11.1438C7.04547 12.3514 9.05882 13.3713 11.1999 13.3713C13.3458 13.3713 15.3595 12.3519 16.9888 11.1448C18.5196 10.0107 19.6921 8.72494 20.2905 8.01142C19.691 7.29804 18.5162 6.01193 16.9845 4.87749C15.3541 3.67 13.3409 2.65035 11.1999 2.65035C9.05401 2.65035 7.04028 3.66971 5.41098 4.8768C3.88025 6.01087 2.70771 7.29664 2.10927 8.01017C2.70859 8.72327 3.88331 10.0093 5.41505 11.1438ZM1.84915 8.01031C2.97721 6.63904 6.78489 2.45035 11.1999 2.45035C15.6052 2.45035 19.4207 6.6405 20.5507 8.01129C19.4226 9.38252 15.6149 13.5713 11.1999 13.5713C6.79435 13.5713 2.97867 9.38037 1.84915 8.01031Z" fill="#1C7468" fill-opacity="0.3"/>
<path d="M11.1992 5C9.54505 5 8.19922 6.34583 8.19922 8C8.19922 9.65417 9.54505 11 11.1992 11C12.8534 11 14.1992 9.65417 14.1992 8C14.1992 6.34583 12.8534 5 11.1992 5ZM11.1992 9.99998C10.0964 9.99998 9.19924 9.10281 9.19924 8C9.19924 6.89719 10.0964 6.00002 11.1992 6.00002C12.302 6.00002 13.1992 6.89719 13.1992 8C13.1992 9.10281 12.3021 9.99998 11.1992 9.99998Z" fill="#1C7468" fill-opacity="0.3"/>
<path fill-rule="evenodd" clip-rule="evenodd" d="M8 7.9998C8 6.23518 9.43537 4.7998 11.2 4.7998C12.9646 4.7998 14.4 6.23518 14.4 7.9998C14.4 9.76443 12.9646 11.1998 11.2 11.1998C9.43537 11.1998 8 9.76443 8 7.9998ZM9.40002 7.9998C9.40002 8.99216 10.2076 9.79978 11.2 9.79978C12.1924 9.79978 13 8.99216 13 7.9998C13 7.00745 12.1924 6.19982 11.2 6.19982C10.2076 6.19982 9.40002 7.00745 9.40002 7.9998ZM8.2 7.9998C8.2 6.34564 9.54583 4.9998 11.2 4.9998C12.8542 4.9998 14.2 6.34564 14.2 7.9998C14.2 9.65397 12.8542 10.9998 11.2 10.9998C9.54583 10.9998 8.2 9.65397 8.2 7.9998ZM9.20002 7.9998C9.20002 9.10261 10.0972 9.99978 11.2 9.99978C12.3028 9.99978 13.2 9.10261 13.2 7.9998C13.2 6.897 12.3028 5.99982 11.2 5.99982C10.0972 5.99982 9.20002 6.897 9.20002 7.9998Z" fill="#1C7468" fill-opacity="0.3"/>
</svg>
