<svg width="28" height="10" viewBox="0 0 28 10" fill="none" xmlns="http://www.w3.org/2000/svg">
<g clip-path="url(#clip0_410_14615)">
<path d="M27.7219 0.496559C26.366 0.266447 25.2051 0.146789 24.3229 0.0731529C23.7935 0.036335 21.574 -0.129346 19.0108 0.165198C18.435 0.229629 17.5435 0.349287 16.5126 0.754284C16.1411 0.901556 15.6861 1.14087 15.4446 1.48144C15.036 1.38939 14.5624 1.31576 14.033 1.30655C14.0237 1.30655 13.9866 1.30655 13.9773 1.30655C13.4386 1.31576 12.965 1.38939 12.5564 1.48144C12.3149 1.13167 11.8506 0.901556 11.4884 0.754284C10.4575 0.349287 9.56601 0.238833 8.99022 0.165198C6.42703 -0.129346 4.20747 0.036335 3.67811 0.0731529C2.79586 0.146789 1.635 0.275651 0.279108 0.496559C0.111944 0.533377 -0.00878551 0.671444 0.000501387 0.837124C0.00978829 1.13167 0.0190752 1.42621 0.037649 1.72075C0.0469359 1.84041 0.111944 1.95087 0.223387 2.00609C0.390551 2.08893 0.622724 2.2362 0.799175 2.50313C0.957052 2.74245 1.01277 2.99097 1.02206 3.18426C1.03135 3.36835 1.19851 3.51563 1.38425 3.49722C1.51427 3.48801 1.65357 3.47881 1.78359 3.4696C1.80216 3.84699 1.87645 4.24278 1.94146 4.63857C2.14577 5.77993 2.42438 7.34469 3.80813 8.38479C4.73682 9.08433 5.71194 9.19479 6.23201 9.25922C6.41775 9.27763 6.7335 9.32365 7.13284 9.32365C8.35871 9.32365 9.4267 8.97388 10.2904 8.28354C10.4854 8.12707 11.1169 7.59321 11.5906 6.7556C11.5998 6.7556 11.5998 6.7556 11.6091 6.76481C11.7484 6.80162 11.9342 6.79242 12.0549 6.67276C12.1571 6.58072 12.3149 6.3506 12.4357 5.82595C12.5935 5.17243 12.7886 4.39926 12.6214 3.91142C12.5842 3.80096 12.51 3.59847 12.2406 3.54324C12.1756 3.53403 12.092 3.52483 12.027 3.52483C12.0085 3.44199 11.9899 3.34995 11.9713 3.27631C12.2406 3.11063 12.51 2.88052 12.64 2.53075C12.6585 2.48473 12.705 2.35586 12.7236 2.19939C13.0765 2.09814 13.5037 2.0153 13.9959 2.0153C14.4881 2.0153 14.9153 2.09814 15.2682 2.19939C15.2867 2.36507 15.3332 2.48473 15.3517 2.53075C15.4818 2.87131 15.7418 3.11063 16.0204 3.27631C16.0018 3.35915 15.9833 3.44199 15.9647 3.52483C15.8904 3.52483 15.8161 3.52483 15.7511 3.54324C15.4818 3.59847 15.4075 3.80096 15.3703 3.91142C15.2032 4.39926 15.3982 5.17243 15.5561 5.82595C15.6861 6.3506 15.8439 6.58072 15.9368 6.67276C16.0575 6.78321 16.2433 6.79242 16.3826 6.76481C16.3919 6.76481 16.3919 6.76481 16.4012 6.7556C16.8748 7.59321 17.5063 8.12707 17.7013 8.28354C18.5743 8.97388 19.6423 9.32365 20.8589 9.32365C21.2582 9.32365 21.574 9.28683 21.7597 9.25922C22.2798 9.19479 23.2642 9.07513 24.1836 8.38479C25.5673 7.34469 25.8459 5.77993 26.0502 4.63857C26.1245 4.24278 26.1896 3.84699 26.2081 3.4696C26.3381 3.47881 26.4774 3.48801 26.6075 3.49722C26.7932 3.51563 26.9604 3.36835 26.9697 3.18426C26.9789 2.99097 27.0347 2.74245 27.1925 2.50313C27.369 2.2362 27.6012 2.07973 27.7683 2.00609C27.8798 1.95087 27.9541 1.84041 27.9541 1.72075C27.9634 1.42621 27.9726 1.13167 27.9912 0.837124C28.0005 0.671444 27.8798 0.533377 27.7219 0.496559ZM11.7949 3.58006C11.7949 3.58926 11.7949 3.58926 11.7949 3.59847C11.8413 3.84699 11.8784 4.11392 11.9063 4.40846C11.9249 4.60175 11.9249 4.78584 11.9156 4.96993C11.8692 5.61425 11.6648 6.18492 11.4048 6.64515C10.9312 7.48275 10.2997 8.00741 10.1511 8.11786C8.60946 9.33285 6.81708 9.11195 6.26916 9.04751C5.84196 8.99229 5.12687 8.90945 4.3932 8.49525C4.24461 8.41241 4.09602 8.32036 3.95672 8.20991C3.69669 8.01661 3.48309 7.80491 3.29735 7.584C2.9816 7.19742 2.75871 6.76481 2.59155 6.3414C2.39652 5.82595 2.29437 5.3105 2.21078 4.85028C2.2015 4.77664 2.18292 4.703 2.17364 4.62937C2.09934 4.22437 2.03433 3.82858 2.01576 3.45119C1.99718 2.95415 2.07148 2.47552 2.35937 2.03371C2.75871 1.43542 3.35307 1.13167 3.85456 0.975191C4.97828 0.616217 5.8141 0.607012 6.47347 0.616217C6.82637 0.616217 7.35572 0.653035 7.8665 0.708262C8.24727 0.74508 8.61874 0.800306 8.90664 0.864738C9.23168 0.938373 9.57529 1.01201 9.91891 1.13167C10.699 1.4078 11.4234 1.95087 11.7577 3.40517C11.767 3.4604 11.7856 3.52483 11.7949 3.58006ZM25.8181 4.63857C25.8088 4.71221 25.7902 4.78584 25.7809 4.85948C25.6973 5.3197 25.5952 5.83515 25.4002 6.3506C25.2423 6.78321 25.0194 7.20662 24.6944 7.59321C24.5086 7.81412 24.295 8.02582 24.035 8.21911C23.8864 8.32957 23.7378 8.42161 23.5985 8.50445C22.8648 8.91865 22.1498 9.00149 21.7226 9.05672C21.1746 9.12115 19.3823 9.34206 17.8406 8.12707C17.692 8.01661 17.0605 7.49196 16.5869 6.65435C16.3269 6.18492 16.1133 5.62345 16.0761 4.97914C16.0668 4.79505 16.0668 4.61096 16.0854 4.41766C16.1133 4.12312 16.1504 3.85619 16.1968 3.60767C16.1968 3.59847 16.1968 3.59847 16.1968 3.58926C16.2061 3.52483 16.2247 3.4696 16.234 3.41438C16.5683 1.96007 17.2927 1.41701 18.0728 1.14087C18.4071 1.02121 18.7507 0.947578 19.0851 0.873942C19.3637 0.809511 19.7444 0.754284 20.1252 0.717466C20.636 0.662239 21.1653 0.634626 21.5182 0.625421C22.1776 0.616217 23.0134 0.625421 24.1371 0.984396C24.6386 1.14087 25.233 1.44462 25.6323 2.04291C25.9202 2.48473 26.0038 2.96336 25.976 3.4604C25.9574 3.83778 25.8924 4.23358 25.8181 4.63857ZM27.9448 0.855533C27.9169 0.855533 27.8798 0.864738 27.9448 0.855533C27.9819 0.846329 27.9634 0.855533 27.9448 0.855533Z" fill="white"/>
<path d="M27.9357 0.85602C27.88 0.865224 27.9171 0.85602 27.9357 0.85602C27.9635 0.85602 27.9821 0.846815 27.9357 0.85602Z" fill="white"/>
<path d="M11.8056 3.599C11.8056 3.5898 11.8056 3.5898 11.8056 3.58059C11.7964 3.51616 11.7778 3.46093 11.7685 3.40571C11.4342 1.9514 10.7098 1.40834 9.92969 1.1322C9.59536 1.01255 9.25175 0.938909 8.91742 0.865274C8.63881 0.800842 8.25805 0.745615 7.87729 0.708798C7.36651 0.653571 6.83715 0.625957 6.48425 0.616753C5.82488 0.607548 4.98906 0.616753 3.86535 0.975727C3.36385 1.1322 2.76949 1.43595 2.37015 2.03424C2.08226 2.47606 1.99868 2.95469 2.02654 3.45173C2.04511 3.82911 2.11012 4.2249 2.18442 4.6299C2.1937 4.70354 2.21228 4.77717 2.22156 4.85081C2.30515 5.31103 2.4073 5.82648 2.60233 6.34193C2.7602 6.77454 2.98309 7.19795 3.30813 7.58454C3.49387 7.80544 3.70747 8.01714 3.9675 8.21044C4.11609 8.32089 4.26468 8.41294 4.40399 8.49578C5.13765 8.90998 5.85274 8.99282 6.27994 9.04805C6.82787 9.11248 8.62024 9.33338 10.1619 8.11839C10.3105 8.00794 10.942 7.48329 11.4156 6.64568C11.6756 6.17625 11.8892 5.61478 11.9264 4.97047C11.9357 4.78638 11.9357 4.60229 11.9171 4.40899C11.8892 4.11445 11.8521 3.84752 11.8056 3.599Z" fill="#1C7468" fill-opacity="0.2"/>
<path d="M25.6248 2.04358C25.2255 1.44529 24.6311 1.14154 24.1296 0.985066C23.0059 0.626091 22.1701 0.616887 21.5107 0.626091C21.1578 0.626091 20.6285 0.662909 20.1177 0.718136C19.7369 0.754954 19.3654 0.810181 19.0776 0.874612C18.7525 0.948248 18.4089 1.02188 18.0653 1.14154C17.2852 1.41768 16.5608 1.96074 16.2265 3.41505C16.2172 3.47027 16.1986 3.5255 16.1893 3.58993C16.1893 3.59914 16.1893 3.59914 16.1893 3.60834C16.1429 3.85686 16.1057 4.12379 16.0779 4.41833C16.0593 4.61163 16.0593 4.79572 16.0686 4.97981C16.115 5.62412 16.3193 6.1948 16.5794 6.65502C17.053 7.49263 17.6845 8.01728 17.8331 8.12774C19.3747 9.34273 21.1671 9.12182 21.715 9.05739C22.1422 9.00216 22.8573 8.91932 23.591 8.50512C23.7396 8.42228 23.8882 8.33023 24.0275 8.21978C24.2875 8.02649 24.5011 7.81478 24.6868 7.59388C25.0026 7.20729 25.2255 6.77468 25.3926 6.35127C25.5877 5.83582 25.6898 5.32037 25.7734 4.86015C25.7827 4.78651 25.8013 4.71288 25.8106 4.63924C25.8848 4.23424 25.9499 3.83845 25.9684 3.46107C25.9963 2.96403 25.922 2.48539 25.6248 2.04358Z" fill="#1C7468" fill-opacity="0.2"/>
</g>
<defs>
<clipPath id="clip0_410_14615">
<rect width="28" height="9.33333" fill="white"/>
</clipPath>
</defs>
</svg>
