<svg width="25" height="25" viewBox="0 0 25 25" fill="none" xmlns="http://www.w3.org/2000/svg">
<path opacity="0.2" d="M10.25 10.2494C11.2855 10.2494 12.125 9.40992 12.125 8.37439C12.125 7.33886 11.2855 6.49939 10.25 6.49939C9.21447 6.49939 8.375 7.33886 8.375 8.37439C8.375 9.40992 9.21447 10.2494 10.25 10.2494Z" fill="black"/>
<path d="M14.375 16.6244L4.25 16.6245" stroke="black" stroke-linecap="round" stroke-linejoin="round"/>
<path d="M20.75 16.6245L18.125 16.6244" stroke="black" stroke-linecap="round" stroke-linejoin="round"/>
<path d="M16.25 18.4994C17.2855 18.4994 18.125 17.6599 18.125 16.6244C18.125 15.5889 17.2855 14.7494 16.25 14.7494C15.2145 14.7494 14.375 15.5889 14.375 16.6244C14.375 17.6599 15.2145 18.4994 16.25 18.4994Z" stroke="black" stroke-linecap="round" stroke-linejoin="round"/>
<path d="M8.375 8.37432L4.25 8.37427" stroke="black" stroke-linecap="round" stroke-linejoin="round"/>
<path d="M20.75 8.37427L12.125 8.37432" stroke="black" stroke-linecap="round" stroke-linejoin="round"/>
<path d="M10.25 10.2494C11.2855 10.2494 12.125 9.40992 12.125 8.37439C12.125 7.33886 11.2855 6.49939 10.25 6.49939C9.21447 6.49939 8.375 7.33886 8.375 8.37439C8.375 9.40992 9.21447 10.2494 10.25 10.2494Z" stroke="black" stroke-linecap="round" stroke-linejoin="round"/>
</svg>
