<svg width="115" height="125" viewBox="0 0 115 125" fill="none" xmlns="http://www.w3.org/2000/svg">
<circle cx="57.5" cy="66.8867" r="57.5" fill="#CBFBF2"/>
<mask id="mask0_410_35188" style="mask-type:alpha" maskUnits="userSpaceOnUse" x="0" y="9" width="115" height="116">
<circle cx="57.5" cy="66.8867" r="57.5" fill="#EAFFFB"/>
</mask>
<g mask="url(#mask0_410_35188)">
<path d="M9.48828 104.373C9.48828 107.742 12.5807 110.652 16.4463 110.652H45.0516L43.9693 117.39H41.3407C40.5676 117.39 39.7944 118.156 39.7944 118.922C39.7944 119.841 40.5676 120.453 41.3407 120.453H73.5023C74.4301 120.453 75.0486 119.841 75.0486 118.922C75.0486 118.156 74.4301 117.39 73.5023 117.39H70.8737L69.7914 110.652H98.5513C102.417 110.652 105.509 107.895 105.509 104.373V98.5537H9.48828V104.373Z" fill="#1C7468"/>
<path d="M85.7341 69.0732H29.2673C27.5702 69.0732 26.3359 70.4993 26.3359 72.0838V82.0662C26.3359 83.6507 27.7245 85.0768 29.2673 85.0768H85.7341C87.4312 85.0768 88.6654 83.6507 88.6654 82.0662V72.0838C88.6654 70.3408 87.4312 69.0732 85.7341 69.0732ZM40.9926 78.2634C41.6097 78.8972 41.6097 79.8479 40.9926 80.4817C40.3755 81.1155 39.4498 81.1155 38.8327 80.4817L37.5984 79.2141L36.3642 80.4817C35.7471 81.1155 34.8214 81.1155 34.2043 80.4817C33.5871 79.8479 33.5871 78.8972 34.2043 78.2634L35.4385 76.9958L34.2043 75.7282C33.5871 75.0944 33.5871 74.1437 34.2043 73.5099C34.8214 72.8761 35.7471 72.8761 36.3642 73.5099L37.5984 74.7775L38.8327 73.5099C39.4498 72.8761 40.3755 72.8761 40.9926 73.5099C41.6097 74.1437 41.6097 75.0944 40.9926 75.7282L39.7584 76.9958L40.9926 78.2634ZM54.2608 78.2634C54.8779 78.8972 54.8779 79.8479 54.2608 80.4817C53.6436 81.1155 52.718 81.1155 52.1008 80.4817L50.8666 79.2141L49.6323 80.4817C49.0152 81.1155 48.0895 81.1155 47.4724 80.4817C46.8553 79.8479 46.8553 78.8972 47.4724 78.2634L48.7067 76.9958L47.4724 75.7282C46.8553 75.0944 46.8553 74.1437 47.4724 73.5099C48.0895 72.8761 49.0152 72.8761 49.6323 73.5099L50.8666 74.7775L52.1008 73.5099C52.718 72.8761 53.6436 72.8761 54.2608 73.5099C54.8779 74.1437 54.8779 75.0944 54.2608 75.7282L53.0265 76.9958L54.2608 78.2634ZM67.5289 78.2634C68.1461 78.8972 68.1461 79.8479 67.5289 80.4817C66.9118 81.1155 65.9861 81.1155 65.369 80.4817L64.1348 79.2141L62.9005 80.4817C62.2834 81.1155 61.3577 81.1155 60.7406 80.4817C60.1234 79.8479 60.1234 78.8972 60.7406 78.2634L61.9748 76.9958L60.7406 75.7282C60.1234 75.0944 60.1234 74.1437 60.7406 73.5099C61.3577 72.8761 62.2834 72.8761 62.9005 73.5099L64.1348 74.7775L65.369 73.5099C65.9861 72.8761 66.9118 72.8761 67.5289 73.5099C68.1461 74.1437 68.1461 75.0944 67.5289 75.7282L66.2947 76.9958L67.5289 78.2634ZM80.7971 78.2634C81.4142 78.8972 81.4142 79.8479 80.7971 80.4817C80.18 81.1155 79.2543 81.1155 78.6372 80.4817L77.4029 79.2141L76.1687 80.4817C75.5515 81.1155 74.6259 81.1155 74.0087 80.4817C73.3916 79.8479 73.3916 78.8972 74.0087 78.2634L75.243 76.9958L74.0087 75.7282C73.3916 75.0944 73.3916 74.1437 74.0087 73.5099C74.6259 72.8761 75.5515 72.8761 76.1687 73.5099L77.4029 74.7775L78.6372 73.5099C79.2543 72.8761 80.18 72.8761 80.7971 73.5099C81.4142 74.1437 81.4142 75.0944 80.7971 75.7282L79.5628 76.9958L80.7971 78.2634Z" fill="#1C7468"/>
<path d="M98.6949 33.5762H71.1276C70.8179 34.5029 70.3532 35.2752 69.5789 35.893C72.8312 36.8197 75.1543 39.7543 75.1543 43.3068V55.6631C75.1543 59.8334 71.7471 63.2314 67.5655 63.2314H50.3747C46.1931 63.2314 42.7859 59.8334 42.7859 55.6631V43.3068C42.7859 40.5266 44.3346 38.0553 46.6577 36.6653V33.5762H16.3027C12.5857 33.5762 9.48828 36.3563 9.48828 39.9088V96.748H105.509V39.9088C105.509 36.3563 102.412 33.5762 98.6949 33.5762ZM91.8806 83.4649C91.8806 86.8629 89.0928 89.4886 85.8405 89.4886H29.1571C25.7499 89.4886 23.1171 86.7084 23.1171 83.4649V73.7343C23.1171 70.3363 25.9048 67.7106 29.1571 67.7106H85.8405C89.2477 67.7106 91.8806 70.4907 91.8806 73.7343V83.4649Z" fill="#1C7468"/>
<path d="M46.5508 56.0523C46.5508 58.523 48.5593 60.5305 51.0314 60.5305H68.1812C70.6532 60.5305 72.6618 58.523 72.6618 56.0523V43.6987C72.6618 41.228 70.6532 39.2206 68.1812 39.2206H53.5034V32.7349C53.5034 29.3377 56.2845 26.5581 59.6835 26.5581C63.0826 26.5581 65.8636 29.3377 65.8636 32.7349C65.8636 33.507 66.6362 34.2791 67.4087 34.2791C68.3357 34.2791 68.9537 33.507 68.9537 32.7349C68.9537 27.6391 64.7821 23.4697 59.6835 23.4697C54.5849 23.4697 50.4134 27.6391 50.4134 32.7349V39.2206C48.2503 39.5294 46.5508 41.3824 46.5508 43.6987V56.0523ZM58.1385 48.949C58.1385 48.1769 58.7565 47.4048 59.6835 47.4048C60.456 47.4048 61.2286 48.1769 61.2286 48.949V50.6476C61.2286 51.5742 60.456 52.1918 59.6835 52.1918C58.7565 52.1918 58.1385 51.5742 58.1385 50.6476V48.949Z" fill="#2CA7A8"/>
<rect x="31.293" y="71.9727" width="51.6327" height="10.9524" fill="#1C7468"/>
<rect x="19.5586" y="66.4961" width="75.1021" height="25.8163" fill="#1C7468"/>
<path d="M75.1031 76.1779H73.5385L74.5555 74.7698C74.7902 74.4569 74.7119 73.9092 74.399 73.6745C74.0861 73.4399 73.5385 73.5181 73.3038 73.831L72.0521 75.6303L70.8004 73.831C70.5657 73.5181 70.0963 73.4399 69.7051 73.6745C69.3922 73.9092 69.314 74.3786 69.5487 74.7698L70.5657 76.1779H69.0011C68.5317 76.1779 68.2188 76.4909 68.2188 76.9603C68.2188 77.4296 68.5317 77.7426 69.0011 77.7426H70.5657L69.5487 79.1507C69.314 79.4637 69.3922 80.0113 69.7051 80.246C70.0181 80.4807 70.5657 80.4024 70.8004 80.0895L72.0521 78.2902L73.3038 80.0895C73.5385 80.4024 74.0079 80.4807 74.399 80.246C74.7119 80.0113 74.7902 79.5419 74.5555 79.1507L73.5385 77.7426H75.1031C75.5725 77.7426 75.8854 77.4296 75.8854 76.9603C75.8854 76.4909 75.4943 76.1779 75.1031 76.1779Z" fill="white"/>
<path d="M48.3492 76.1779H46.7846L47.8016 74.7698C48.0363 74.4569 47.958 73.9092 47.6451 73.6745C47.254 73.4399 46.7846 73.5181 46.5499 73.831L45.2982 75.6303L44.0465 73.831C43.8118 73.5181 43.3424 73.4399 42.9512 73.6745C42.6383 73.9092 42.5601 74.3786 42.7948 74.7698L43.8118 76.1779H42.2472C41.7778 76.1779 41.4648 76.4909 41.4648 76.9603C41.4648 77.4296 41.7778 77.7426 42.2472 77.7426H43.8118L42.7948 79.1507C42.5601 79.4637 42.6383 80.0113 42.9512 80.246C43.2642 80.4807 43.8118 80.4024 44.0465 80.0895L45.2982 78.2902L46.5499 80.0895C46.7846 80.4024 47.254 80.4807 47.6451 80.246C47.958 80.0113 48.0363 79.5419 47.8016 79.1507L46.7846 77.7426H48.3492C48.8186 77.7426 49.1315 77.4296 49.1315 76.9603C49.1315 76.4909 48.7404 76.1779 48.3492 76.1779Z" fill="white"/>
<path d="M61.7243 76.1779H60.1597L61.1767 74.7698C61.4114 74.4569 61.3331 73.9092 61.0202 73.6745C60.7073 73.4399 60.1597 73.5181 59.925 73.831L58.5951 75.6303L57.3434 73.831C57.1087 73.5181 56.6393 73.4399 56.2481 73.6745C55.9352 73.9092 55.857 74.3786 56.0916 74.7698L57.1087 76.1779H55.544C55.0746 76.1779 54.7617 76.4909 54.7617 76.9603C54.7617 77.4296 55.0746 77.7426 55.544 77.7426H57.1087L56.0916 79.1507C55.857 79.4637 55.9352 80.0113 56.2481 80.246C56.561 80.4807 57.1087 80.4024 57.3434 80.0895L58.5951 78.2902L59.8468 80.0895C60.0814 80.4024 60.5508 80.4807 60.942 80.246C61.2549 80.0113 61.3331 79.5419 61.0985 79.1507L60.1597 77.7426H61.7243C62.1937 77.7426 62.5066 77.4296 62.5066 76.9603C62.5066 76.4909 62.1155 76.1779 61.7243 76.1779Z" fill="white"/>
</g>
<g clip-path="url(#clip0_410_35188)">
<path d="M93.3457 14.7809C93.4203 16.2476 92.9424 17.689 92.0062 18.8206C91.07 19.9522 89.7437 20.6917 88.2889 20.8931C86.8342 21.0945 85.3568 20.7432 84.1484 19.9086C82.94 19.0739 82.0884 17.8166 81.7617 16.3848C81.4373 14.9489 81.6645 13.4434 82.3982 12.1672C83.1319 10.891 84.3186 9.93725 85.7228 9.49516C87.1269 9.05308 88.646 9.15498 89.9785 9.78065C91.311 10.4063 92.3597 11.51 92.9164 12.8728L102.536 10.7086L102.965 12.6167L101.057 13.0459L101.916 16.8621L100.008 17.2914L99.1491 13.4752L97.241 13.9045L98.0996 17.7207L96.1915 18.15L95.3329 14.3338L93.3457 14.7809ZM88.3445 18.9131C89.3566 18.6854 90.2368 18.0649 90.7915 17.1882C91.3462 16.3116 91.5298 15.2504 91.3021 14.2383C91.0744 13.2262 90.454 12.346 89.5773 11.7914C88.7006 11.2367 87.6395 11.053 86.6274 11.2807C85.6153 11.5084 84.7351 12.1289 84.1804 13.0056C83.6258 13.8823 83.4421 14.9434 83.6698 15.9555C83.8975 16.9676 84.5179 17.8478 85.3946 18.4024C86.2713 18.9571 87.3324 19.1408 88.3445 18.9131Z" fill="#2CA7A8"/>
<rect x="95.332" y="14.334" width="1.95578" height="3.91156" transform="rotate(-12.6794 95.332 14.334)" fill="#1C7468"/>
<rect x="99.0938" y="13.4248" width="1.97466" height="3.96422" transform="rotate(-12.6794 99.0938 13.4248)" fill="#1C7468"/>
</g>
<defs>
<clipPath id="clip0_410_35188">
<rect width="23.4694" height="23.4694" fill="white" transform="translate(78.2305 5.15137) rotate(-12.6794)"/>
</clipPath>
</defs>
</svg>
