<?xml version="1.0" encoding="UTF-8"?>
<svg xmlns="http://www.w3.org/2000/svg" xmlns:xlink="http://www.w3.org/1999/xlink" width="22px" height="22px" viewBox="0 0 22 22" version="1.1">
<g id="surface1">
<path style=" stroke:none;fill-rule:nonzero;fill:rgb(0%,0%,0%);fill-opacity:1;" d="M 5.285156 1.277344 C 3.015625 1.519531 1.066406 3.007812 0.285156 5.082031 C 0.015625 5.796875 0 5.917969 0 7.246094 C 0 8.417969 0.00390625 8.484375 0.109375 8.847656 C 0.308594 9.578125 0.640625 10.242188 1.089844 10.839844 C 1.300781 11.121094 9.4375 19.808594 10.117188 20.488281 C 10.359375 20.726562 10.40625 20.753906 10.566406 20.753906 C 10.71875 20.753906 10.777344 20.722656 11.035156 20.488281 C 11.574219 19.988281 20.382812 11.453125 20.5625 11.257812 C 21.210938 10.527344 21.660156 9.707031 21.910156 8.796875 C 21.992188 8.496094 22 8.351562 22 7.238281 C 22 5.917969 21.984375 5.796875 21.714844 5.082031 C 21.003906 3.191406 19.214844 1.703125 17.238281 1.347656 C 14.910156 0.941406 12.675781 1.8125 11.289062 3.671875 C 11.144531 3.863281 11.015625 4.015625 11 4.015625 C 10.984375 4.015625 10.855469 3.863281 10.710938 3.671875 C 9.5625 2.121094 7.746094 1.21875 5.84375 1.253906 C 5.621094 1.253906 5.367188 1.265625 5.285156 1.277344 Z M 7.050781 2.289062 C 7.785156 2.480469 8.363281 2.753906 8.941406 3.183594 C 9.539062 3.625 10.183594 4.417969 10.484375 5.085938 C 10.632812 5.414062 10.777344 5.542969 11 5.542969 C 11.222656 5.542969 11.367188 5.414062 11.515625 5.085938 C 12.277344 3.410156 14.015625 2.246094 15.898438 2.160156 C 18.441406 2.039062 20.734375 3.921875 21.140625 6.464844 C 21.203125 6.847656 21.203125 7.625 21.144531 7.996094 C 21.011719 8.800781 20.65625 9.640625 20.167969 10.285156 C 19.953125 10.570312 18.71875 11.789062 15.265625 15.128906 C 12.726562 17.582031 10.621094 19.59375 10.585938 19.59375 C 10.507812 19.59375 2.148438 10.707031 1.816406 10.269531 C 1.339844 9.628906 0.988281 8.800781 0.855469 7.996094 C 0.789062 7.613281 0.789062 6.839844 0.859375 6.445312 C 0.976562 5.757812 1.289062 4.980469 1.707031 4.351562 C 1.933594 4.007812 2.464844 3.460938 2.839844 3.179688 C 3.464844 2.714844 4.273438 2.363281 5.070312 2.210938 C 5.570312 2.117188 6.527344 2.15625 7.050781 2.289062 Z M 7.050781 2.289062 "/>
</g>
</svg>
