<svg width="23" height="23" viewBox="0 0 23 23" fill="none" xmlns="http://www.w3.org/2000/svg">
<g clip-path="url(#clip0_410_27695)">
<path d="M11.5024 5.60369C10.7278 5.60252 9.96048 5.75426 9.24457 6.0502C8.52865 6.34614 7.87818 6.78047 7.33045 7.32829C6.78271 7.87611 6.34848 8.52664 6.05265 9.2426C5.75681 9.95856 5.60519 10.7259 5.60647 11.5005C5.60519 12.2752 5.75681 13.0425 6.05265 13.7585C6.34848 14.4744 6.78271 15.125 7.33045 15.6728C7.87818 16.2206 8.52865 16.6549 9.24457 16.9509C9.96048 17.2468 10.7278 17.3985 11.5024 17.3974C12.2771 17.3985 13.0444 17.2468 13.7603 16.9509C14.4762 16.6549 15.1267 16.2206 15.6744 15.6728C16.2222 15.125 16.6564 14.4744 16.9522 13.7585C17.2481 13.0425 17.3997 12.2752 17.3984 11.5005C17.3997 10.7259 17.2481 9.95856 16.9522 9.2426C16.6564 8.52664 16.2222 7.87611 15.6744 7.32829C15.1267 6.78047 14.4762 6.34614 13.7603 6.0502C13.0444 5.75426 12.2771 5.60252 11.5024 5.60369ZM19.0146 5.36219C19.0152 5.54299 18.98 5.72213 18.9111 5.88929C18.8421 6.05644 18.7408 6.20832 18.613 6.33617C18.4851 6.46402 18.3333 6.56532 18.1661 6.63424C17.999 6.70317 17.8198 6.73835 17.639 6.73776C17.3669 6.73794 17.1009 6.65741 16.8745 6.50637C16.6482 6.35532 16.4718 6.14055 16.3675 5.88921C16.2633 5.63787 16.2359 5.36126 16.2889 5.09437C16.3419 4.82747 16.4728 4.58229 16.6651 4.38982C16.8575 4.19735 17.1026 4.06626 17.3694 4.01311C17.6363 3.95996 17.9129 3.98715 18.1643 4.09124C18.4157 4.19532 18.6306 4.37163 18.7818 4.59787C18.933 4.8241 19.0146 5.09009 19.0146 5.36219ZM22.9193 6.75811C22.8317 4.91634 22.4106 3.28423 21.0616 1.93961C19.717 0.594996 18.0857 0.173919 16.2431 0.0819189C14.3447 -0.0260042 8.65486 -0.0260042 6.75647 0.0819189C4.91824 0.168611 3.28789 0.588803 1.93709 1.93342C0.588933 3.27892 0.173163 4.91015 0.0802789 6.7528C-0.0267596 8.65207 -0.0267596 14.3437 0.0802789 16.243C0.167856 18.0847 0.588933 19.7168 1.93797 21.0615C3.28789 22.4061 4.91382 22.8271 6.75647 22.9191C8.65486 23.0271 14.3447 23.0271 16.2431 22.9191C18.0857 22.8325 19.717 22.4114 21.0616 21.0615C22.4062 19.7168 22.8264 18.0856 22.9193 16.243C23.0272 14.3437 23.0272 8.65738 22.9193 6.75811ZM20.4662 18.2802C20.2712 18.7748 19.9766 19.224 19.6007 19.6001C19.2249 19.9761 18.7758 20.2709 18.2812 20.4661C16.7668 21.0676 13.1752 20.9288 11.5024 20.9288C9.82963 20.9288 6.23278 21.0615 4.72451 20.4661C4.22984 20.271 3.78055 19.9762 3.40453 19.6002C3.0285 19.2242 2.73377 18.7749 2.53863 18.2802C1.93797 16.7658 2.07686 13.1733 2.07686 11.5005C2.07686 9.82772 1.94328 6.22999 2.53863 4.72084C2.73367 4.22625 3.02827 3.77702 3.40413 3.401C3.78 3.02498 4.22912 2.73021 4.72363 2.53496C6.23809 1.93342 9.82963 2.0723 11.5024 2.0723C13.1744 2.0723 16.7721 1.93961 18.2804 2.53496C18.775 2.73011 19.2243 3.02484 19.6003 3.40086C19.9764 3.77688 20.2711 4.22617 20.4662 4.72084C21.0669 6.2353 20.928 9.82772 20.928 11.5005C20.928 13.1733 21.0669 16.7711 20.4662 18.2802Z" fill="#FFF8EC"/>
</g>
<defs>
<clipPath id="clip0_410_27695">
<rect width="23" height="23" fill="white"/>
</clipPath>
</defs>
</svg>
