<svg width="51" height="52" viewBox="0 0 51 52" fill="none" xmlns="http://www.w3.org/2000/svg">
<g opacity="0.7">
<path d="M35.4981 41.0751C38.5605 39.5268 40.8773 37.4894 42.3861 35.0267C44.2742 31.9614 44.8252 28.1891 43.8657 25.1632C43.5287 24.1484 43.0159 23.236 42.3606 22.4855C41.7054 21.735 40.9226 21.1634 40.0631 20.8078C40.1188 18.1389 39.1805 16.4647 37.8026 14.4165C35.0574 10.2806 30.1489 7.94804 24.6784 8.17533C20.7379 8.38322 16.8736 9.73567 13.4158 12.1171C9.95801 14.4985 7.22368 16.9284 5.03663 20.9406C5.01975 20.9722 5.00811 21.0073 5.0024 21.044C4.99668 21.0806 4.997 21.1181 5.00332 21.1543C5.00965 21.1904 5.02185 21.2246 5.03926 21.2547C5.05666 21.2848 5.07892 21.3104 5.10475 21.3299C5.13058 21.3495 5.15949 21.3626 5.18982 21.3685C5.22015 21.3745 5.25131 21.3731 5.28151 21.3646C5.31172 21.3561 5.34038 21.3405 5.36587 21.3188C5.39135 21.2971 5.41316 21.2696 5.43005 21.238C7.58707 17.3185 10.2678 14.9662 13.6568 12.6363C17.0458 10.3065 20.8297 8.97694 24.6899 8.75971C30.018 8.53967 34.7895 10.8106 37.4243 14.8076C38.707 16.6986 39.6181 18.1667 39.6143 20.6382C38.7353 20.3553 37.8035 20.3617 36.915 20.6569C36.4378 20.7999 35.9872 21.0574 35.5905 21.4136C35.1939 21.7699 34.8594 22.2176 34.6073 22.7296C34.3513 23.2663 34.2481 23.8854 34.3136 24.4903C34.3791 25.0952 34.6097 25.6519 34.9695 26.0735C35.1901 26.2873 35.4479 26.4397 35.725 26.5201C36.0022 26.6005 36.2921 26.6071 36.5746 26.5393C37.074 26.4143 37.5496 26.169 37.9726 25.8184C38.3955 25.4678 38.7571 25.0191 39.0352 24.4996C39.5493 23.5426 39.8749 22.4606 39.9864 21.3388C40.7585 21.6801 41.46 22.211 42.047 22.8984C42.6339 23.5859 43.0939 24.4151 43.3981 25.3346C44.3065 28.181 43.7718 31.7467 41.9984 34.6436C40.5386 37.0255 38.2928 38.9955 35.3121 40.4998C35.2528 40.5236 35.2033 40.5745 35.1743 40.6414C35.1453 40.7083 35.1394 40.7856 35.1577 40.8564C35.1759 40.9271 35.217 40.9855 35.2719 41.0187C35.3267 41.0519 35.3908 41.0571 35.4501 41.0333L35.4981 41.0751ZM39.5674 21.2128C39.4737 22.283 39.1701 23.3175 38.6817 24.2306C38.4366 24.6796 38.1206 25.0673 37.7524 25.3709C37.3841 25.6746 36.9709 25.888 36.5372 25.9987C36.3189 26.0526 36.0947 26.0479 35.8805 25.9852C35.6663 25.9224 35.4675 25.803 35.2984 25.6356C35.0148 25.2978 34.8332 24.8548 34.7812 24.3741C34.7291 23.8935 34.8095 23.4015 35.0101 22.9732C35.2312 22.5298 35.5237 22.1427 35.8699 21.8354C36.216 21.5281 36.6086 21.307 37.0238 21.1855C37.8637 20.9139 38.7435 20.9234 39.5674 21.2128Z" fill="#055F52"/>
<path d="M37.4074 41.3735C37.4526 41.3465 37.4899 41.3031 37.5136 41.2495C37.5374 41.1959 37.5465 41.1349 37.5395 41.0756C37.5326 41.0163 37.5099 40.9617 37.475 40.9199C37.44 40.878 37.3945 40.8511 37.3452 40.843L35.2992 40.9022L36.5453 37.7921C36.559 37.7586 36.5671 37.7223 36.5691 37.6853C36.5712 37.6483 36.5672 37.6114 36.5574 37.5767C36.5476 37.5419 36.5321 37.51 36.5119 37.4828C36.4917 37.4555 36.4671 37.4335 36.4396 37.4179C36.4121 37.4023 36.3821 37.3935 36.3514 37.392C36.3208 37.3904 36.29 37.3961 36.2608 37.4088C36.2317 37.4216 36.2048 37.441 36.1816 37.466C36.1585 37.4911 36.1395 37.5212 36.1259 37.5548L34.7071 41.0784C34.6896 41.1218 34.6814 41.1697 34.6834 41.2174C34.6854 41.265 34.6974 41.311 34.7184 41.351C34.7394 41.3909 34.7687 41.4235 34.8034 41.4456C34.8382 41.4678 34.8772 41.4788 34.917 41.4775L37.337 41.4073L37.4074 41.3735Z" fill="#288376"/>
</g>
</svg>
