<svg width="13" height="11" viewBox="0 0 13 11" fill="none" xmlns="http://www.w3.org/2000/svg">
<path fill-rule="evenodd" clip-rule="evenodd" d="M0.948692 0.980047C1.55632 0.378221 2.38034 0.0401334 3.23953 0.0401334C4.09872 0.0401334 4.92273 0.378221 5.53036 0.980047L6.47975 1.91984L7.42913 0.980047C7.72803 0.673437 8.08557 0.428874 8.48089 0.260629C8.87621 0.0923834 9.30139 0.00382523 9.73163 0.000121208C10.1619 -0.00358282 10.5885 0.0776417 10.9867 0.239055C11.385 0.400469 11.7467 0.638839 12.051 0.940256C12.3552 1.24167 12.5958 1.6001 12.7587 1.99463C12.9216 2.38916 13.0036 2.81188 12.9999 3.23813C12.9961 3.66439 12.9068 4.08563 12.7369 4.47729C12.5671 4.86896 12.3203 5.22319 12.0108 5.51932L6.47975 11L0.948692 5.51932C0.341245 4.91732 0 4.10093 0 3.24969C0 2.39845 0.341245 1.58206 0.948692 0.980047Z" fill="#FF7373"/>
</svg>
