<svg width="28" height="10" viewBox="0 0 28 10" fill="none" xmlns="http://www.w3.org/2000/svg">
<g clip-path="url(#clip0_410_14625)">
<path opacity="0.9" d="M27.9429 0.561325C27.3775 0.410993 26.8588 0.350861 26.2571 0.285717C25.3753 0.185496 24.452 0.0952967 23.565 0.0602194C21.8014 -0.0149465 20.3023 -0.0299796 18.3935 0.100308C17.6258 0.155429 16.7647 0.240617 16.0074 0.365894C15.914 0.380927 15.6702 0.400971 15.4524 0.456093C15.442 0.456093 15.4316 0.461104 15.4213 0.456093C14.8662 0.410993 14.306 0.416004 14.0052 0.426026C13.7043 0.416004 13.1441 0.410993 12.5891 0.456093C12.5787 0.456093 12.5684 0.456093 12.558 0.456093C12.3349 0.405982 12.0963 0.380927 12.003 0.365894C11.2353 0.240617 10.3742 0.150418 9.60652 0.100308C7.69767 -0.0299796 6.19859 -0.0149465 4.43498 0.0602194C3.54798 0.0952967 2.62468 0.185496 1.74287 0.285717C1.14635 0.350861 0.622453 0.410993 0.0570582 0.561325C0.0311226 0.566336 0 0.591391 0 0.621458C0.0155613 1.15263 0.0570582 1.96943 0.181549 2.66597C0.186736 2.70606 0.217858 2.73612 0.259355 2.74113C0.389033 2.76118 0.46684 2.8614 0.482401 2.89147C0.772879 3.44268 0.75213 4.29957 0.835124 4.98609C0.975176 6.17371 1.25009 7.30119 1.77399 8.39361C2.22008 9.32065 3.33012 9.7065 4.25343 9.85182C5.81993 10.0924 7.64061 9.99213 9.15524 9.42087C10.784 8.80451 11.8059 7.47157 12.3038 5.81792C12.5009 5.1715 12.615 4.51004 12.698 3.84357C12.7395 3.46273 13.0559 2.9065 13.6369 2.74113C13.7095 2.72109 13.8599 2.70105 14 2.69102C14.1401 2.70105 14.2905 2.72109 14.3631 2.74113C14.9389 2.9065 15.2605 3.46273 15.302 3.84357C15.385 4.51004 15.5043 5.1715 15.6962 5.81792C16.1941 7.47157 17.216 8.80451 18.8448 9.42087C20.3542 9.99213 22.1801 10.0924 23.7466 9.85182C24.6699 9.71151 25.7799 9.32566 26.226 8.39361C26.7499 7.30119 27.0248 6.1687 27.1649 4.98609C27.2479 4.30458 27.2271 3.44268 27.5176 2.89147C27.5332 2.85639 27.611 2.75617 27.7406 2.74113C27.7821 2.73612 27.8133 2.70606 27.8185 2.66597C27.9429 1.96943 27.9844 1.15263 28 0.621458C28 0.591391 27.9689 0.566336 27.9429 0.561325ZM11.5465 5.64254C11.2508 6.61468 10.3898 8.23325 8.91145 8.78948C8.11782 9.09014 6.2764 9.44092 4.51278 9.18034C3.57392 9.04003 2.64024 8.61409 2.28233 7.82234C1.51464 6.11357 1.22416 2.91151 1.93998 2.03959C2.71286 1.10252 11.4894 1.32802 11.6139 2.21497C11.7747 3.42765 11.8629 4.59522 11.5465 5.64254ZM25.7177 7.82736C25.3598 8.6191 24.4261 9.04504 23.4872 9.18535C21.7236 9.44593 19.8822 9.09515 19.0886 8.79449C17.6102 8.23826 16.7492 6.61969 16.4535 5.64755C16.1371 4.60024 16.2253 3.42765 16.3861 2.225C16.5054 1.33804 25.2871 1.11254 26.06 2.04961C26.781 2.92153 26.4906 6.11859 25.7177 7.82736Z" fill="#1C7468"/>
<path opacity="0.45" d="M11.5476 5.6425C11.2519 6.61465 10.3909 8.23322 8.91256 8.78945C8.11894 9.09011 6.27751 9.44089 4.5139 9.18031C3.57503 9.04 2.64135 8.61406 2.28344 7.82231C1.51575 6.11354 1.22527 2.91148 1.94109 2.03955C2.71397 1.10249 11.4906 1.32798 11.615 2.21494C11.7758 3.42762 11.864 4.59519 11.5476 5.6425Z" fill="#1C7468"/>
<path opacity="0.45" d="M25.7172 7.82731C25.3592 8.61906 24.4256 9.045 23.4867 9.18531C21.7231 9.44588 19.8817 9.09511 19.088 8.79444C17.6097 8.23822 16.7487 6.61965 16.453 5.6475C16.1366 4.60019 16.2248 3.4276 16.3856 2.22495C16.5049 1.33799 25.2866 1.1125 26.0595 2.04956C26.7805 2.92149 26.49 6.11854 25.7172 7.82731Z" fill="#1C7468"/>
</g>
<defs>
<clipPath id="clip0_410_14625">
<rect width="28" height="9.97701" fill="white"/>
</clipPath>
</defs>
</svg>
