<svg width="18" height="18" viewBox="0 0 18 18" fill="none" xmlns="http://www.w3.org/2000/svg">
<path d="M2.77778 1C2.30628 1 1.8541 1.1873 1.5207 1.5207C1.1873 1.8541 1 2.30628 1 2.77778V3.66667C1 11.0302 6.96978 17 14.3333 17H15.2222C15.6937 17 16.1459 16.8127 16.4793 16.4793C16.8127 16.1459 17 15.6937 17 15.2222V12.3067C16.9999 12.1202 16.9411 11.9385 16.832 11.7872C16.7228 11.636 16.5689 11.5229 16.392 11.464L12.3982 10.1324C12.1953 10.065 11.9748 10.073 11.7772 10.1549C11.5796 10.2369 11.4183 10.3873 11.3227 10.5787L10.3182 12.5849C8.14159 11.6013 6.39833 9.8577 5.41511 7.68089L7.42133 6.67822C7.61267 6.58263 7.76312 6.42124 7.84508 6.22368C7.92704 6.02612 7.93502 5.80563 7.86756 5.60267L6.536 1.60711C6.47687 1.43021 6.36359 1.27638 6.2122 1.16742C6.0608 1.05847 5.87897 0.999893 5.69244 1H2.77778Z" stroke="white" stroke-width="0.8" stroke-linecap="round" stroke-linejoin="round"/>
</svg>
