<svg width="11" height="11" viewBox="0 0 11 11" fill="none" xmlns="http://www.w3.org/2000/svg">
<path fill-rule="evenodd" clip-rule="evenodd" d="M5.5 6.36461L1.03133 10.8235C0.795381 11.0588 0.412919 11.0588 0.176963 10.8235C-0.0589876 10.588 -0.0589876 10.2063 0.176963 9.97094L4.65771 5.5L0.176963 1.02905C-0.0589876 0.793683 -0.0589876 0.412038 0.176963 0.176529C0.412913 -0.0588428 0.795375 -0.0588428 1.03133 0.176529L5.5 4.63539L9.96867 0.176529C10.2046 -0.0588428 10.5871 -0.0588428 10.823 0.176529C11.059 0.412015 11.059 0.793663 10.823 1.02905L6.34229 5.5L10.823 9.97094C11.059 10.2063 11.059 10.588 10.823 10.8235C10.5871 11.0588 10.2046 11.0588 9.96867 10.8235L5.5 6.36461Z" fill="#FF7373"/>
</svg>
