<svg width="22" height="16" viewBox="0 0 22 16" fill="none" xmlns="http://www.w3.org/2000/svg">
<g opacity="0.9">
<path d="M21.2532 6.87151L19.7551 6.22316L18.483 3.74765C18.1391 3.06983 17.4417 2.64742 16.6804 2.65233H14.4897V2.03346C14.4897 0.913582 13.5958 0 12.4759 0H2.00412C0.884242 0 0.000130691 0.918493 0.000130691 2.03346V11.5131C-0.00969277 12.1958 0.535509 12.7558 1.21824 12.7656C1.22315 12.7656 1.22806 12.7656 1.23789 12.7656H1.49821C1.49821 12.8147 1.4933 12.8343 1.4933 12.8638C1.48838 14.2686 2.62299 15.413 4.02775 15.4179C5.4325 15.4228 6.57694 14.2882 6.58185 12.8835C6.58185 12.8736 6.58185 12.8687 6.58185 12.8589C6.58185 12.8245 6.58185 12.8098 6.57693 12.7607H15.0398C15.0398 12.8098 15.0398 12.8294 15.0398 12.8589C15.0349 14.2637 16.1695 15.4081 17.5743 15.413C18.979 15.4179 20.1235 14.2833 20.1284 12.8786C20.1284 12.8687 20.1284 12.8638 20.1284 12.854C20.1284 12.8196 20.1284 12.8049 20.1284 12.7558H20.762C21.4447 12.7558 21.9998 12.2007 21.9998 11.518C21.9998 11.5131 21.9998 11.5082 21.9998 11.4984V8.01103C22.0096 7.52968 21.7149 7.07289 21.2532 6.87151ZM4.04248 14.4405C3.17802 14.4405 2.48055 13.743 2.48055 12.8786C2.48055 12.0141 3.17802 11.3166 4.04248 11.3166C4.90695 11.3166 5.60441 12.0141 5.60441 12.8786C5.60441 13.7381 4.90204 14.4405 4.04248 14.4405ZM13.5074 11.7931H6.34608C5.9335 10.8942 5.02974 10.3195 4.04248 10.3245C3.05031 10.3195 2.15147 10.8893 1.73888 11.7931H1.23789C1.08562 11.7931 0.982476 11.6752 0.982476 11.5229V8.99337H13.5074V11.7931ZM13.5074 2.03837V8.01103H0.982476V2.03837C0.982476 1.4637 1.42944 0.987257 2.00412 0.987257H12.4759C13.0506 0.992169 13.5123 1.4637 13.5074 2.03346V2.03837ZM14.4897 3.63959H16.6804C17.0684 3.63468 17.4319 3.84588 17.6136 4.19462L18.5959 6.09546H14.4897V3.63959ZM17.589 14.4405C16.7246 14.4405 16.0271 13.743 16.0271 12.8786C16.0271 12.0141 16.7246 11.3166 17.589 11.3166C18.4535 11.3166 19.151 12.0141 19.151 12.8786C19.151 13.7381 18.4535 14.4405 17.589 14.4405ZM21.0223 11.5229C21.0223 11.6752 20.9192 11.7931 20.7669 11.7931H19.8926C19.2983 10.5209 17.7855 9.97081 16.5134 10.5651C15.9731 10.8156 15.5359 11.2528 15.2854 11.7931H14.4897V7.0778H19.3032L20.8652 7.76544C20.9634 7.81456 21.0272 7.92262 21.0223 8.03068V11.5229Z" fill="white"/>
</g>
</svg>
