<svg width="24" height="24" viewBox="0 0 24 24" fill="none" xmlns="http://www.w3.org/2000/svg">
<g opacity="0.75">
<path opacity="0.2" d="M12 3C10.4111 3.00037 8.8506 3.42129 7.47703 4.21998C6.10346 5.01867 4.96575 6.16668 4.17948 7.5474C3.39321 8.92812 2.98639 10.4924 3.00035 12.0812C3.0143 13.67 3.44854 15.2269 4.25894 16.5936L4.25899 16.5935L3.37088 19.7019C3.33414 19.8306 3.33245 19.9666 3.366 20.0961C3.39956 20.2256 3.46712 20.3437 3.5617 20.4383C3.65628 20.5329 3.77443 20.6005 3.90391 20.634C4.03338 20.6676 4.16948 20.6659 4.29808 20.6291L7.40648 19.741V19.7411C8.59766 20.4479 9.93588 20.8702 11.317 20.9753C12.6981 21.0803 14.0848 20.8651 15.3691 20.3466C16.6535 19.828 17.8008 19.02 18.7218 17.9855C19.6429 16.951 20.3127 15.7179 20.6792 14.3822C21.0457 13.0465 21.099 11.6442 20.8349 10.2845C20.5708 8.92484 19.9965 7.64446 19.1566 6.54304C18.3168 5.44163 17.2341 4.54891 15.9928 3.93438C14.7515 3.31985 13.3851 3.00009 12 3ZM14.2606 17.25C13.2739 17.2514 12.2966 17.0581 11.3848 16.6811C10.4729 16.3042 9.64436 15.751 8.94665 15.0533C8.24894 14.3556 7.69577 13.5271 7.31882 12.6152C6.94187 11.7033 6.74855 10.726 6.74996 9.73934C6.75219 9.04481 7.02981 8.37953 7.52192 7.88942C8.01402 7.39932 8.68043 7.12441 9.37496 7.125C9.48887 7.125 9.60076 7.15511 9.69929 7.21229C9.79782 7.26946 9.87948 7.35168 9.93599 7.45058L11.0321 9.36864C11.0981 9.48431 11.1322 9.61551 11.1308 9.74872C11.1294 9.88194 11.0925 10.0124 11.024 10.1266L10.1438 11.5937C10.5966 12.5986 11.4013 13.4033 12.4063 13.8562L12.4063 13.8562L13.8733 12.976C13.9876 12.9074 14.118 12.8706 14.2512 12.8691C14.3844 12.8677 14.5156 12.9018 14.6313 12.9679L16.5493 14.0639C16.6483 14.1205 16.7305 14.2021 16.7877 14.3007C16.8448 14.3992 16.875 14.5111 16.875 14.625C16.873 15.3187 16.5972 15.9837 16.1077 16.4752C15.6181 16.9667 14.9543 17.2452 14.2606 17.25Z" fill="white"/>
<path d="M4.25895 16.5934C3.14076 14.7084 2.74916 12.48 3.15768 10.3267C3.56621 8.17341 4.74675 6.24331 6.47764 4.89884C8.20852 3.55437 10.3707 2.88801 12.5581 3.0249C14.7455 3.16178 16.8078 4.09249 18.3575 5.64225C19.9073 7.19202 20.838 9.25423 20.9749 11.4417C21.1118 13.6291 20.4455 15.7912 19.101 17.5221C17.7565 19.253 15.8264 20.4336 13.6732 20.8421C11.5199 21.2507 9.29149 20.8591 7.40649 19.7409L7.40651 19.7408L4.29808 20.6289C4.16948 20.6657 4.03338 20.6673 3.90391 20.6338C3.77443 20.6002 3.65628 20.5327 3.56171 20.4381C3.46713 20.3435 3.39956 20.2254 3.36601 20.0959C3.33246 19.9664 3.33415 19.8303 3.37089 19.7017L4.25902 16.5933L4.25895 16.5934Z" stroke="white" stroke-width="0.8" stroke-linecap="round" stroke-linejoin="round"/>
<path d="M14.2607 17.25C13.274 17.2514 12.2967 17.0581 11.3848 16.6811C10.4729 16.3042 9.64441 15.751 8.9467 15.0533C8.24899 14.3556 7.69582 13.5271 7.31887 12.6152C6.94192 11.7033 6.74861 10.726 6.75001 9.73934C6.75224 9.04482 7.02986 8.37953 7.52196 7.88943C8.01406 7.39932 8.68047 7.12441 9.375 7.125V7.125C9.48892 7.125 9.60081 7.15512 9.69934 7.21229C9.79787 7.26947 9.87953 7.35168 9.93605 7.45059L11.0321 9.36865C11.0982 9.48432 11.1323 9.61551 11.1309 9.74873C11.1294 9.88195 11.0926 10.0124 11.024 10.1266L10.1438 11.5937C10.5967 12.5986 11.4014 13.4033 12.4063 13.8562V13.8562L13.8734 12.976C13.9876 12.9074 14.118 12.8706 14.2513 12.8691C14.3845 12.8677 14.5157 12.9018 14.6313 12.9679L16.5494 14.064C16.6483 14.1205 16.7305 14.2021 16.7877 14.3007C16.8449 14.3992 16.875 14.5111 16.875 14.625V14.625C16.873 15.3187 16.5973 15.9837 16.1077 16.4752C15.6182 16.9667 14.9544 17.2452 14.2607 17.25V17.25Z" stroke="white" stroke-width="0.8" stroke-linecap="round" stroke-linejoin="round"/>
</g>
</svg>
