<svg width="93" height="46" viewBox="0 0 93 46" fill="none" xmlns="http://www.w3.org/2000/svg">
<path fill-rule="evenodd" clip-rule="evenodd" d="M90.4323 9.74902C89.9633 9.74902 89.5136 9.93532 89.182 10.2669C88.8504 10.5985 88.6641 11.0483 88.6641 11.5173C88.6641 11.9862 88.8504 12.436 89.182 12.7676C89.5136 13.0992 89.9633 13.2855 90.4323 13.2855C90.6646 13.2853 90.8947 13.2392 91.1092 13.15C91.3237 13.0607 91.5185 12.9299 91.6824 12.7652C91.8462 12.6005 91.976 12.4051 92.0642 12.1901C92.1524 11.9752 92.1973 11.7449 92.1963 11.5126C92.1962 11.0448 92.0103 10.5962 91.6795 10.2655C91.3487 9.93481 90.9001 9.74902 90.4323 9.74902ZM90.4323 13.0726C90.2276 13.0727 90.0249 13.0324 89.8359 12.954C89.6468 12.8756 89.4751 12.7606 89.3306 12.6157C89.1861 12.4707 89.0717 12.2987 88.9939 12.1094C88.9161 11.9201 88.8764 11.7172 88.8772 11.5126C88.8774 11.3086 88.9178 11.1067 88.996 10.9184C89.0743 10.7301 89.189 10.5591 89.3334 10.4151C89.4778 10.2711 89.6492 10.157 89.8378 10.0794C90.0263 10.0017 90.2284 9.96193 90.4323 9.96239C90.8434 9.96239 91.2377 10.1257 91.5284 10.4164C91.8192 10.7071 91.9825 11.1014 91.9825 11.5126C91.9835 11.7169 91.9442 11.9194 91.8668 12.1085C91.7894 12.2976 91.6754 12.4696 91.5314 12.6145C91.3873 12.7595 91.2161 12.8745 91.0275 12.9531C90.8389 13.0318 90.6366 13.0724 90.4323 13.0726Z" fill="black"/>
<path fill-rule="evenodd" clip-rule="evenodd" d="M91.345 11.0468C91.345 10.8802 91.2711 10.7043 91.1227 10.621C90.9744 10.5333 90.8078 10.5239 90.6403 10.5239H89.7798V12.5006H90.0203V11.5884H90.4648L91.0291 12.5006H91.3169L90.7191 11.5884C91.0715 11.5791 91.345 11.4356 91.345 11.0468ZM90.3909 11.3987H90.0203V10.6999H90.5851C90.8305 10.6999 91.0991 10.7368 91.0991 11.0424C91.0996 11.445 90.6679 11.3987 90.3909 11.3987ZM31.2252 40.6787L19.7006 35.0512C19.4472 34.9201 19.3166 34.585 19.3216 34.3657L19.3521 31.2589C19.3566 31.0401 19.3999 30.8154 19.6872 30.6094C20.9193 29.8238 24.7347 27.7121 28.6763 21.9594C33.9259 14.2975 28.6763 7.86022 20.4718 9.61269C13.185 11.169 5.76651 15.1146 2.54887 17.2598C-0.318856 19.1715 0.0793443 21.4813 0 23.5527C0.159181 24.4284 0.478037 24.3491 1.19509 23.4728C6.53186 18.5342 14.657 14.7903 16.1705 14.1531C17.6839 13.5158 21.2687 11.3652 25.4907 12.3207C29.5461 13.2394 28.5605 18.7531 27.3225 21.0831C25.9683 23.632 22.105 27.336 20.3526 28.2522C19.6868 28.6001 19.4369 28.2522 19.4369 27.6943L19.7158 15.7059C19.7158 14.9095 19.3571 14.5508 18.5607 14.8297L17.2862 15.4669C16.41 15.9849 16.4499 16.184 16.3701 16.8212L16.1769 30.6419C16.1705 30.9401 16.0315 31.1796 15.8674 31.25L11.7099 33.5885C10.7544 34.0665 10.9929 34.7836 11.7099 35.0226L15.0557 36.6154C15.8526 36.9338 16.0916 37.1728 16.0916 37.9692L15.9719 44.6607C18.9593 44.0634 19.158 42.6293 19.2378 41.6732V39.6418C19.3171 39.1638 19.5961 39.0046 19.9943 39.0844L29.7122 43.784C30.5885 44.1827 31.0665 44.0225 31.7037 42.9082C32.3404 41.794 32.4203 41.2366 31.2252 40.6787ZM48.2083 23.7961C46.858 24.5758 46.2331 26.035 46.7653 26.9561C47.2966 27.8777 48.9032 28.0324 50.2545 27.2518C51.6058 26.4716 52.1903 25.0523 51.6581 24.1312C51.1268 23.2101 49.5596 23.0155 48.2083 23.7961Z" fill="black"/>
<path fill-rule="evenodd" clip-rule="evenodd" d="M43.2266 24.7923C42.8595 25.2398 42.1513 26.6049 41.7531 27.4412C41.3549 28.2771 40.5186 30.169 39.6823 30.169C38.7981 30.169 38.6863 27.9789 38.6863 27.182C38.6863 26.3851 38.2082 26.2659 37.9692 26.3058C37.7302 26.3457 37.0531 26.5842 36.854 27.421C36.6549 28.2574 35.5795 31.8821 34.3844 31.8821C33.6279 31.8821 33.0701 29.6915 33.0306 29.0143C32.9907 28.3377 32.6719 27.7798 31.9947 27.7798C31.5167 27.7798 30.9194 28.0188 30.6804 28.2978C30.4414 28.5767 30.4019 29.0143 29.127 28.7359C27.9718 28.696 26.8566 29.2938 25.5028 31.5637C24.6877 32.9303 24.0253 35.4772 25.2638 36.5023C26.4189 37.4579 28.4499 35.7453 29.0477 35.0282C29.645 34.3117 30.1629 33.7937 30.4019 33.396C30.6405 32.9973 30.88 33.0372 30.9992 33.4354C31.1185 33.8341 31.7956 35.387 32.6724 35.3476C33.5486 35.3077 34.6639 34.6305 35.9782 32.3202C36.2172 31.8421 36.5755 31.8821 36.6554 32.2803C36.7352 32.679 37.2527 33.9933 38.1289 33.9933C38.9652 33.9933 39.8957 32.6647 40.3594 31.8826C40.6778 31.3449 41.1558 31.6041 41.1558 32.1216C41.1558 32.639 40.9168 44.8664 40.9168 44.8664C40.9168 45.4238 41.1356 45.583 41.5338 45.583H43.2666C43.5849 45.583 43.8639 45.3046 43.8639 44.8664L44.2221 25.0515C44.2226 24.573 43.685 24.2349 43.2266 24.7923ZM29.6854 32.5986C29.3266 33.1964 28.371 34.7892 27.5347 34.5108C27.0966 34.2718 27.6806 32.6785 27.9728 32.1211C28.4109 31.2848 29.6952 29.9527 30.2827 30.2888C30.8405 30.6071 30.0437 32.0013 29.6854 32.5986ZM90.371 20.3826C90.2123 20.522 89.9531 20.761 89.3755 20.5018C88.3795 20.1036 88.3002 18.2319 87.7827 16.5188C87.317 14.9802 86.1963 15.0768 85.7912 15.7821L84.5764 17.7336C84.3571 18.1318 83.8796 19.048 83.401 19.048C82.8436 19.048 83.093 18.2511 83.1231 17.4547C83.1423 16.917 82.8037 16.2404 82.2463 16.2404C81.6091 16.2404 80.9325 17.2157 80.4145 18.3314C80.0528 19.1116 79.1199 22.0951 77.9445 22.0951C77.188 22.0951 77.1082 19.9045 77.0688 19.2274C77.0293 18.5502 76.7898 17.7139 76.1132 17.7139C75.6548 17.7139 75.3567 17.9524 75.1172 18.2314C74.8787 18.5103 74.8392 18.7488 74.0024 18.6296C72.8472 18.5897 70.9356 19.6655 69.5813 21.9354C68.7662 23.302 67.785 26.1678 69.0239 27.1929C70.1791 28.1484 72.2494 25.9179 72.8472 25.2014C73.444 24.4843 73.962 23.9664 74.2015 23.5686C74.44 23.17 74.6791 23.2099 74.7983 23.6086C74.9176 24.0068 75.5952 25.5601 76.4715 25.5202C77.3482 25.4803 78.0643 25.2812 79.3791 22.9709C79.6176 22.4933 80.0558 22.4337 80.1356 22.8319C80.2154 23.2301 80.2953 24.2857 81.1316 24.2857C82.5647 24.2857 84.1895 20.797 84.5966 19.9839C84.9549 19.2668 85.532 19.4659 85.7316 20.0036C86.0164 20.7734 86.2688 23.2498 87.8221 23.2498C89.3755 23.2498 90.4306 21.5969 90.749 21.0789C91.1083 20.5619 90.9215 19.9011 90.371 20.3826ZM73.484 22.7722C73.1257 23.3695 72.3288 24.6839 71.4925 24.405C71.0543 24.1659 71.5984 23.0113 71.8912 22.4534C72.3293 21.6171 73.6131 20.2658 74.2015 20.6014C74.7584 20.9202 73.8422 22.1745 73.484 22.7722ZM65.7895 20.6847C65.7895 20.6847 62.4043 18.2151 61.4483 17.1004C60.8061 16.3513 61.2492 15.786 61.6474 15.4676C64.0366 13.8743 67.7805 11.4048 69.2546 7.5815C70.6744 3.89617 68.4577 0.691346 66.8644 0.173389C64.6812 -0.535782 60.0536 0.890447 57.7432 5.1918C56.2475 7.97772 55.5536 8.89585 55.354 16.4631C55.3156 17.8963 55.2742 19.53 55.2742 21.3224C55.2742 23.1148 55.0751 27.9735 54.8755 28.8892C54.119 31.0398 56.3894 29.7654 57.4244 28.9296C58.4603 28.0928 58.3799 26.8385 58.3799 26.3008C58.3799 25.6232 58.4204 13.6752 58.7786 11.0066C59.0019 9.34678 59.2572 6.26714 61.0087 3.5985C62.7616 0.929872 64.5535 2.0057 65.0321 2.44333C65.5096 2.88145 66.1872 3.9967 65.828 6.26714C65.2716 9.79032 61.2078 13.6353 60.1718 14.8299C59.1369 16.0245 59.3759 17.0604 59.9737 17.8968C60.3981 18.4916 61.4473 19.6492 62.5226 20.7246C63.598 21.7999 63.4782 22.756 63.3195 23.473C62.7611 25.6232 56.9463 31.4385 56.9463 31.4385C55.7113 32.7529 56.9858 34.9036 57.4239 35.6201C57.863 36.3372 58.4199 36.0986 58.7781 35.5009C60.2123 32.8327 66.3854 26.3802 66.3854 26.3802C68.1797 24.1098 67.4223 21.9192 65.7895 20.6847Z" fill="black"/>
</svg>
