<svg width="88" height="32" viewBox="0 0 88 32" fill="none" xmlns="http://www.w3.org/2000/svg">
<path fill-rule="evenodd" clip-rule="evenodd" d="M39.7543 1.20682H35.1795V15.1217C35.1795 17.7903 34.4172 20.3324 30.9227 20.3324C27.3642 20.3324 26.4114 17.7903 26.4114 15.1217V1.20682H21.9001V15.3761C21.9001 19.887 24.6322 23.5719 30.9227 23.5719C37.1492 23.5719 39.7543 19.8865 39.7543 15.3761V1.20682ZM0.296875 23.0005H4.80819V12.898H13.7673V23.0005H18.2146V1.20682H13.7673V9.59403H4.80819V1.20682H0.296875V23.0005ZM62.5009 6.79846C60.8491 2.54161 57.6086 0.254459 53.1608 0.254459C46.5528 0.254459 42.1685 5.08322 42.1685 11.9452C42.1685 19.3795 46.0439 23.5724 52.8428 23.5724C54.4316 23.5724 57.4816 22.81 58.9424 21.1583V23.065H62.6918V11.1193H53.2878V14.3598H58.562C58.562 17.5998 56.2108 20.5868 53.1608 20.5868C48.586 20.5868 46.9342 16.075 46.9342 11.9457C46.9342 8.07026 48.777 3.30449 53.1608 3.30449C56.7822 3.30449 58.18 6.60848 58.625 8.38771L62.5009 6.79846ZM1.94862 31.0067V28.8461H3.98231V31.0067H5.06215V26.1145H3.98231V28.0837H1.94862V26.1145H0.932278V31.0067H1.94862ZM14.3387 26.1145V28.7826C14.3387 29.609 14.3387 30.3074 13.2584 30.3074C12.2416 30.3074 12.2416 29.609 12.2416 28.7826V26.1145H11.1617V29.164C11.1617 30.4348 12.1146 31.0707 13.2584 31.0707C14.4657 31.0707 15.4186 30.4353 15.4186 29.164V26.1145H14.3387ZM24.8226 29.228V30.1804C24.5687 30.2444 24.3147 30.3074 23.8698 30.3074C22.8529 30.3074 22.472 29.6729 22.472 28.5926C22.472 27.4483 22.8534 26.8129 23.8063 26.8129C24.3782 26.8129 24.7596 27.1948 24.7596 27.6393H25.8395C25.8395 26.6859 25.0136 26.0505 23.7428 26.0505C22.7264 26.0505 21.3282 26.6219 21.3282 28.5926C21.3282 30.4983 22.6625 31.0707 23.8063 31.0707C24.8226 31.0707 25.4585 30.8798 25.8395 30.6888V28.4016H23.8698V29.228H24.8226ZM73.7476 27.5123C73.7476 26.4949 72.7943 25.9875 71.9049 25.9875C71.0146 25.9875 69.9982 26.4949 69.9982 27.5123C69.9982 28.2107 70.5066 28.5926 71.2055 28.7826C71.3965 28.8466 71.7779 28.9106 71.9679 28.9736C72.6033 29.1645 72.8573 29.3555 72.8573 29.7359C72.8573 30.3074 72.3499 30.4353 72.0319 30.4353C71.2695 30.4353 70.9516 29.9909 70.9516 29.482H69.9352C69.9352 30.4983 70.6976 31.1337 72.0319 31.1337C73.0482 31.1337 74.0016 30.5623 74.0016 29.609C74.0016 28.8466 73.4302 28.4016 72.6678 28.2112C72.4128 28.1482 72.1594 28.0842 71.9054 27.9572C71.333 27.8302 71.079 27.6393 71.079 27.2578C71.079 26.9409 71.333 26.6224 71.9054 26.6224C72.4768 26.6224 72.7308 27.0044 72.7308 27.5128H73.7476V27.5123ZM84.168 27.5123C84.168 26.4949 83.1507 25.9875 82.2613 25.9875C81.372 25.9875 80.3556 26.4949 80.3556 27.5123C80.3556 28.2107 80.8631 28.5926 81.5629 28.7826C81.7529 28.8466 82.1344 28.9106 82.3253 28.9736C83.0237 29.1645 83.2147 29.3555 83.2147 29.7359C83.2147 30.3074 82.7063 30.4353 82.3883 30.4353C81.6259 30.4353 81.308 29.9909 81.308 29.482H80.2916C80.2916 30.4983 81.054 31.1337 82.3883 31.1337C83.4057 31.1337 84.358 30.5623 84.358 29.609C84.358 28.8466 83.7866 28.4016 83.0242 28.2112C82.7703 28.1482 82.5158 28.0842 82.2618 27.9572C81.6904 27.8302 81.4355 27.6393 81.4355 27.2578C81.4355 26.9409 81.6904 26.6224 82.2618 26.6224C82.8333 26.6224 83.0882 27.0044 83.0882 27.5128H84.168V27.5123ZM34.2267 31.1337C35.8784 31.1337 36.6408 29.9904 36.6408 28.5926C36.6408 27.1308 35.8784 25.9875 34.2267 25.9875C32.5744 25.9875 31.8121 27.1308 31.8121 28.5926C31.8121 29.9904 32.5744 31.1337 34.2267 31.1337ZM34.2267 26.7499C35.3065 26.7499 35.4975 27.7033 35.4975 28.5926C35.4975 29.418 35.307 30.3713 34.2267 30.3713C33.1464 30.3713 32.9559 29.418 32.9559 28.5926C32.9554 27.7033 33.1464 26.7499 34.2267 26.7499ZM50.8736 31.0067C51.89 31.0067 52.7794 30.5623 52.7794 29.673C52.7794 28.9106 52.2079 28.4646 51.636 28.4646C52.018 28.4016 52.5254 27.9572 52.5254 27.3853C52.5254 26.4949 51.89 26.1145 50.8736 26.1145H48.7135V31.0067H50.8736ZM49.7933 30.2444V28.8466H50.7467C51.1911 28.8466 51.572 28.9736 51.572 29.546C51.572 30.1174 51.1911 30.2444 50.7467 30.2444H49.7933ZM49.7933 28.1477V26.8769H50.7467C51.1911 26.8769 51.4451 27.1308 51.4451 27.5123C51.4451 27.8932 51.0641 28.1477 50.6827 28.1477H49.7933ZM61.294 31.1337C63.0098 31.1337 63.7722 30.0534 63.7722 28.5286C63.7722 27.0679 63.0098 25.9875 61.294 25.9875C59.6423 25.9875 58.8799 27.0679 58.8799 28.5286C58.8794 30.0534 59.6418 31.1337 61.294 31.1337ZM61.294 26.7499C62.3744 26.7499 62.6278 27.7033 62.6278 28.5286C62.6278 29.418 62.3739 30.3713 61.294 30.3713C60.2142 30.3713 60.0232 29.418 60.0232 28.5286C60.0227 27.7033 60.2137 26.7499 61.294 26.7499ZM76.2258 0C69.4898 0 65.042 5.08322 65.042 11.9452C65.042 18.8706 69.4898 23.8903 76.2258 23.8903C83.0237 23.8903 87.4715 18.8711 87.4715 11.9452C87.4715 5.08322 83.0237 0 76.2258 0ZM76.2258 2.98604C80.7366 2.98604 82.6433 8.00577 82.6433 11.9452C82.6433 15.8851 80.7366 20.8403 76.2258 20.8403C71.7779 20.8403 69.8712 15.8851 69.8712 11.9452C69.8717 8.00577 71.7779 2.98604 76.2258 2.98604Z" fill="black"/>
</svg>
