<svg xmlns="http://www.w3.org/2000/svg" version="1.1" xmlns:xlink="http://www.w3.org/1999/xlink" xmlns:svgjs="http://svgjs.dev/svgjs" width="1500" height="1500" viewBox="0 0 1500 1500"><rect width="1500" height="1500" fill="#000000"></rect><g transform="matrix(0.6666666666666666,0,0,0.6666666666666666,249.39393939393938,438.58569500674764)"><svg viewBox="0 0 396 247" data-background-color="#ffffff" preserveAspectRatio="xMidYMid meet" height="935" width="1500" xmlns="http://www.w3.org/2000/svg" xmlns:xlink="http://www.w3.org/1999/xlink"><g id="tight-bounds" transform="matrix(1,0,0,1,0.2400000000000091,-0.09999999999999432)"><svg viewBox="0 0 395.52 247.2" height="247.2" width="395.52"><g><svg></svg></g><g><svg viewBox="0 0 395.52 247.2" height="247.2" width="395.52"><g transform="matrix(1,0,0,1,75.54432000000001,67.64419991025377)"><svg viewBox="0 0 244.43135999999996 111.91160017949244" height="111.91160017949244" width="244.43135999999996"><g><svg viewBox="0 0 244.43135999999996 111.91160017949244" height="111.91160017949244" width="244.43135999999996"><g><svg viewBox="0 0 244.43135999999996 111.91160017949244" height="111.91160017949244" width="244.43135999999996"><g transform="matrix(1,0,0,1,0,41.99153421474431)"><svg viewBox="0 0 244.43135999999996 69.92006596474812" height="69.92006596474812" width="244.43135999999996"><g id="textblocktransform"><svg viewBox="0 0 244.43135999999996 69.92006596474812" height="69.92006596474812" width="244.43135999999996" id="textblock"><g><svg viewBox="0 0 244.43135999999996 51.32035384005286" height="51.32035384005286" width="244.43135999999996"><g transform="matrix(1,0,0,1,0,0)"><svg width="244.43135999999996" viewBox="4.25 -35.9 226.93 47.65" height="51.32035384005286" data-palette-color="#085f63"><path d="M25.3 0L4.25 0 4.25-34.6 25.3-34.6 25.3-31.2 8.1-31.2 8.1-19.25 22.3-19.25 22.3-15.9 8.1-15.9 8.1-3.4 25.3-3.4 25.3 0ZM35.45 0L28.35-25 32.1-25 38.35-3.25 40-3.25 46.3-25 50.05-25 39.65 11.1 35.9 11.1 39.15 0 35.45 0ZM71.4-3.1L71.4-3.1 72.84-3.25 72.95-0.3Q67.25 0.5 63.2 0.5L63.2 0.5Q57.8 0.5 55.55-2.63 53.3-5.75 53.3-12.35L53.3-12.35Q53.3-25.5 63.75-25.5L63.75-25.5Q68.8-25.5 71.3-22.68 73.8-19.85 73.8-13.8L73.8-13.8 73.59-10.95 57.09-10.95Q57.09-6.8 58.59-4.8 60.09-2.8 63.82-2.8 67.55-2.8 71.4-3.1ZM57.05-13.95L70.05-13.95Q70.05-18.55 68.57-20.45 67.09-22.35 63.77-22.35 60.45-22.35 58.77-20.35 57.09-18.35 57.05-13.95L57.05-13.95ZM89.29 11.75L89.29 11.75Q83.29 11.75 80.92 10.13 78.54 8.5 78.54 4.2L78.54 4.2Q78.54 2.15 79.44 0.88 80.34-0.4 82.49-2L82.49-2Q81.09-2.95 81.09-5.45L81.09-5.45Q81.09-6.3 82.34-8.6L82.34-8.6 82.79-9.4Q78.84-11.2 78.84-16.95L78.84-16.95Q78.84-25.5 88.19-25.5L88.19-25.5Q90.59-25.5 92.64-25L92.64-25 93.39-24.85 100.79-25.05 100.79-21.85 96.04-21.95Q97.69-20.3 97.69-16.95L97.69-16.95Q97.69-12.25 95.37-10.38 93.04-8.5 88.04-8.5L88.04-8.5Q86.69-8.5 85.59-8.7L85.59-8.7Q84.69-6.5 84.69-5.85L84.69-5.85Q84.69-4.3 85.64-3.93 86.59-3.55 91.39-3.55 96.19-3.55 98.29-2.05 100.39-0.55 100.39 3.8L100.39 3.8Q100.39 11.75 89.29 11.75ZM82.24 3.9L82.24 3.9Q82.24 6.55 83.72 7.58 85.19 8.6 89.17 8.6 93.14 8.6 94.87 7.5 96.59 6.4 96.59 3.83 96.59 1.25 95.34 0.5 94.09-0.25 90.44-0.25L90.44-0.25 85.04-0.5Q83.39 0.7 82.82 1.6 82.24 2.5 82.24 3.9ZM82.59-16.95Q82.59-14 83.92-12.75 85.24-11.5 88.29-11.5 91.34-11.5 92.64-12.75 93.94-14 93.94-16.98 93.94-19.95 92.64-21.2 91.34-22.45 88.29-22.45 85.24-22.45 83.92-21.18 82.59-19.9 82.59-16.95ZM109.39 0L105.64 0 105.64-35.9 109.39-35.9 109.39 0ZM134.54-17.45L134.54-17.45 134.54-4.65Q134.69-2.8 137.44-2.45L137.44-2.45 137.29 0.5Q133.34 0.5 131.34-1.5L131.34-1.5Q126.84 0.5 122.34 0.5L122.34 0.5Q118.89 0.5 117.09-1.45 115.29-3.4 115.29-7.05 115.29-10.7 117.14-12.43 118.99-14.15 122.94-14.55L122.94-14.55 130.79-15.3 130.79-17.45Q130.79-20 129.69-21.1 128.59-22.2 126.69-22.2L126.69-22.2Q122.69-22.2 118.39-21.7L118.39-21.7 116.84-21.55 116.69-24.4Q122.19-25.5 126.44-25.5 130.69-25.5 132.61-23.55 134.54-21.6 134.54-17.45ZM119.14-7.25L119.14-7.25Q119.14-2.65 122.94-2.65L122.94-2.65Q126.34-2.65 129.64-3.8L129.64-3.8 130.79-4.2 130.79-12.45 123.39-11.75Q121.14-11.55 120.14-10.45 119.14-9.35 119.14-7.25ZM149.78-22.15L149.78-22.15Q144.34-22.15 144.34-18.35L144.34-18.35Q144.34-16.6 145.59-15.88 146.84-15.15 151.28-14.38 155.74-13.6 157.59-12.2 159.44-10.8 159.44-6.95 159.44-3.1 156.96-1.3 154.49 0.5 149.74 0.5L149.74 0.5Q146.64 0.5 142.44-0.2L142.44-0.2 140.94-0.45 141.14-3.7Q146.84-2.85 149.74-2.85 152.64-2.85 154.16-3.78 155.69-4.7 155.69-6.88 155.69-9.05 154.39-9.83 153.09-10.6 148.69-11.3 144.28-12 142.44-13.35 140.59-14.7 140.59-18.35 140.59-22 143.16-23.75 145.74-25.5 149.59-25.5L149.59-25.5Q152.64-25.5 157.24-24.8L157.24-24.8 158.64-24.55 158.54-21.35Q152.99-22.15 149.78-22.15ZM173.03-22.15L173.03-22.15Q167.58-22.15 167.58-18.35L167.58-18.35Q167.58-16.6 168.83-15.88 170.08-15.15 174.53-14.38 178.98-13.6 180.83-12.2 182.68-10.8 182.68-6.95 182.68-3.1 180.21-1.3 177.73 0.5 172.98 0.5L172.98 0.5Q169.88 0.5 165.68-0.2L165.68-0.2 164.18-0.45 164.38-3.7Q170.08-2.85 172.98-2.85 175.88-2.85 177.41-3.78 178.93-4.7 178.93-6.88 178.93-9.05 177.63-9.83 176.33-10.6 171.93-11.3 167.53-12 165.68-13.35 163.83-14.7 163.83-18.35 163.83-22 166.41-23.75 168.98-25.5 172.83-25.5L172.83-25.5Q175.88-25.5 180.48-24.8L180.48-24.8 181.88-24.55 181.78-21.35Q176.23-22.15 173.03-22.15ZM205.43-3.1L205.43-3.1 206.88-3.25 206.98-0.3Q201.28 0.5 197.23 0.5L197.23 0.5Q191.83 0.5 189.58-2.63 187.33-5.75 187.33-12.35L187.33-12.35Q187.33-25.5 197.78-25.5L197.78-25.5Q202.83-25.5 205.33-22.68 207.83-19.85 207.83-13.8L207.83-13.8 207.63-10.95 191.13-10.95Q191.13-6.8 192.63-4.8 194.13-2.8 197.86-2.8 201.58-2.8 205.43-3.1ZM191.08-13.95L204.08-13.95Q204.08-18.55 202.61-20.45 201.13-22.35 197.81-22.35 194.48-22.35 192.81-20.35 191.13-18.35 191.08-13.95L191.08-13.95ZM221.53-22.15L221.53-22.15Q216.08-22.15 216.08-18.35L216.08-18.35Q216.08-16.6 217.33-15.88 218.58-15.15 223.03-14.38 227.48-13.6 229.33-12.2 231.18-10.8 231.18-6.95 231.18-3.1 228.7-1.3 226.23 0.5 221.48 0.5L221.48 0.5Q218.38 0.5 214.18-0.2L214.18-0.2 212.68-0.45 212.88-3.7Q218.58-2.85 221.48-2.85 224.38-2.85 225.9-3.78 227.43-4.7 227.43-6.88 227.43-9.05 226.13-9.83 224.83-10.6 220.43-11.3 216.03-12 214.18-13.35 212.33-14.7 212.33-18.35 212.33-22 214.9-23.75 217.48-25.5 221.33-25.5L221.33-25.5Q224.38-25.5 228.98-24.8L228.98-24.8 230.38-24.55 230.28-21.35Q224.73-22.15 221.53-22.15Z" opacity="1" transform="matrix(1,0,0,1,0,0)" fill="#ffffff" class="wordmark-text-0" data-fill-palette-color="primary" id="text-0"></path></svg></g></svg></g><g transform="matrix(1,0,0,1,46.68638976,63.43585769319718)"><svg viewBox="0 0 151.05858047999996 6.484208271550935" height="6.484208271550935" width="151.05858047999996"><g transform="matrix(1,0,0,1,0,0)"><svg width="151.05858047999996" viewBox="3 -36.83 1029.6 44.21" height="6.484208271550935" data-palette-color="#72a24e"><path d="M11.45-36.43L11.45-6.75 24.95-6.75 24.95 0 3 0 3-36.43 11.45-36.43ZM38.2-36.43L38.2 0 29.7 0 29.7-36.43 38.2-36.43ZM63.57-16.65L63.57-16.65Q64.07-15.7 64.53-14.68 65-13.65 65.42-12.58L65.42-12.58Q65.85-13.68 66.32-14.71 66.8-15.75 67.3-16.73L67.3-16.73 76.65-35.13Q76.9-35.6 77.16-35.86 77.42-36.13 77.75-36.25 78.07-36.38 78.48-36.4 78.9-36.43 79.45-36.43L79.45-36.43 85.9-36.43 85.9 0 78.45 0 78.45-20.95Q78.45-22.48 78.59-24.25L78.59-24.25 68.95-5.53Q68.5-4.65 67.73-4.2 66.97-3.75 66-3.75L66-3.75 64.85-3.75Q63.87-3.75 63.11-4.2 62.35-4.65 61.9-5.53L61.9-5.53 52.2-24.28Q52.3-23.4 52.35-22.54 52.4-21.68 52.4-20.95L52.4-20.95 52.4 0 44.95 0 44.95-36.43 51.4-36.43Q51.95-36.43 52.36-36.4 52.77-36.38 53.1-36.25 53.42-36.13 53.68-35.86 53.95-35.6 54.2-35.13L54.2-35.13 63.57-16.65ZM101.14-36.43L101.14 0 92.64 0 92.64-36.43 101.14-36.43ZM105.39-36.43L134.34-36.43 134.34-29.73 124.09-29.73 124.09 0 115.64 0 115.64-29.73 105.39-29.73 105.39-36.43ZM146.29-36.43L146.29-6.75 159.79-6.75 159.79 0 137.84 0 137.84-36.43 146.29-36.43ZM163.79-36.43L187.24-36.43 187.24-29.93 172.29-29.93 172.29-21.43 183.74-21.43 183.74-15.18 172.29-15.18 172.29-6.5 187.24-6.5 187.24 0 163.79 0 163.79-36.43ZM214.43-32.95L212.33-29.03Q211.96-28.43 211.55-28.13 211.13-27.83 210.48-27.83L210.48-27.83Q209.91-27.83 209.25-28.19 208.58-28.55 207.75-29 206.91-29.45 205.83-29.81 204.76-30.18 203.38-30.18L203.38-30.18Q201.01-30.18 199.85-29.16 198.68-28.15 198.68-26.43L198.68-26.43Q198.68-25.33 199.38-24.6 200.08-23.88 201.22-23.35 202.36-22.83 203.82-22.39 205.28-21.95 206.81-21.41 208.33-20.88 209.8-20.15 211.26-19.43 212.4-18.3 213.53-17.18 214.23-15.56 214.93-13.95 214.93-11.68L214.93-11.68Q214.93-9.15 214.06-6.95 213.18-4.75 211.52-3.11 209.86-1.48 207.42-0.54 204.98 0.4 201.88 0.4L201.88 0.4Q200.18 0.4 198.42 0.05 196.66-0.3 195.01-0.94 193.36-1.58 191.91-2.45 190.46-3.33 189.38-4.4L189.38-4.4 191.88-8.35Q192.16-8.8 192.66-9.08 193.16-9.35 193.73-9.35L193.73-9.35Q194.48-9.35 195.25-8.88 196.01-8.4 196.97-7.83 197.93-7.25 199.18-6.78 200.43-6.3 202.13-6.3L202.13-6.3Q204.43-6.3 205.71-7.31 206.98-8.33 206.98-10.53L206.98-10.53Q206.98-11.8 206.28-12.6 205.58-13.4 204.45-13.93 203.31-14.45 201.86-14.85 200.41-15.25 198.88-15.74 197.36-16.23 195.91-16.94 194.46-17.65 193.32-18.81 192.18-19.98 191.48-21.71 190.78-23.45 190.78-26L190.78-26Q190.78-28.05 191.61-30 192.43-31.95 194.03-33.48 195.63-35 197.96-35.91 200.28-36.83 203.28-36.83L203.28-36.83Q204.96-36.83 206.55-36.56 208.13-36.3 209.56-35.79 210.98-35.27 212.22-34.56 213.46-33.85 214.43-32.95L214.43-32.95ZM241.53-32.95L239.43-29.03Q239.06-28.43 238.64-28.13 238.23-27.83 237.58-27.83L237.58-27.83Q237.01-27.83 236.34-28.19 235.68-28.55 234.84-29 234.01-29.45 232.93-29.81 231.86-30.18 230.48-30.18L230.48-30.18Q228.11-30.18 226.94-29.16 225.78-28.15 225.78-26.43L225.78-26.43Q225.78-25.33 226.48-24.6 227.18-23.88 228.32-23.35 229.46-22.83 230.92-22.39 232.38-21.95 233.91-21.41 235.43-20.88 236.89-20.15 238.36-19.43 239.49-18.3 240.63-17.18 241.33-15.56 242.03-13.95 242.03-11.68L242.03-11.68Q242.03-9.15 241.16-6.95 240.28-4.75 238.62-3.11 236.96-1.48 234.52-0.54 232.08 0.4 228.98 0.4L228.98 0.4Q227.28 0.4 225.52 0.05 223.76-0.3 222.11-0.94 220.46-1.58 219.01-2.45 217.56-3.33 216.48-4.4L216.48-4.4 218.98-8.35Q219.26-8.8 219.76-9.08 220.26-9.35 220.83-9.35L220.83-9.35Q221.58-9.35 222.34-8.88 223.11-8.4 224.07-7.83 225.03-7.25 226.28-6.78 227.53-6.3 229.23-6.3L229.23-6.3Q231.53-6.3 232.81-7.31 234.08-8.33 234.08-10.53L234.08-10.53Q234.08-11.8 233.38-12.6 232.68-13.4 231.54-13.93 230.41-14.45 228.96-14.85 227.51-15.25 225.98-15.74 224.46-16.23 223.01-16.94 221.56-17.65 220.42-18.81 219.28-19.98 218.58-21.71 217.88-23.45 217.88-26L217.88-26Q217.88-28.05 218.71-30 219.53-31.95 221.13-33.48 222.73-35 225.06-35.91 227.38-36.83 230.38-36.83L230.38-36.83Q232.06-36.83 233.64-36.56 235.23-36.3 236.66-35.79 238.08-35.27 239.32-34.56 240.56-33.85 241.53-32.95L241.53-32.95ZM280.35-9.43L280.35-9.43Q280.65-9.43 280.95-9.31 281.25-9.2 281.53-8.93L281.53-8.93 284.88-5.4Q282.68-2.53 279.36-1.06 276.05 0.4 271.53 0.4L271.53 0.4Q267.38 0.4 264.09-1.01 260.8-2.43 258.51-4.91 256.23-7.4 255-10.81 253.78-14.23 253.78-18.23L253.78-18.23Q253.78-22.3 255.18-25.71 256.58-29.13 259.09-31.6 261.6-34.08 265.1-35.45 268.6-36.83 272.83-36.83L272.83-36.83Q274.88-36.83 276.69-36.46 278.5-36.1 280.08-35.46 281.65-34.83 282.98-33.94 284.3-33.05 285.33-31.98L285.33-31.98 282.48-28.15Q282.2-27.8 281.83-27.51 281.45-27.23 280.78-27.23L280.78-27.23Q280.33-27.23 279.93-27.43 279.53-27.63 279.08-27.91 278.63-28.2 278.09-28.54 277.55-28.88 276.81-29.16 276.08-29.45 275.09-29.65 274.1-29.85 272.78-29.85L272.78-29.85Q270.48-29.85 268.58-29.04 266.68-28.23 265.31-26.71 263.95-25.2 263.19-23.05 262.43-20.9 262.43-18.23L262.43-18.23Q262.43-15.43 263.19-13.25 263.95-11.08 265.26-9.59 266.58-8.1 268.33-7.33 270.08-6.55 272.08-6.55L272.08-6.55Q273.23-6.55 274.18-6.66 275.13-6.78 275.94-7.05 276.75-7.33 277.49-7.76 278.23-8.2 278.98-8.85L278.98-8.85Q279.28-9.1 279.63-9.26 279.98-9.43 280.35-9.43ZM297.17-36.43L297.17-6.75 310.67-6.75 310.67 0 288.72 0 288.72-36.43 297.17-36.43ZM334.47-36.43L348.57 0 342.02 0Q340.92 0 340.21-0.51 339.5-1.03 339.22-1.83L339.22-1.83 337.07-8.18 323.22-8.18 321.07-1.83Q320.82-1.13 320.1-0.56 319.37 0 318.32 0L318.32 0 311.72 0 325.82-36.43 334.47-36.43ZM328.52-23.85L325.17-13.93 335.12-13.93 331.77-23.9Q331.44-24.85 331.01-26.14 330.57-27.43 330.15-28.93L330.15-28.93Q329.75-27.4 329.32-26.1 328.9-24.8 328.52-23.85L328.52-23.85ZM362.12-13.48L359.97-13.48 359.97 0 351.52 0 351.52-36.43 363.37-36.43Q367.32-36.43 370.11-35.61 372.89-34.8 374.66-33.35 376.42-31.9 377.22-29.93 378.02-27.95 378.02-25.63L378.02-25.63Q378.02-23.85 377.54-22.28 377.07-20.7 376.13-19.36 375.19-18.03 373.83-16.98 372.47-15.93 370.69-15.25L370.69-15.25Q371.54-14.83 372.28-14.2 373.02-13.58 373.57-12.68L373.57-12.68 381.32 0 373.67 0Q371.54 0 370.62-1.6L370.62-1.6 364.57-12.18Q364.17-12.88 363.63-13.18 363.09-13.48 362.12-13.48L362.12-13.48ZM359.97-30.1L359.97-19.3 363.37-19.3Q365.09-19.3 366.31-19.74 367.52-20.18 368.29-20.95 369.07-21.73 369.42-22.76 369.77-23.8 369.77-25L369.77-25Q369.77-27.4 368.21-28.75 366.64-30.1 363.37-30.1L363.37-30.1 359.97-30.1ZM394.02-36.43L394.02 0 385.52 0 385.52-36.43 394.02-36.43ZM398.26-36.43L427.21-36.43 427.21-29.73 416.96-29.73 416.96 0 408.51 0 408.51-29.73 398.26-29.73 398.26-36.43ZM462.06-36.43L448.86-13.85 448.86 0 440.41 0 440.41-13.85 427.21-36.43 434.66-36.43Q435.76-36.43 436.41-35.91 437.06-35.4 437.46-34.6L437.46-34.6 442.61-24Q443.24-22.73 443.76-21.65 444.29-20.58 444.69-19.53L444.69-19.53Q445.06-20.6 445.59-21.68 446.11-22.75 446.71-24L446.71-24 451.81-34.6Q451.96-34.93 452.22-35.25 452.49-35.58 452.82-35.84 453.16-36.1 453.6-36.26 454.04-36.43 454.56-36.43L454.56-36.43 462.06-36.43ZM458.76-4.4L458.76-4.4Q458.76-5.2 459.06-5.89 459.36-6.58 459.92-7.09 460.48-7.6 461.25-7.9 462.01-8.2 462.96-8.2L462.96-8.2Q464.08-8.2 464.91-7.81 465.73-7.43 466.28-6.76 466.83-6.1 467.1-5.24 467.36-4.38 467.36-3.43L467.36-3.43Q467.36-2.18 466.96-0.76 466.56 0.65 465.77 2.08 464.98 3.5 463.81 4.88 462.63 6.25 461.11 7.38L461.11 7.38 459.76 6.18Q459.48 5.9 459.35 5.66 459.21 5.43 459.21 5.08L459.21 5.08Q459.21 4.83 459.38 4.54 459.56 4.25 459.81 4.03L459.81 4.03Q460.11 3.73 460.51 3.3 460.91 2.88 461.31 2.35 461.71 1.83 462.05 1.2 462.38 0.58 462.56-0.13L462.56-0.13Q461.68-0.2 460.98-0.55 460.28-0.9 459.8-1.48 459.31-2.05 459.03-2.79 458.76-3.53 458.76-4.4ZM481.5-36.43L504.95-36.43 504.95-29.93 490-29.93 490-21.43 501.45-21.43 501.45-15.18 490-15.18 490-6.5 504.95-6.5 504.95 0 481.5 0 481.5-36.43ZM514.2-36.43L514.2-36.43Q514.75-36.43 515.13-36.38 515.5-36.33 515.8-36.19 516.1-36.05 516.38-35.8 516.65-35.55 517-35.13L517-35.13 534.3-13.25Q534.2-14.3 534.15-15.29 534.1-16.28 534.1-17.15L534.1-17.15 534.1-36.43 541.55-36.43 541.55 0 537.15 0Q536.18 0 535.5-0.3 534.83-0.6 534.2-1.4L534.2-1.4 517.03-23.1Q517.1-22.15 517.15-21.24 517.2-20.33 517.2-19.53L517.2-19.53 517.2 0 509.75 0 509.75-36.43 514.2-36.43ZM580.6-18.23L580.6-18.23Q580.6-14.28 579.24-10.94 577.87-7.6 575.4-5.16 572.92-2.73 569.44-1.36 565.95 0 561.7 0L561.7 0 547.55 0 547.55-36.43 561.7-36.43Q565.95-36.43 569.44-35.05 572.92-33.68 575.4-31.25 577.87-28.83 579.24-25.49 580.6-22.15 580.6-18.23ZM571.95-18.23L571.95-18.23Q571.95-20.93 571.25-23.1 570.55-25.28 569.24-26.79 567.92-28.3 566.02-29.11 564.12-29.93 561.7-29.93L561.7-29.93 556.05-29.93 556.05-6.5 561.7-6.5Q564.12-6.5 566.02-7.31 567.92-8.13 569.24-9.64 570.55-11.15 571.25-13.33 571.95-15.5 571.95-18.23ZM593.1-36.43L593.1-6.75 606.6-6.75 606.6 0 584.64 0 584.64-36.43 593.1-36.43ZM610.59-36.43L634.04-36.43 634.04-29.93 619.09-29.93 619.09-21.43 630.54-21.43 630.54-15.18 619.09-15.18 619.09-6.5 634.04-6.5 634.04 0 610.59 0 610.59-36.43ZM661.24-32.95L659.14-29.03Q658.76-28.43 658.35-28.13 657.94-27.83 657.29-27.83L657.29-27.83Q656.71-27.83 656.05-28.19 655.39-28.55 654.55-29 653.71-29.45 652.64-29.81 651.56-30.18 650.19-30.18L650.19-30.18Q647.81-30.18 646.65-29.16 645.49-28.15 645.49-26.43L645.49-26.43Q645.49-25.33 646.19-24.6 646.89-23.88 648.03-23.35 649.16-22.83 650.63-22.39 652.09-21.95 653.61-21.41 655.14-20.88 656.6-20.15 658.06-19.43 659.2-18.3 660.34-17.18 661.04-15.56 661.74-13.95 661.74-11.68L661.74-11.68Q661.74-9.15 660.86-6.95 659.99-4.75 658.33-3.11 656.66-1.48 654.23-0.54 651.79 0.4 648.69 0.4L648.69 0.4Q646.99 0.4 645.23 0.05 643.46-0.3 641.81-0.94 640.16-1.58 638.71-2.45 637.26-3.33 636.19-4.4L636.19-4.4 638.69-8.35Q638.96-8.8 639.46-9.08 639.96-9.35 640.54-9.35L640.54-9.35Q641.29-9.35 642.05-8.88 642.81-8.4 643.78-7.83 644.74-7.25 645.99-6.78 647.24-6.3 648.94-6.3L648.94-6.3Q651.24-6.3 652.51-7.31 653.79-8.33 653.79-10.53L653.79-10.53Q653.79-11.8 653.09-12.6 652.39-13.4 651.25-13.93 650.11-14.45 648.66-14.85 647.21-15.25 645.69-15.74 644.16-16.23 642.71-16.94 641.26-17.65 640.13-18.81 638.99-19.98 638.29-21.71 637.59-23.45 637.59-26L637.59-26Q637.59-28.05 638.41-30 639.24-31.95 640.84-33.48 642.44-35 644.76-35.91 647.09-36.83 650.09-36.83L650.09-36.83Q651.76-36.83 653.35-36.56 654.94-36.3 656.36-35.79 657.79-35.27 659.03-34.56 660.26-33.85 661.24-32.95L661.24-32.95ZM688.34-32.95L686.24-29.03Q685.86-28.43 685.45-28.13 685.04-27.83 684.39-27.83L684.39-27.83Q683.81-27.83 683.15-28.19 682.49-28.55 681.65-29 680.81-29.45 679.74-29.81 678.66-30.18 677.29-30.18L677.29-30.18Q674.91-30.18 673.75-29.16 672.59-28.15 672.59-26.43L672.59-26.43Q672.59-25.33 673.29-24.6 673.99-23.88 675.12-23.35 676.26-22.83 677.72-22.39 679.19-21.95 680.71-21.41 682.24-20.88 683.7-20.15 685.16-19.43 686.3-18.3 687.44-17.18 688.14-15.56 688.84-13.95 688.84-11.68L688.84-11.68Q688.84-9.15 687.96-6.95 687.09-4.75 685.42-3.11 683.76-1.48 681.32-0.54 678.89 0.4 675.79 0.4L675.79 0.4Q674.09 0.4 672.32 0.05 670.56-0.3 668.91-0.94 667.26-1.58 665.81-2.45 664.36-3.33 663.29-4.4L663.29-4.4 665.79-8.35Q666.06-8.8 666.56-9.08 667.06-9.35 667.64-9.35L667.64-9.35Q668.39-9.35 669.15-8.88 669.91-8.4 670.87-7.83 671.84-7.25 673.09-6.78 674.34-6.3 676.04-6.3L676.04-6.3Q678.34-6.3 679.61-7.31 680.89-8.33 680.89-10.53L680.89-10.53Q680.89-11.8 680.19-12.6 679.49-13.4 678.35-13.93 677.21-14.45 675.76-14.85 674.31-15.25 672.79-15.74 671.26-16.23 669.81-16.94 668.36-17.65 667.22-18.81 666.09-19.98 665.39-21.71 664.69-23.45 664.69-26L664.69-26Q664.69-28.05 665.51-30 666.34-31.95 667.94-33.48 669.54-35 671.86-35.91 674.19-36.83 677.19-36.83L677.19-36.83Q678.86-36.83 680.45-36.56 682.04-36.3 683.46-35.79 684.89-35.27 686.12-34.56 687.36-33.85 688.34-32.95L688.34-32.95ZM715.53-12.18L711.13-12.18 711.13 0 702.68 0 702.68-36.43 715.53-36.43Q719.38-36.43 722.14-35.51 724.91-34.6 726.69-33 728.48-31.4 729.33-29.23 730.18-27.05 730.18-24.53L730.18-24.53Q730.18-21.8 729.31-19.53 728.43-17.25 726.63-15.63 724.83-14 722.07-13.09 719.31-12.18 715.53-12.18L715.53-12.18ZM711.13-30.1L711.13-18.55 715.53-18.55Q718.83-18.55 720.28-20.13 721.73-21.7 721.73-24.53L721.73-24.53Q721.73-25.78 721.36-26.8 720.98-27.83 720.22-28.56 719.46-29.3 718.29-29.7 717.13-30.1 715.53-30.1L715.53-30.1 711.13-30.1ZM770.53-18.23L770.53-18.23Q770.53-14.28 769.17-10.88 767.8-7.48 765.33-4.96 762.85-2.45 759.37-1.03 755.88 0.4 751.63 0.4L751.63 0.4Q747.38 0.4 743.88-1.03 740.38-2.45 737.89-4.96 735.4-7.48 734.04-10.88 732.68-14.28 732.68-18.23L732.68-18.23Q732.68-22.18 734.04-25.58 735.4-28.98 737.89-31.48 740.38-33.98 743.88-35.4 747.38-36.83 751.63-36.83L751.63-36.83Q755.88-36.83 759.37-35.39 762.85-33.95 765.33-31.45 767.8-28.95 769.17-25.55 770.53-22.15 770.53-18.23ZM761.88-18.23L761.88-18.23Q761.88-20.93 761.18-23.09 760.48-25.25 759.17-26.75 757.85-28.25 755.95-29.05 754.05-29.85 751.63-29.85L751.63-29.85Q749.18-29.85 747.27-29.05 745.35-28.25 744.04-26.75 742.73-25.25 742.03-23.09 741.33-20.93 741.33-18.23L741.33-18.23Q741.33-15.5 742.03-13.34 742.73-11.18 744.04-9.68 745.35-8.18 747.27-7.39 749.18-6.6 751.63-6.6L751.63-6.6Q754.05-6.6 755.95-7.39 757.85-8.18 759.17-9.68 760.48-11.18 761.18-13.34 761.88-15.5 761.88-18.23ZM796.98-32.95L794.88-29.03Q794.5-28.43 794.09-28.13 793.68-27.83 793.03-27.83L793.03-27.83Q792.45-27.83 791.79-28.19 791.13-28.55 790.29-29 789.45-29.45 788.38-29.81 787.3-30.18 785.93-30.18L785.93-30.18Q783.55-30.18 782.39-29.16 781.23-28.15 781.23-26.43L781.23-26.43Q781.23-25.33 781.93-24.6 782.63-23.88 783.76-23.35 784.9-22.83 786.36-22.39 787.83-21.95 789.35-21.41 790.88-20.88 792.34-20.15 793.8-19.43 794.94-18.3 796.08-17.18 796.78-15.56 797.48-13.95 797.48-11.68L797.48-11.68Q797.48-9.15 796.6-6.95 795.73-4.75 794.06-3.11 792.4-1.48 789.96-0.54 787.53 0.4 784.43 0.4L784.43 0.4Q782.73 0.4 780.96 0.05 779.2-0.3 777.55-0.94 775.9-1.58 774.45-2.45 773-3.33 771.93-4.4L771.93-4.4 774.43-8.35Q774.7-8.8 775.2-9.08 775.7-9.35 776.28-9.35L776.28-9.35Q777.03-9.35 777.79-8.88 778.55-8.4 779.51-7.83 780.48-7.25 781.73-6.78 782.98-6.3 784.68-6.3L784.68-6.3Q786.98-6.3 788.25-7.31 789.53-8.33 789.53-10.53L789.53-10.53Q789.53-11.8 788.83-12.6 788.13-13.4 786.99-13.93 785.85-14.45 784.4-14.85 782.95-15.25 781.43-15.74 779.9-16.23 778.45-16.94 777-17.65 775.86-18.81 774.73-19.98 774.03-21.71 773.33-23.45 773.33-26L773.33-26Q773.33-28.05 774.15-30 774.98-31.95 776.58-33.48 778.18-35 780.5-35.91 782.83-36.83 785.83-36.83L785.83-36.83Q787.5-36.83 789.09-36.56 790.68-36.3 792.1-35.79 793.53-35.27 794.76-34.56 796-33.85 796.98-32.95L796.98-32.95ZM824.07-32.95L821.97-29.03Q821.6-28.43 821.19-28.13 820.77-27.83 820.12-27.83L820.12-27.83Q819.55-27.83 818.89-28.19 818.22-28.55 817.39-29 816.55-29.45 815.47-29.81 814.4-30.18 813.02-30.18L813.02-30.18Q810.65-30.18 809.49-29.16 808.32-28.15 808.32-26.43L808.32-26.43Q808.32-25.33 809.02-24.6 809.72-23.88 810.86-23.35 812-22.83 813.46-22.39 814.92-21.95 816.45-21.41 817.97-20.88 819.44-20.15 820.9-19.43 822.04-18.3 823.17-17.18 823.87-15.56 824.57-13.95 824.57-11.68L824.57-11.68Q824.57-9.15 823.7-6.95 822.82-4.75 821.16-3.11 819.5-1.48 817.06-0.54 814.62 0.4 811.52 0.4L811.52 0.4Q809.82 0.4 808.06 0.05 806.3-0.3 804.65-0.94 803-1.58 801.55-2.45 800.1-3.33 799.02-4.4L799.02-4.4 801.52-8.35Q801.8-8.8 802.3-9.08 802.8-9.35 803.37-9.35L803.37-9.35Q804.12-9.35 804.89-8.88 805.65-8.4 806.61-7.83 807.57-7.25 808.82-6.78 810.07-6.3 811.77-6.3L811.77-6.3Q814.07-6.3 815.35-7.31 816.62-8.33 816.62-10.53L816.62-10.53Q816.62-11.8 815.92-12.6 815.22-13.4 814.09-13.93 812.95-14.45 811.5-14.85 810.05-15.25 808.52-15.74 807-16.23 805.55-16.94 804.1-17.65 802.96-18.81 801.82-19.98 801.12-21.71 800.42-23.45 800.42-26L800.42-26Q800.42-28.05 801.25-30 802.07-31.95 803.67-33.48 805.27-35 807.6-35.91 809.92-36.83 812.92-36.83L812.92-36.83Q814.6-36.83 816.19-36.56 817.77-36.3 819.2-35.79 820.62-35.27 821.86-34.56 823.1-33.85 824.07-32.95L824.07-32.95ZM838.02-36.43L838.02 0 829.52 0 829.52-36.43 838.02-36.43ZM859.32 0L844.77 0 844.77-36.43 858.17-36.43Q861.94-36.43 864.59-35.73 867.24-35.02 868.92-33.75 870.59-32.48 871.36-30.65 872.12-28.83 872.12-26.58L872.12-26.58Q872.12-25.35 871.77-24.21 871.42-23.08 870.67-22.08 869.92-21.08 868.74-20.26 867.57-19.45 865.92-18.85L865.92-18.85Q869.52-17.98 871.24-16.01 872.97-14.05 872.97-10.98L872.97-10.98Q872.97-8.65 872.07-6.65 871.17-4.65 869.43-3.16 867.69-1.68 865.14-0.84 862.59 0 859.32 0L859.32 0ZM859.12-15.45L853.22-15.45 853.22-6.38 859.17-6.38Q860.84-6.38 861.91-6.8 862.97-7.23 863.57-7.9 864.17-8.58 864.39-9.43 864.62-10.28 864.62-11.15L864.62-11.15Q864.62-12.15 864.36-12.95 864.09-13.75 863.46-14.3 862.82-14.85 861.77-15.15 860.72-15.45 859.12-15.45L859.12-15.45ZM853.22-30.1L853.22-21.1 857.62-21.1Q859.02-21.1 860.14-21.3 861.27-21.5 862.06-22 862.84-22.5 863.26-23.38 863.67-24.25 863.67-25.58L863.67-25.58Q863.67-26.88 863.34-27.74 863.02-28.6 862.34-29.13 861.67-29.65 860.63-29.88 859.59-30.1 858.17-30.1L858.17-30.1 853.22-30.1ZM886.82-36.43L886.82 0 878.32 0 878.32-36.43 886.82-36.43ZM902.01-36.43L902.01-6.75 915.51-6.75 915.51 0 893.56 0 893.56-36.43 902.01-36.43ZM928.76-36.43L928.76 0 920.26 0 920.26-36.43 928.76-36.43ZM933.01-36.43L961.96-36.43 961.96-29.73 951.71-29.73 951.71 0 943.26 0 943.26-29.73 933.01-29.73 933.01-36.43ZM974.71-36.43L974.71 0 966.21 0 966.21-36.43 974.71-36.43ZM981.45-36.43L1004.9-36.43 1004.9-29.93 989.95-29.93 989.95-21.43 1001.4-21.43 1001.4-15.18 989.95-15.18 989.95-6.5 1004.9-6.5 1004.9 0 981.45 0 981.45-36.43ZM1032.1-32.95L1030-29.03Q1029.63-28.43 1029.21-28.13 1028.8-27.83 1028.15-27.83L1028.15-27.83Q1027.58-27.83 1026.91-28.19 1026.25-28.55 1025.41-29 1024.58-29.45 1023.5-29.81 1022.43-30.18 1021.05-30.18L1021.05-30.18Q1018.68-30.18 1017.51-29.16 1016.35-28.15 1016.35-26.43L1016.35-26.43Q1016.35-25.33 1017.05-24.6 1017.75-23.88 1018.89-23.35 1020.03-22.83 1021.49-22.39 1022.95-21.95 1024.48-21.41 1026-20.88 1027.46-20.15 1028.93-19.43 1030.06-18.3 1031.2-17.18 1031.9-15.56 1032.6-13.95 1032.6-11.68L1032.6-11.68Q1032.6-9.15 1031.73-6.95 1030.85-4.75 1029.19-3.11 1027.53-1.48 1025.09-0.54 1022.65 0.4 1019.55 0.4L1019.55 0.4Q1017.85 0.4 1016.09 0.05 1014.33-0.3 1012.68-0.94 1011.03-1.58 1009.58-2.45 1008.13-3.33 1007.05-4.4L1007.05-4.4 1009.55-8.35Q1009.83-8.8 1010.33-9.08 1010.83-9.35 1011.4-9.35L1011.4-9.35Q1012.15-9.35 1012.91-8.88 1013.68-8.4 1014.64-7.83 1015.6-7.25 1016.85-6.78 1018.1-6.3 1019.8-6.3L1019.8-6.3Q1022.1-6.3 1023.38-7.31 1024.65-8.33 1024.65-10.53L1024.65-10.53Q1024.65-11.8 1023.95-12.6 1023.25-13.4 1022.11-13.93 1020.98-14.45 1019.53-14.85 1018.08-15.25 1016.55-15.74 1015.03-16.23 1013.58-16.94 1012.13-17.65 1010.99-18.81 1009.85-19.98 1009.15-21.71 1008.45-23.45 1008.45-26L1008.45-26Q1008.45-28.05 1009.28-30 1010.1-31.95 1011.7-33.48 1013.3-35 1015.63-35.91 1017.95-36.83 1020.95-36.83L1020.95-36.83Q1022.63-36.83 1024.21-36.56 1025.8-36.3 1027.23-35.79 1028.65-35.27 1029.89-34.56 1031.13-33.85 1032.1-32.95L1032.1-32.95Z" opacity="1" transform="matrix(1,0,0,1,0,0)" fill="#ffffff" class="slogan-text-1" data-fill-palette-color="secondary" id="text-1"></path></svg></g></svg></g></svg></g></svg></g><g transform="matrix(1,0,0,1,84.45103487999998,0)"><svg viewBox="0 0 75.52929023999998 29.876030361599994" height="29.876030361599994" width="75.52929023999998"><g><svg xmlns="http://www.w3.org/2000/svg" xmlns:xlink="http://www.w3.org/1999/xlink" xml:space="preserve" version="1.1" style="shape-rendering:geometricPrecision;text-rendering:geometricPrecision;image-rendering:optimizeQuality;" viewBox="0 0 675 267" x="0" y="0" fill-rule="evenodd" clip-rule="evenodd" height="29.876030361599994" width="75.52929023999998" class="icon-icon-0" data-fill-palette-color="accent" id="icon-0"><g fill="#406b58" data-fill-palette-color="accent"><path class="" d="M167 0c68 0 124 51 132 117 12-4 25-5 39-5 13 0 26 1 38 5 8-66 64-117 133-117 68 0 124 51 132 117l34 0 0 10-33 0c0 2 0 4 0 7 0 73-60 133-133 133-74 0-134-60-134-133l0-7c-12-3-24-5-37-5-13 0-26 2-38 5l0 7c0 73-60 133-133 133-74 0-134-60-134-133 0-3 0-5 0-7l-33 0 0-10 34 0c8-66 64-117 133-117z m122 134c0-68-55-123-122-123-68 0-123 55-123 123 0 67 55 122 123 122 67 0 122-55 122-122z m342 0c0-68-55-123-122-123-68 0-123 55-123 123 0 67 55 122 123 122 67 0 122-55 122-122z" fill="#ffffff" data-fill-palette-color="accent"></path></g></svg></g></svg></g><g></g></svg></g></svg></g></svg></g><g><path d="M96.256 55.529A122.216 122.216 0 0 1 299.264 55.529L294.635 55.529A117.588 117.588 0 0 0 100.885 55.529L96.256 55.529M96.256 191.671A122.216 122.216 0 0 0 299.264 191.671L294.635 191.671A117.588 117.588 0 0 1 100.885 191.671L96.256 191.671" fill="#ffffff" stroke="transparent" data-fill-palette-color="tertiary"></path></g></svg></g><defs></defs></svg><rect width="395.52" height="247.2" fill="none" stroke="none" visibility="hidden"></rect></g></svg></g></svg>