<svg width="19" height="17" viewBox="0 0 19 17" fill="none" xmlns="http://www.w3.org/2000/svg">
<path d="M12.1001 0.000190678H6.05007C2.71385 0.000190678 0 2.71645 0 6.05602V7.65464C0 10.2903 1.68556 12.5754 4.11837 13.3921C3.81128 13.9225 3.39279 14.7494 2.79138 16.041C2.68687 16.2651 2.73329 16.5298 2.9073 16.7055C3.0204 16.8191 3.17191 16.8794 3.32594 16.8794C3.40866 16.8794 3.49236 16.8621 3.571 16.8258L10.3827 13.7098L12.0999 13.7099C15.4361 13.7099 18.15 10.9937 18.15 7.65409V6.05547C18.15 2.7163 15.436 0 12.0999 0L12.1001 0.000190678ZM16.9708 7.65425C16.9708 10.3429 14.7857 12.5307 12.0998 12.5307H10.2541C10.1695 12.5307 10.0858 12.549 10.0089 12.5843L4.57109 15.0719C4.93305 14.3528 5.26264 13.7445 5.41752 13.5425C5.56622 13.4528 5.67341 13.2977 5.69704 13.1129C5.73699 12.8003 5.52415 12.5117 5.21426 12.4571C2.87627 12.0477 1.17944 10.0275 1.17944 7.65447V6.05585C1.17944 3.36717 3.36452 1.17942 6.05047 1.17942H12.1005C14.7864 1.17942 16.9716 3.36717 16.9716 6.05585V7.65433L16.9708 7.65425Z" fill="#1C7468"/>
<path d="M5.81511 6.98993C5.81511 7.71018 5.23132 8.29397 4.51107 8.29397C3.79097 8.29397 3.20703 7.71018 3.20703 6.98993C3.20703 6.26983 3.79097 5.68604 4.51107 5.68604C5.23132 5.68604 5.81511 6.26983 5.81511 6.98993Z" fill="#1C7468"/>
<path d="M14.9538 6.98993C14.9538 7.71018 14.3698 8.29397 13.6497 8.29397C12.9295 8.29397 12.3457 7.71018 12.3457 6.98993C12.3457 6.26983 12.9295 5.68604 13.6497 5.68604C14.3698 5.68604 14.9538 6.26983 14.9538 6.98993Z" fill="#1C7468"/>
<path d="M10.3874 6.98993C10.3874 7.71018 9.80344 8.29397 9.08334 8.29397C8.36324 8.29397 7.7793 7.71018 7.7793 6.98993C7.7793 6.26983 8.36324 5.68604 9.08334 5.68604C9.80344 5.68604 10.3874 6.26983 10.3874 6.98993Z" fill="#1C7468"/>
</svg>
