<svg width="20" height="21" viewBox="0 0 20 21" fill="none" xmlns="http://www.w3.org/2000/svg">
<path opacity="0.2" d="M10.625 5.25015L15 9.8439L17.0581 7.68294C17.1753 7.55987 17.2411 7.39295 17.2411 7.2189C17.2411 7.04485 17.1753 6.87793 17.0581 6.75486L13.5669 3.08918C13.4497 2.96611 13.2908 2.89697 13.125 2.89697C12.9592 2.89697 12.8003 2.96611 12.6831 3.08918L10.625 5.25015Z" fill="white"/>
<path d="M7.45938 17.6766L3.16406 13.1665" stroke="white" stroke-width="0.8" stroke-linecap="round" stroke-linejoin="round"/>
<path d="M7.24112 17.7189H3.75C3.58424 17.7189 3.42527 17.6498 3.30806 17.5267C3.19085 17.4036 3.125 17.2367 3.125 17.0626V13.397C3.125 13.3108 3.14117 13.2255 3.17258 13.1458C3.20398 13.0662 3.25002 12.9939 3.30806 12.9329L12.6831 3.08918C12.8003 2.96611 12.9592 2.89697 13.125 2.89697C13.2908 2.89697 13.4497 2.96611 13.5669 3.08918L17.0581 6.75486C17.1753 6.87793 17.2411 7.04485 17.2411 7.21889C17.2411 7.39294 17.1753 7.55986 17.0581 7.68293L7.68306 17.5267C7.62502 17.5876 7.55612 17.636 7.48029 17.6689C7.40446 17.7019 7.32319 17.7189 7.24112 17.7189Z" stroke="white" stroke-width="0.8" stroke-linecap="round" stroke-linejoin="round"/>
<path d="M10.625 5.25L15 9.84375" stroke="white" stroke-width="0.8" stroke-linecap="round" stroke-linejoin="round"/>
</svg>
