<svg width="16" height="21" viewBox="0 0 16 21" fill="none" xmlns="http://www.w3.org/2000/svg">
<path d="M12.2013 18.9671C12.7471 18.8281 13.0883 18.6826 13.2917 18.5594C13.396 18.4961 13.4612 18.4405 13.4991 18.3971C13.5352 18.3557 13.5399 18.3334 13.5405 18.3308C13.5401 18.3281 13.5377 18.316 13.5225 18.2937C13.5054 18.2686 13.4761 18.2364 13.43 18.1988C13.3376 18.1235 13.1876 18.0341 12.9642 17.9407C12.5245 17.757 11.8143 17.5637 10.7385 17.4297C10.7257 17.4421 10.7129 17.4545 10.7001 17.4668M12.2013 18.9671L10.631 17.3944M12.2013 18.9671L12.1698 18.9463L12.1326 18.9835M12.2013 18.9671L12.1326 18.9835M10.7001 17.4668L10.631 17.3944M10.7001 17.4668C10.7001 17.4667 10.7002 17.4667 10.7002 17.4667L10.631 17.3944M10.7001 17.4668C10.3635 17.789 9.95587 18.1427 9.53795 18.4164C9.12313 18.688 8.68383 18.8907 8.28706 18.8907H8.24415H8.23998L8.23998 18.8906C7.89692 18.8763 7.50464 18.7086 7.09487 18.4462C6.69354 18.1893 6.2655 17.8349 5.83607 17.4224M10.631 17.3944C9.96216 18.0349 9.02023 18.7907 8.28706 18.7907H8.24415C7.61086 18.7643 6.74745 18.1651 5.87133 17.3175M5.83607 17.4224C5.85164 17.4206 5.86729 17.4187 5.88301 17.4168L5.87133 17.3175M5.83607 17.4224C5.82465 17.4115 5.81322 17.4005 5.8018 17.3894L5.87133 17.3175M5.83607 17.4224C4.735 17.555 4.00823 17.7494 3.55835 17.9351C3.32992 18.0294 3.17637 18.12 3.08186 18.1964C3.03459 18.2347 3.00452 18.2674 2.98701 18.293C2.9689 18.3195 2.96838 18.332 2.96838 18.332C2.96838 18.3317 2.96839 18.3317 2.96849 18.3322C2.9692 18.3353 2.97423 18.3571 3.00932 18.3974C3.04708 18.4407 3.11215 18.4963 3.21645 18.5595C3.42478 18.6858 3.77808 18.8354 4.34792 18.9775M5.87133 17.3175C3.6056 17.5841 2.86838 18.1132 2.86838 18.332C2.86838 18.4633 3.17282 18.7878 4.32497 19.0748M4.32497 19.0748L4.34668 18.9772C4.34709 18.9773 4.34751 18.9774 4.34792 18.9775M4.32497 19.0748L4.34915 18.9778C4.34874 18.9777 4.34833 18.9776 4.34792 18.9775M4.32497 19.0748C5.61471 19.3615 6.93324 19.4973 8.2542 19.4792L12.1326 18.9835M4.34792 18.9775C5.62969 19.2623 6.94006 19.3972 8.25282 19.3792L8.25557 19.3791C9.55897 19.397 10.86 19.2642 12.1326 18.9835M3.66792 8.182C3.68682 6.99205 4.16771 5.85472 5.01057 5.01186C5.01057 5.01186 5.01057 5.01186 5.01057 5.01185M3.66792 8.182L5.01057 5.01185M3.66792 8.182L3.668 8.25485C3.66932 9.47079 4.15304 10.6367 5.01286 11.4965C5.87268 12.3564 7.03857 12.8401 8.25455 12.8414M3.66792 8.182L8.25455 12.8414M5.01057 5.01185C5.87079 4.15178 7.03733 3.66848 8.25364 3.66848H8.25365C9.46997 3.66835 10.6366 4.15151 11.4967 5.01161L11.4967 5.01162C12.3569 5.87169 12.8402 7.03823 12.8404 8.25455C12.8404 9.47087 12.3573 10.6375 11.4974 11.4978C10.6373 12.3579 9.47083 12.8412 8.25455 12.8414M5.01057 5.01185L8.25455 12.8414M1.76308 11.6274C2.31363 12.8255 2.98567 13.964 3.76873 15.025C4.21546 15.6382 4.69697 16.2252 5.21087 16.7831C4.63971 16.8728 3.95658 17.014 3.39366 17.2302C3.08094 17.3502 2.79869 17.4958 2.59299 17.6734C2.38647 17.8516 2.24885 18.07 2.24885 18.3318C2.24885 18.6387 2.43398 18.9007 2.75781 19.1188C3.08106 19.3365 3.55668 19.5212 4.17515 19.6749L4.17748 19.6755C5.51532 19.9742 6.88326 20.1162 8.25393 20.0985C9.62446 20.1165 10.9925 19.9747 12.3304 19.6763L12.3304 19.6763L12.3328 19.6757C12.9513 19.5213 13.4269 19.3365 13.7501 19.1188C14.0738 18.9008 14.259 18.6392 14.259 18.3326C14.259 18.0996 14.1509 17.8901 13.955 17.7071C13.7608 17.5255 13.4765 17.366 13.1108 17.2264L12.8734 17.1358L12.8795 17.1482C12.3825 16.9869 11.8731 16.8669 11.3564 16.7891C12.3587 15.6782 13.2381 14.462 13.9792 13.1616L13.9793 13.1615C14.7178 11.8619 15.6096 9.94584 15.6096 8.25482C15.6096 6.30423 14.8348 4.4334 13.4556 3.05408L13.4556 3.05407C12.0762 1.67482 10.2055 0.9 8.25482 0.9C6.30423 0.9 4.4334 1.67486 3.05408 3.05407L3.05407 3.05408C1.67482 4.43347 0.9 6.30416 0.9 8.25482C0.9 9.22015 1.1927 10.3551 1.76269 11.6266L1.76308 11.6274ZM13.3533 12.806L13.3532 12.8062C12.4952 14.3236 11.4348 15.7173 10.2009 16.9488C9.78072 17.3519 9.39157 17.6639 9.05721 17.8723C8.7185 18.0835 8.45084 18.1789 8.26954 18.1716C8.10641 18.1648 7.87338 18.0779 7.58461 17.9048C7.29908 17.7336 6.96982 17.4847 6.61673 17.1686C5.77676 16.3913 5.01737 15.5312 4.35 14.6015L4.34952 14.6008C2.63187 12.2483 1.61934 9.8751 1.61934 8.25516V8.20982L1.61922 8.20971C1.63108 6.46631 2.32869 4.79672 3.56243 3.56295C4.80682 2.31855 6.49454 1.61959 8.2544 1.61959C10.0143 1.61959 11.7019 2.31855 12.9464 3.56295C14.1908 4.80734 14.8897 6.49506 14.8897 8.25492C14.8897 9.43861 14.349 11.0544 13.3533 12.806ZM13.5593 8.19086C13.5425 6.80682 12.9852 5.4831 12.0052 4.50312L12.0052 4.50311C11.0099 3.50819 9.6603 2.94941 8.25301 2.94955C6.84571 2.94969 5.49617 3.50889 4.50121 4.5041L4.57193 4.5748L4.50121 4.5041C3.50628 5.49931 2.94751 6.84896 2.94765 8.25625C2.94779 9.66344 3.50699 11.0131 4.5022 12.008C5.49741 13.003 6.84706 13.5617 8.25435 13.5616H8.25444C9.66132 13.5601 11.01 13.0005 12.0048 12.0056C12.9994 11.0108 13.5588 9.662 13.5604 8.25527L13.5604 8.19138L13.5593 8.19086Z" fill="#1C7468" stroke="#1C7468" stroke-width="0.2"/>
</svg>
