<svg width="190" height="93" viewBox="0 0 190 93" fill="none" xmlns="http://www.w3.org/2000/svg">
<path d="M143.902 6C129.069 6 114.931 15.0776 104.501 30.6724L82.4834 60.6983C73.2127 75.1293 60.0019 83.2759 46.3276 83.2759C26.1638 83.2759 9.70829 66.75 9.70829 46.5C9.70829 44.8707 9.70829 43.2414 9.94006 41.8448H90.5953C90.8271 41.8448 91.2906 41.8448 91.5224 41.6121C92.4494 41.1466 92.6812 39.9828 91.9859 39.0517C83.6423 26.7155 66.7232 6 46.3276 6C24.0779 6 6 24.1552 6 46.5C6 68.8448 24.0779 87 46.3276 87C61.1608 87 75.5304 78.1552 85.4964 62.7931L107.514 32.7672C117.017 18.1034 130.228 9.72414 143.67 9.72414C163.834 9.72414 180.289 26.25 180.289 46.5C180.289 66.75 163.834 83.2759 143.67 83.2759C125.824 83.2759 110.064 64.8879 102.415 53.9483C101.72 53.0172 100.793 53.0172 99.866 53.4828C98.9389 54.181 98.9389 55.1121 99.4025 56.0431C107.514 67.4483 124.202 86.7672 143.67 86.7672C165.92 86.7672 183.998 68.6121 183.998 46.2672C184.23 24.1552 166.152 6 143.902 6ZM46.3276 9.72414C54.4395 9.72414 63.0149 13.681 71.8221 21.1293C78.0798 26.4828 83.1787 33 86.887 38.1207H10.6354C14.3436 21.8276 28.945 9.72414 46.3276 9.72414Z" stroke="#1C7468" stroke-width="12"/>
</svg>
