<?xml version="1.0" encoding="UTF-8"?>
<svg id="Layer_1" data-name="Layer 1" xmlns="http://www.w3.org/2000/svg" viewBox="0 0 1300.59 882.77">
  <defs>
    <style>
      .cls-1 {
        fill: #2a7369;
      }
    </style>
  </defs>
  <path class="cls-1" d="M935.81,205.1c-86.21,0-170,52.37-229.94,143.69l-128.52,175.48c-.08,.11-.15,.22-.23,.33-54.88,83.76-132.28,131.8-212.34,131.8-118.56,0-215.02-96.45-215.02-215.01,0-9.41,.61-18.68,1.79-27.78h472.23v-.06c1.84-.11,3.68-.66,5.32-1.77,4.86-3.3,6.13-9.91,2.83-14.77-48.61-71.67-147.95-191.9-267.15-191.9-130.29,0-236.28,106-236.28,236.28s106,236.28,236.28,236.28c87.31,0,171.14-51.47,230.02-141.24l128.28-175.14c.14-.18,.27-.37,.39-.56,55.95-85.39,133.34-134.36,212.34-134.36,118.56,0,215.02,96.46,215.02,215.02s-96.45,215.02-215.02,215.02c-104.12,0-196.27-106.99-241.94-170.77-3.42-4.77-10.06-5.87-14.84-2.45-4.77,3.42-5.87,10.06-2.45,14.84,48.04,67.09,145.6,179.66,259.23,179.66,130.29,0,236.28-106,236.28-236.28s-106-236.28-236.28-236.28Zm-571.03,21.27c48,0,98.18,22.41,149.14,66.62,36.65,31.8,67.15,69.28,88.83,99.4H155.4c22.23-95.03,107.67-166.02,209.38-166.02Z"/>
</svg>