<svg width="254" height="127" viewBox="0 0 254 127" fill="none" xmlns="http://www.w3.org/2000/svg">
    <g opacity="0.03">
        <path
            d="M147.14 47.126C141.807 47.126 136.724 50.3756 132.975 55.9582L125.059 66.7068C121.726 71.8728 116.977 74.7891 112.061 74.7891C104.812 74.7891 98.8957 68.8732 98.8957 61.6241C98.8957 61.0409 98.8957 60.4576 98.979 59.9577H127.975C128.059 59.9577 128.225 59.9577 128.309 59.8744C128.642 59.7077 128.725 59.2911 128.475 58.9578C125.476 54.5417 119.393 47.126 112.061 47.126C104.062 47.126 97.5625 53.6252 97.5625 61.6241C97.5625 69.6231 104.062 76.1223 112.061 76.1223C117.393 76.1223 122.559 72.956 126.142 67.4567L134.058 56.7081C137.474 51.4588 142.224 48.4591 147.056 48.4591C154.305 48.4591 160.221 54.3751 160.221 61.6241C160.221 68.8732 154.305 74.7891 147.056 74.7891C140.64 74.7891 134.974 68.2066 132.225 64.2905C131.975 63.9572 131.642 63.9572 131.308 64.1238C130.975 64.3738 130.975 64.7071 131.142 65.0404C134.058 69.1232 140.057 76.039 147.056 76.039C155.055 76.039 161.554 69.5398 161.554 61.5408C161.638 53.6252 155.139 47.126 147.14 47.126ZM112.061 48.4591C114.977 48.4591 118.06 49.8756 121.226 52.542C123.476 54.4584 125.309 56.7914 126.642 58.6245H99.229C100.562 52.7919 105.811 48.4591 112.061 48.4591Z"
            fill="white" fill-opacity="0.8" />
        <path
            d="M191.076 11C171.707 11 153.245 22.8033 139.626 43.0808L110.874 82.1225C98.7682 100.887 81.5172 111.479 63.6609 111.479C37.3305 111.479 15.8424 89.9914 15.8424 63.6609C15.8424 61.5424 15.8424 59.4238 16.145 57.6079H121.467C121.769 57.6079 122.375 57.6079 122.677 57.3053C123.888 56.7 124.191 55.1867 123.283 53.9761C112.387 37.9357 90.294 11 63.6609 11C34.6066 11 11 34.6066 11 63.6609C11 92.7152 34.6066 116.322 63.6609 116.322C83.0304 116.322 101.795 104.821 114.809 84.8463L143.56 45.8046C155.969 26.7377 173.22 15.8424 190.773 15.8424C217.104 15.8424 238.592 37.3305 238.592 63.6609C238.592 89.9914 217.104 111.479 190.773 111.479C167.469 111.479 146.889 87.5702 136.902 73.3457C135.994 72.1351 134.783 72.1351 133.573 72.7404C132.362 73.6483 132.362 74.8589 132.968 76.0695C143.56 90.8993 165.351 116.019 190.773 116.019C219.828 116.019 243.434 92.4125 243.434 63.3583C243.737 34.6066 220.13 11 191.076 11ZM63.6609 15.8424C74.2536 15.8424 85.4516 20.9874 96.9523 30.6722C105.124 37.6331 111.782 46.1073 116.624 52.7655H17.053C21.8954 31.5801 40.9622 15.8424 63.6609 15.8424Z"
            stroke="#1C7468" stroke-width="21" />
    </g>
</svg>