<svg width="227" height="29" viewBox="0 0 227 29" fill="none" xmlns="http://www.w3.org/2000/svg">
<path d="M77.4275 10.7901C78.0608 11.202 78.5358 11.7785 78.9316 12.4374C79.2482 13.1787 79.4857 13.92 79.4857 14.8261C79.4857 14.9908 79.4065 15.1555 79.3273 15.2379C79.2482 15.3203 79.0899 15.4026 78.9316 15.4026H72.203C72.2822 16.391 72.678 17.1323 73.3112 17.7089C73.9445 18.2854 74.7361 18.6149 75.686 18.6149C76.0818 18.6149 76.4776 18.5325 76.8734 18.3678C77.2692 18.2031 77.5858 18.0383 77.8233 17.7912C77.9816 17.7089 78.14 17.6265 78.2983 17.6265C78.4566 17.6265 78.5358 17.7089 78.6941 17.7912C78.8524 17.956 78.9316 18.1207 78.9316 18.2854C78.9316 18.4502 78.8524 18.5325 78.7732 18.6973C78.3774 19.0267 77.9025 19.2738 77.3484 19.5209C76.7943 19.768 76.2401 19.8504 75.686 19.8504C74.8153 19.8504 74.0237 19.6033 73.3112 19.1915C72.5988 18.7796 72.0447 18.2031 71.6489 17.4618C71.2531 16.7205 71.0156 15.8968 71.0156 14.9908C71.0156 14.0848 71.1739 13.1787 71.5697 12.4374C71.9655 11.6962 72.4405 11.1196 73.1529 10.7078C73.7862 10.2959 74.5778 10.0488 75.4485 10.0488C76.0818 10.2136 76.7943 10.3783 77.4275 10.7901ZM73.1529 12.1903C72.5988 12.7669 72.2822 13.4258 72.1238 14.3319H78.2983C78.2191 13.4258 77.9025 12.6845 77.3484 12.1903C76.7943 11.6138 76.161 11.3667 75.2902 11.3667C74.4195 11.3667 73.707 11.6962 73.1529 12.1903Z" fill="white"/>
<path d="M88.8257 10.8718C88.8257 10.9542 88.8257 11.0366 88.7466 11.1189L85.1053 19.3555C84.9469 19.685 84.7095 19.8497 84.472 19.8497C84.2345 19.8497 83.997 19.685 83.8387 19.3555L80.1182 11.1189C80.1182 11.0366 80.0391 10.9542 80.0391 10.8718C80.0391 10.6247 80.1974 10.46 80.4349 10.2953C80.514 10.2129 80.5932 10.2129 80.6723 10.2129C80.7515 10.2129 80.9098 10.2129 80.989 10.2953C81.0681 10.3776 81.1473 10.46 81.2265 10.5424L84.472 17.7906L87.6384 10.5424C87.7175 10.46 87.7175 10.2953 87.8758 10.2953C87.955 10.2129 88.1133 10.2129 88.1925 10.2129C88.2716 10.2129 88.3508 10.2129 88.4299 10.2953C88.6674 10.46 88.8257 10.6247 88.8257 10.8718Z" fill="white"/>
<path d="M96.2713 10.7901C96.9045 11.202 97.3795 11.7785 97.7753 12.4374C98.0919 13.1787 98.3294 13.92 98.3294 14.8261C98.3294 14.9908 98.2502 15.1555 98.1711 15.2379C98.0919 15.3203 97.9336 15.4026 97.7753 15.4026H91.0468C91.1259 16.391 91.5217 17.1323 92.155 17.7089C92.7883 18.2854 93.5799 18.6149 94.5298 18.6149C94.9256 18.6149 95.3214 18.5325 95.7172 18.3678C96.1129 18.2031 96.4296 18.0383 96.6671 17.7912C96.8254 17.7089 96.9837 17.6265 97.142 17.6265C97.3003 17.6265 97.3795 17.7089 97.5378 17.7912C97.6961 17.956 97.7753 18.1207 97.7753 18.2854C97.7753 18.4502 97.6961 18.5325 97.617 18.6973C97.2212 19.0267 96.7462 19.2738 96.1921 19.5209C95.638 19.768 95.0839 19.8504 94.5298 19.8504C93.659 19.8504 92.8674 19.6033 92.155 19.1915C91.4426 18.7796 90.8884 18.2031 90.4927 17.4618C90.0969 16.7205 89.8594 15.8968 89.8594 14.9908C89.8594 14.0848 90.0177 13.1787 90.4135 12.4374C90.8093 11.6962 91.2842 11.1196 91.9967 10.7078C92.6299 10.2959 93.4215 10.0488 94.2923 10.0488C94.8464 10.2136 95.5588 10.3783 96.2713 10.7901ZM91.9175 12.1903C91.3634 12.7669 91.0468 13.4258 90.8884 14.3319H96.9837C96.9045 13.4258 96.5879 12.6845 96.0338 12.1903C95.4797 11.6138 94.8464 11.3667 93.9757 11.3667C93.1841 11.3667 92.4716 11.6962 91.9175 12.1903Z" fill="white"/>
<path d="M105.687 10.378C105.924 10.5427 106.082 10.7074 106.082 10.9545C106.082 11.0369 106.082 11.0369 106.082 11.1193C106.003 11.284 106.003 11.3664 105.845 11.4487C105.766 11.5311 105.607 11.5311 105.449 11.5311C105.37 11.5311 105.212 11.5311 104.895 11.5311C104.816 11.5311 104.657 11.5311 104.499 11.5311C103.628 11.5311 102.995 11.7782 102.441 12.19C101.887 12.6842 101.649 13.2608 101.649 14.0021V19.1911C101.649 19.4382 101.57 19.603 101.491 19.6853C101.412 19.7677 101.254 19.8501 101.016 19.8501C100.779 19.8501 100.62 19.7677 100.541 19.6853C100.462 19.603 100.383 19.4382 100.383 19.1911V10.9545C100.383 10.7074 100.462 10.5427 100.541 10.4603C100.62 10.378 100.779 10.2956 101.016 10.2956C101.254 10.2956 101.412 10.378 101.491 10.4603C101.57 10.5427 101.649 10.7074 101.649 10.9545V11.6958C101.966 11.2016 102.362 10.7898 102.916 10.5427C103.391 10.2956 103.945 10.1309 104.578 10.1309C105.053 10.2132 105.37 10.2132 105.687 10.378Z" fill="white"/>
<path d="M115.662 10.8725C115.662 10.9548 115.662 11.1196 115.583 11.2019L110.121 23.6392C110.041 23.8863 109.883 24.051 109.646 24.051C109.566 24.051 109.408 24.051 109.329 23.9687C109.091 23.8863 108.933 23.7216 108.933 23.4745C108.933 23.3921 108.933 23.2274 109.012 23.145L110.675 19.3562L106.954 11.2843C106.875 11.2019 106.875 11.1196 106.875 10.9548C106.875 10.7077 107.033 10.543 107.271 10.4606C107.35 10.3783 107.429 10.3783 107.587 10.3783C107.825 10.3783 107.983 10.4606 108.062 10.7077L111.308 17.8736L114.395 10.7077C114.474 10.4606 114.712 10.2959 114.87 10.2959C114.949 10.2959 115.108 10.2959 115.187 10.3783C115.503 10.4606 115.662 10.6254 115.662 10.8725Z" fill="white"/>
<path d="M121.753 18.6969C121.832 18.8617 121.911 19.0264 121.911 19.1911C121.911 19.3559 121.832 19.5206 121.674 19.6853C121.516 19.8501 121.357 19.8501 121.199 19.8501H120.882C120.328 19.8501 119.774 19.6853 119.299 19.4382C118.824 19.1088 118.428 18.7793 118.191 18.2027C117.953 17.7085 117.795 17.132 117.795 16.4731V11.8605H116.687C116.529 11.8605 116.37 11.7782 116.291 11.6958C116.212 11.6135 116.133 11.4487 116.133 11.284C116.133 11.1193 116.212 10.9545 116.291 10.8722C116.37 10.7898 116.529 10.7074 116.687 10.7074H117.795V7.90698C117.795 7.74224 117.874 7.57751 117.953 7.41278C118.033 7.24805 118.191 7.24805 118.428 7.24805C118.587 7.24805 118.745 7.33041 118.903 7.41278C119.062 7.57751 119.062 7.74224 119.062 7.90698V10.6251H120.961C121.12 10.6251 121.278 10.7074 121.357 10.7898C121.436 10.8722 121.516 11.0369 121.516 11.2016C121.516 11.3664 121.436 11.5311 121.357 11.6135C121.278 11.6958 121.12 11.7782 120.961 11.7782H119.062V16.4731C119.062 17.0496 119.22 17.5438 119.537 17.9556C119.853 18.3675 120.328 18.5322 120.803 18.5322H121.278C121.436 18.4498 121.595 18.5322 121.753 18.6969Z" fill="white"/>
<path d="M130.466 10.7075C131.099 11.037 131.574 11.5312 131.97 12.2725C132.365 12.9314 132.524 13.7551 132.524 14.6611V19.1913C132.524 19.356 132.445 19.5207 132.365 19.6855C132.207 19.8502 132.128 19.8502 131.89 19.8502C131.732 19.8502 131.574 19.7678 131.415 19.6855C131.257 19.5207 131.257 19.4384 131.257 19.1913V14.6611C131.257 13.5904 131.02 12.8491 130.466 12.2725C129.911 11.6959 129.199 11.4488 128.328 11.4488C127.774 11.4488 127.299 11.5312 126.824 11.7783C126.349 12.0254 126.033 12.2725 125.795 12.6843C125.558 13.0962 125.399 13.508 125.399 14.0022V19.1913C125.399 19.356 125.32 19.5207 125.241 19.6855C125.162 19.7678 125.004 19.8502 124.766 19.8502C124.608 19.8502 124.449 19.7678 124.291 19.6855C124.133 19.6031 124.133 19.4384 124.133 19.1913V6.91869C124.133 6.75396 124.212 6.58923 124.291 6.4245C124.449 6.25977 124.608 6.25977 124.766 6.25977C124.924 6.25977 125.083 6.34213 125.241 6.4245C125.32 6.58923 125.399 6.75396 125.399 6.91869V11.5312C125.795 11.1194 126.191 10.7899 126.745 10.5428C127.299 10.2957 127.853 10.2133 128.487 10.2133C129.12 10.2133 129.832 10.3781 130.466 10.7075Z" fill="white"/>
<path d="M135.612 8.1548C135.454 7.99007 135.375 7.74297 135.375 7.49587C135.375 7.24877 135.454 7.00167 135.612 6.83694C135.771 6.67221 136.008 6.58984 136.246 6.58984C136.483 6.58984 136.721 6.67221 136.879 6.83694C137.037 7.00167 137.117 7.24877 137.117 7.49587C137.117 7.74297 137.037 7.99007 136.879 8.1548C136.721 8.31953 136.483 8.4019 136.246 8.4019C136.008 8.48427 135.771 8.4019 135.612 8.1548ZM135.771 19.6037C135.612 19.439 135.612 19.2742 135.612 19.1095V10.9553C135.612 10.7905 135.692 10.6258 135.771 10.4611C135.929 10.2963 136.087 10.2963 136.246 10.2963C136.404 10.2963 136.562 10.3787 136.721 10.4611C136.8 10.6258 136.879 10.7905 136.879 10.9553V19.1095C136.879 19.2742 136.8 19.439 136.721 19.6037C136.642 19.7684 136.483 19.7684 136.246 19.7684C136.087 19.8508 135.929 19.7684 135.771 19.6037Z" fill="white"/>
<path d="M146.614 10.7071C147.247 11.0366 147.722 11.5307 148.118 12.272C148.514 12.931 148.672 13.7546 148.672 14.6607V19.1908C148.672 19.3555 148.593 19.5203 148.514 19.685C148.355 19.8497 148.276 19.8497 148.039 19.8497C147.881 19.8497 147.722 19.7674 147.564 19.685C147.406 19.5203 147.406 19.4379 147.406 19.1908V14.6607C147.406 13.5899 147.168 12.8486 146.614 12.272C146.06 11.6955 145.347 11.4484 144.477 11.4484C143.923 11.4484 143.448 11.5307 142.973 11.7778C142.498 12.0249 142.181 12.272 141.944 12.6839C141.706 13.0957 141.548 13.5075 141.548 14.0017V19.1908C141.548 19.3555 141.469 19.5203 141.389 19.685C141.31 19.7674 141.152 19.8497 140.915 19.8497C140.756 19.8497 140.598 19.7674 140.44 19.685C140.281 19.6026 140.281 19.4379 140.281 19.1908V11.0366C140.281 10.8718 140.36 10.7071 140.44 10.5424C140.598 10.3776 140.756 10.3776 140.915 10.3776C141.073 10.3776 141.231 10.46 141.389 10.5424C141.469 10.7071 141.548 10.8718 141.548 11.0366V11.5307C141.944 11.1189 142.339 10.7895 142.894 10.5424C143.448 10.2953 144.002 10.2129 144.635 10.2129C145.268 10.2129 145.981 10.3776 146.614 10.7071Z" fill="white"/>
<path d="M158.092 10.7898C158.805 11.2016 159.359 11.7782 159.754 12.5195C160.15 13.2608 160.388 14.0844 160.388 15.0728V18.6146C160.388 19.5206 160.15 20.3443 159.754 21.1679C159.359 21.9092 158.805 22.4858 158.092 22.98C157.38 23.3918 156.588 23.6389 155.717 23.6389C154.847 23.6389 154.055 23.4742 153.422 23.1447C152.788 22.8152 152.155 22.321 151.759 21.7445C151.68 21.6621 151.601 21.4974 151.601 21.3327C151.601 21.1679 151.68 21.0032 151.838 20.9208C151.918 20.8385 152.076 20.8385 152.234 20.8385C152.313 20.8385 152.472 20.8385 152.551 20.9208C152.63 21.0032 152.709 21.0032 152.788 21.0856C153.105 21.4974 153.58 21.9092 154.055 22.0739C154.53 22.321 155.163 22.4034 155.796 22.4034C156.43 22.4034 156.984 22.2387 157.459 21.9092C157.934 21.5798 158.33 21.1679 158.646 20.5914C158.963 20.0148 159.042 19.3559 159.042 18.6146V17.7909C158.725 18.4498 158.25 18.944 157.617 19.3559C156.984 19.7677 156.271 19.9324 155.559 19.9324C154.688 19.9324 153.897 19.6853 153.184 19.2735C152.472 18.8617 151.997 18.2851 151.601 17.5438C151.205 16.8025 151.047 15.9789 151.047 15.0728C151.047 14.1668 151.284 13.2608 151.68 12.5195C152.076 11.7782 152.63 11.2016 153.343 10.7898C154.055 10.378 154.847 10.1309 155.717 10.1309C156.588 10.2132 157.38 10.378 158.092 10.7898ZM157.38 18.2027C157.855 17.8733 158.33 17.4614 158.567 16.8849C158.884 16.3083 158.963 15.7318 158.963 14.9905C158.963 14.3315 158.805 13.6726 158.567 13.096C158.25 12.5195 157.855 12.1076 157.38 11.7782C156.905 11.4487 156.271 11.284 155.638 11.284C155.005 11.284 154.372 11.4487 153.897 11.7782C153.422 12.1076 152.947 12.5195 152.709 13.096C152.393 13.6726 152.313 14.2492 152.313 14.9905C152.313 15.6494 152.472 16.3083 152.709 16.8849C153.026 17.4614 153.422 17.8733 153.897 18.2027C154.372 18.5322 155.005 18.6969 155.638 18.6969C156.271 18.6969 156.905 18.5322 157.38 18.2027Z" fill="white"/>
<path d="M169.491 19.2732C168.778 18.8613 168.224 18.2848 167.829 17.5435C167.433 16.8022 167.195 15.9785 167.195 15.0725C167.195 14.1665 167.433 13.3428 167.829 12.6015C168.224 11.8602 168.778 11.2837 169.491 10.8718C170.203 10.46 170.995 10.2129 171.866 10.2129C172.736 10.2129 173.528 10.46 174.241 10.8718C174.953 11.2837 175.507 11.8602 175.903 12.6015C176.299 13.3428 176.536 14.1665 176.536 15.0725C176.536 15.9785 176.299 16.8022 175.903 17.5435C175.507 18.2848 174.953 18.8613 174.241 19.2732C173.528 19.685 172.736 19.9321 171.866 19.9321C170.995 19.9321 170.203 19.685 169.491 19.2732ZM173.607 18.2024C174.082 17.8729 174.557 17.4611 174.795 16.8845C175.111 16.308 175.19 15.7314 175.19 14.9901C175.19 14.3312 175.032 13.6723 174.795 13.0957C174.478 12.5191 174.082 12.1073 173.607 11.7778C173.132 11.4484 172.499 11.2837 171.866 11.2837C171.232 11.2837 170.678 11.4484 170.124 11.7778C169.57 12.1073 169.174 12.5191 168.937 13.0957C168.62 13.6723 168.462 14.2488 168.462 14.9901C168.462 15.6491 168.62 16.308 168.937 16.8845C169.253 17.4611 169.649 17.8729 170.124 18.2024C170.678 18.5319 171.232 18.6966 171.866 18.6966C172.578 18.6966 173.132 18.5319 173.607 18.2024Z" fill="white"/>
<path d="M186.116 10.8718C186.828 11.2837 187.382 11.8602 187.778 12.6015C188.174 13.3428 188.411 14.1665 188.411 15.0725C188.411 15.9785 188.174 16.8022 187.778 17.5435C187.382 18.2848 186.828 18.8613 186.116 19.2732C185.403 19.685 184.691 19.9321 183.82 19.9321C183.107 19.9321 182.395 19.7674 181.841 19.4379C181.208 19.1084 180.733 18.6966 180.337 18.12V23.2267C180.337 23.3915 180.258 23.5562 180.179 23.7209C180.02 23.8857 179.862 23.8857 179.704 23.8857C179.545 23.8857 179.387 23.8033 179.229 23.7209C179.149 23.5562 179.07 23.3915 179.07 23.2267V19.3555C179.07 19.3555 179.07 19.2732 179.07 19.1908V15.0725C179.07 14.1665 179.308 13.3428 179.704 12.6015C180.099 11.8602 180.654 11.2837 181.366 10.8718C182.078 10.46 182.87 10.2129 183.741 10.2129C184.611 10.2129 185.403 10.3776 186.116 10.8718ZM185.482 18.2024C186.036 17.8729 186.432 17.4611 186.67 16.8845C186.986 16.308 187.145 15.7314 187.145 14.9901C187.145 14.3312 186.986 13.6723 186.67 13.0957C186.353 12.5191 185.957 12.1073 185.482 11.7778C184.928 11.4484 184.374 11.2837 183.741 11.2837C183.107 11.2837 182.553 11.4484 181.999 11.7778C181.524 12.1073 181.049 12.5191 180.812 13.0957C180.495 13.6723 180.337 14.2488 180.337 14.9901C180.337 15.1549 180.337 15.3196 180.337 15.402V15.4843C180.416 16.3904 180.812 17.1316 181.445 17.7082C182.078 18.2848 182.791 18.6142 183.662 18.6142C184.374 18.6966 184.928 18.5319 185.482 18.2024Z" fill="white"/>
<path d="M195.378 18.6969C195.457 18.8617 195.536 19.0264 195.536 19.1911C195.536 19.3559 195.457 19.5206 195.299 19.6853C195.141 19.8501 194.982 19.8501 194.824 19.8501H194.507C193.953 19.8501 193.399 19.6853 192.924 19.4382C192.449 19.1088 192.053 18.7793 191.816 18.2027C191.578 17.7085 191.42 17.132 191.42 16.4731V11.8605H190.312C190.154 11.8605 189.995 11.7782 189.916 11.6958C189.837 11.6135 189.758 11.4487 189.758 11.284C189.758 11.1193 189.837 10.9545 189.916 10.8722C189.995 10.7898 190.154 10.7074 190.312 10.7074H191.42V7.90698C191.42 7.74224 191.499 7.57751 191.578 7.41278C191.658 7.24805 191.816 7.24805 192.053 7.24805C192.212 7.24805 192.37 7.33041 192.528 7.41278C192.687 7.57751 192.687 7.74224 192.687 7.90698V10.6251H194.587C194.745 10.6251 194.903 10.7074 194.982 10.7898C195.061 10.8722 195.141 11.0369 195.141 11.2016C195.141 11.3664 195.061 11.5311 194.982 11.6135C194.903 11.6958 194.745 11.7782 194.587 11.7782H192.687V16.4731C192.687 17.0496 192.845 17.5438 193.162 17.9556C193.478 18.3675 193.953 18.5322 194.428 18.5322H194.903C195.141 18.4498 195.299 18.5322 195.378 18.6969Z" fill="white"/>
<path d="M197.909 8.1548C197.751 7.99007 197.672 7.74297 197.672 7.49587C197.672 7.24877 197.751 7.00167 197.909 6.83694C198.068 6.67221 198.305 6.58984 198.543 6.58984C198.78 6.58984 199.018 6.67221 199.176 6.83694C199.334 7.00167 199.413 7.24877 199.413 7.49587C199.413 7.74297 199.334 7.99007 199.176 8.1548C199.018 8.31953 198.78 8.4019 198.543 8.4019C198.305 8.48427 198.068 8.4019 197.909 8.1548ZM198.068 19.6037C197.909 19.439 197.909 19.2742 197.909 19.1095V10.9553C197.909 10.7905 197.989 10.6258 198.068 10.4611C198.226 10.2963 198.384 10.2963 198.543 10.2963C198.701 10.2963 198.859 10.3787 199.018 10.4611C199.097 10.6258 199.176 10.7905 199.176 10.9553V19.1095C199.176 19.2742 199.097 19.439 199.018 19.6037C198.938 19.7684 198.78 19.7684 198.543 19.7684C198.384 19.8508 198.226 19.7684 198.068 19.6037Z" fill="white"/>
<path d="M204.241 19.2732C203.529 18.8613 202.974 18.2848 202.579 17.5435C202.183 16.8022 201.945 15.9785 201.945 15.0725C201.945 14.1665 202.104 13.3428 202.499 12.6015C202.895 11.8602 203.37 11.2837 204.083 10.8718C204.716 10.46 205.507 10.2129 206.378 10.2129C207.803 10.2129 208.911 10.7895 209.782 11.8602C209.861 11.9426 209.94 12.1073 209.94 12.1897C209.94 12.3544 209.861 12.5191 209.624 12.6839C209.545 12.7662 209.386 12.7662 209.307 12.7662C209.149 12.7662 208.991 12.6839 208.832 12.5191C208.516 12.1073 208.12 11.8602 207.724 11.6955C207.328 11.5307 206.853 11.4484 206.378 11.4484C205.745 11.4484 205.191 11.6131 204.716 11.9426C204.241 12.272 203.845 12.6839 203.608 13.2604C203.37 13.837 203.212 14.4136 203.212 15.1549C203.212 15.8138 203.37 16.4727 203.608 17.0493C203.924 17.6258 204.241 18.0377 204.795 18.3671C205.27 18.6966 205.903 18.8613 206.537 18.8613C207.407 18.8613 208.12 18.6142 208.674 18.12C208.832 17.9553 208.991 17.9553 209.149 17.9553C209.307 17.9553 209.386 18.0377 209.545 18.12C209.703 18.2848 209.782 18.4495 209.782 18.6142C209.782 18.779 209.703 18.8613 209.624 19.0261C208.832 19.7674 207.803 20.1792 206.616 20.1792C205.666 19.9321 204.874 19.685 204.241 19.2732Z" fill="white"/>
<path d="M218.967 10.8718C219.68 11.2837 220.234 11.8602 220.629 12.6015C221.025 13.3428 221.263 14.1665 221.263 15.0725V19.1908C221.263 19.3555 221.184 19.5203 221.104 19.685C220.946 19.8497 220.788 19.8497 220.629 19.8497C220.471 19.8497 220.313 19.7674 220.154 19.685C219.996 19.6026 219.996 19.4379 219.996 19.1908V18.12C219.6 18.6966 219.125 19.1084 218.492 19.4379C217.859 19.7674 217.226 19.9321 216.513 19.9321C215.642 19.9321 214.93 19.685 214.218 19.2732C213.505 18.8613 212.951 18.2848 212.555 17.5435C212.159 16.8022 211.922 15.9785 211.922 15.0725C211.922 14.1665 212.159 13.3428 212.555 12.6015C212.951 11.8602 213.505 11.2837 214.218 10.8718C214.93 10.46 215.722 10.2129 216.592 10.2129C217.463 10.2129 218.255 10.3776 218.967 10.8718ZM218.334 18.2024C218.809 17.8729 219.284 17.4611 219.521 16.8845C219.838 16.308 219.996 15.7314 219.996 14.9901C219.996 14.3312 219.838 13.6723 219.521 13.0957C219.205 12.5191 218.809 12.1073 218.334 11.7778C217.859 11.4484 217.226 11.2837 216.592 11.2837C215.959 11.2837 215.405 11.4484 214.851 11.7778C214.297 12.1073 213.901 12.5191 213.663 13.0957C213.347 13.6723 213.188 14.2488 213.188 14.9901C213.188 15.6491 213.347 16.308 213.663 16.8845C213.98 17.4611 214.376 17.8729 214.851 18.2024C215.405 18.5319 215.959 18.6966 216.592 18.6966C217.226 18.6966 217.859 18.5319 218.334 18.2024Z" fill="white"/>
<path d="M224.11 18.9445C223.714 18.3679 223.477 17.6266 223.477 16.803V6.83666C223.477 6.67193 223.556 6.5072 223.635 6.34247C223.793 6.2601 223.872 6.17773 224.11 6.17773C224.268 6.17773 224.426 6.2601 224.585 6.34247C224.664 6.42483 224.743 6.58957 224.743 6.83666V16.803C224.743 17.2972 224.822 17.709 225.06 18.0385C225.218 18.3679 225.535 18.5327 225.772 18.5327H226.168C226.326 18.5327 226.485 18.615 226.564 18.6974C226.643 18.7798 226.722 18.9445 226.722 19.1916C226.722 19.3563 226.643 19.5211 226.485 19.6858C226.326 19.7682 226.168 19.8505 225.93 19.8505H225.693C225.06 19.8505 224.506 19.5211 224.11 18.9445Z" fill="white"/>
<path d="M47.8186 0C42.7524 0 37.9236 3.21228 34.3615 8.73081L26.8413 19.356C23.675 24.4627 19.1629 27.3456 14.4925 27.3456C7.60561 27.3456 1.9853 21.4976 1.9853 14.3317C1.9853 13.7551 1.9853 13.1786 2.06446 12.6844H29.6119C29.6911 12.6844 29.8494 12.6844 29.9286 12.602C30.2452 12.4373 30.3244 12.0255 30.0869 11.696C27.2371 7.33059 21.4585 0 14.4925 0C6.89318 0 0.71875 6.42456 0.71875 14.3317C0.71875 22.2389 6.89318 28.6634 14.4925 28.6634C19.5587 28.6634 24.4666 25.5335 27.8704 20.0973L35.3905 9.47211C38.6361 4.28304 43.1482 1.31786 47.7394 1.31786C54.6263 1.31786 60.2466 7.16585 60.2466 14.3317C60.2466 21.4976 54.6263 27.3456 47.7394 27.3456C41.6441 27.3456 36.2613 20.8386 33.649 16.9674C33.4116 16.638 33.0949 16.638 32.7783 16.8027C32.4617 17.0498 32.4617 17.3793 32.62 17.7087C35.3905 21.7447 41.09 28.5811 47.7394 28.5811C55.3387 28.5811 61.5131 22.1565 61.5131 14.2493C61.5923 6.42456 55.4179 0 47.8186 0ZM14.4925 1.31786C17.2631 1.31786 20.192 2.71808 23.2 5.3538C25.3373 7.24822 27.0788 9.55447 28.3454 11.3665H2.30194C3.56849 5.6009 8.55553 1.31786 14.4925 1.31786Z" fill="white"/>
</svg>
