<svg width="246" height="30" viewBox="0 0 246 30" fill="none" xmlns="http://www.w3.org/2000/svg">
<path d="M83.3245 11.2646C84.0124 11.6946 84.5284 12.2965 84.9583 12.9844C85.3023 13.7583 85.5603 14.5322 85.5603 15.4781C85.5603 15.6501 85.4743 15.8221 85.3883 15.9081C85.3023 15.9941 85.1303 16.08 84.9583 16.08H77.6492C77.7352 17.1119 78.1652 17.8858 78.8531 18.4877C79.541 19.0897 80.4009 19.4336 81.4328 19.4336C81.8627 19.4336 82.2927 19.3476 82.7226 19.1757C83.1525 19.0037 83.4965 18.8317 83.7545 18.5737C83.9265 18.4877 84.0984 18.4018 84.2704 18.4018C84.4424 18.4018 84.5284 18.4877 84.7004 18.5737C84.8723 18.7457 84.9583 18.9177 84.9583 19.0897C84.9583 19.2617 84.8723 19.3476 84.7863 19.5196C84.3564 19.8636 83.8405 20.1215 83.2385 20.3795C82.6366 20.6375 82.0347 20.7235 81.4328 20.7235C80.4869 20.7235 79.627 20.4655 78.8531 20.0356C78.0792 19.6056 77.4772 19.0037 77.0473 18.2298C76.6173 17.4559 76.3594 16.596 76.3594 15.6501C76.3594 14.7042 76.5314 13.7583 76.9613 12.9844C77.3912 12.2105 77.9072 11.6086 78.6811 11.1786C79.369 10.7487 80.2289 10.4907 81.1748 10.4907C81.8627 10.6627 82.6366 10.8347 83.3245 11.2646ZM78.6811 12.7265C78.0792 13.3284 77.7352 14.0163 77.5632 14.9622H84.2704C84.1844 14.0163 83.8405 13.2424 83.2385 12.7265C82.6366 12.1245 81.9487 11.8666 81.0028 11.8666C80.0569 11.8666 79.283 12.2105 78.6811 12.7265Z" fill="#343D46"/>
<path d="M95.7089 11.3505C95.7089 11.4365 95.7089 11.5225 95.6229 11.6085L91.6674 20.2074C91.4954 20.5514 91.2375 20.7234 90.9795 20.7234C90.7215 20.7234 90.4635 20.5514 90.2916 20.2074L86.2501 11.6085C86.2501 11.5225 86.1641 11.4365 86.1641 11.3505C86.1641 11.0925 86.336 10.9206 86.594 10.7486C86.68 10.6626 86.766 10.6626 86.852 10.6626C86.938 10.6626 87.11 10.6626 87.1959 10.7486C87.2819 10.8346 87.3679 10.9206 87.4539 11.0066L90.9795 18.5736L94.4191 11.0066C94.5051 10.9206 94.5051 10.7486 94.677 10.7486C94.763 10.6626 94.935 10.6626 95.021 10.6626C95.107 10.6626 95.193 10.6626 95.279 10.7486C95.5369 10.9206 95.7089 11.0925 95.7089 11.3505Z" fill="#343D46"/>
<path d="M103.793 11.2646C104.481 11.6946 104.997 12.2965 105.427 12.9844C105.771 13.7583 106.029 14.5322 106.029 15.4781C106.029 15.6501 105.943 15.8221 105.857 15.9081C105.771 15.9941 105.599 16.08 105.427 16.08H98.118C98.204 17.1119 98.6339 17.8858 99.3218 18.4877C100.01 19.0897 100.87 19.4336 101.901 19.4336C102.331 19.4336 102.761 19.3476 103.191 19.1757C103.621 19.0037 103.965 18.8317 104.223 18.5737C104.395 18.4877 104.567 18.4018 104.739 18.4018C104.911 18.4018 104.997 18.4877 105.169 18.5737C105.341 18.7457 105.427 18.9177 105.427 19.0897C105.427 19.2617 105.341 19.3476 105.255 19.5196C104.825 19.8636 104.309 20.1215 103.707 20.3795C103.105 20.6375 102.503 20.7235 101.901 20.7235C100.956 20.7235 100.096 20.4655 99.3218 20.0356C98.5479 19.6056 97.946 19.0037 97.516 18.2298C97.0861 17.4559 96.8281 16.596 96.8281 15.6501C96.8281 14.7042 97.0001 13.7583 97.4301 12.9844C97.86 12.2105 98.3759 11.6086 99.1498 11.1786C99.8378 10.7487 100.698 10.4907 101.644 10.4907C102.245 10.6627 103.019 10.8347 103.793 11.2646ZM99.0638 12.7265C98.4619 13.3284 98.118 14.0163 97.946 14.9622H104.567C104.481 14.0163 104.137 13.2424 103.535 12.7265C102.933 12.1245 102.245 11.8666 101.3 11.8666C100.44 11.8666 99.6658 12.2105 99.0638 12.7265Z" fill="#343D46"/>
<path d="M114.019 10.8346C114.277 11.0066 114.449 11.1786 114.449 11.4366C114.449 11.5225 114.449 11.5225 114.449 11.6085C114.363 11.7805 114.363 11.8665 114.191 11.9525C114.105 12.0385 113.933 12.0385 113.761 12.0385C113.675 12.0385 113.503 12.0385 113.159 12.0385C113.073 12.0385 112.901 12.0385 112.729 12.0385C111.783 12.0385 111.095 12.2965 110.494 12.7264C109.892 13.2423 109.634 13.8443 109.634 14.6182V20.0355C109.634 20.2935 109.548 20.4655 109.462 20.5514C109.376 20.6374 109.204 20.7234 108.946 20.7234C108.688 20.7234 108.516 20.6374 108.43 20.5514C108.344 20.4655 108.258 20.2935 108.258 20.0355V11.4366C108.258 11.1786 108.344 11.0066 108.43 10.9206C108.516 10.8346 108.688 10.7486 108.946 10.7486C109.204 10.7486 109.376 10.8346 109.462 10.9206C109.548 11.0066 109.634 11.1786 109.634 11.4366V12.2105C109.978 11.6945 110.408 11.2646 111.009 11.0066C111.525 10.7486 112.127 10.5767 112.815 10.5767C113.331 10.6626 113.675 10.6626 114.019 10.8346Z" fill="#343D46"/>
<path d="M124.857 11.3505C124.857 11.4365 124.857 11.6084 124.771 11.6944L118.838 24.6788C118.752 24.9368 118.58 25.1088 118.322 25.1088C118.236 25.1088 118.064 25.1088 117.978 25.0228C117.72 24.9368 117.548 24.7648 117.548 24.5069C117.548 24.4209 117.548 24.2489 117.634 24.1629L119.44 20.2074L115.398 11.7804C115.312 11.6944 115.313 11.6084 115.313 11.4365C115.313 11.1785 115.484 11.0065 115.742 10.9205C115.828 10.8345 115.914 10.8345 116.086 10.8345C116.344 10.8345 116.516 10.9205 116.602 11.1785L120.128 18.6596L123.482 11.1785C123.568 10.9205 123.825 10.7485 123.997 10.7485C124.083 10.7485 124.255 10.7485 124.341 10.8345C124.685 10.9205 124.857 11.0925 124.857 11.3505Z" fill="#343D46"/>
<path d="M131.48 19.5194C131.566 19.6914 131.652 19.8634 131.652 20.0354C131.652 20.2073 131.566 20.3793 131.394 20.5513C131.222 20.7233 131.05 20.7233 130.878 20.7233H130.534C129.932 20.7233 129.33 20.5513 128.815 20.2933C128.299 19.9494 127.869 19.6054 127.611 19.0035C127.353 18.4876 127.181 17.8856 127.181 17.1977V12.3823H125.977C125.805 12.3823 125.633 12.2963 125.547 12.2103C125.461 12.1243 125.375 11.9524 125.375 11.7804C125.375 11.6084 125.461 11.4364 125.547 11.3504C125.633 11.2644 125.805 11.1785 125.977 11.1785H127.181V8.25481C127.181 8.08283 127.267 7.91085 127.353 7.73887C127.439 7.56689 127.611 7.56689 127.869 7.56689C128.041 7.56689 128.213 7.65288 128.385 7.73887C128.557 7.91085 128.557 8.08283 128.557 8.25481V11.0925H130.62C130.792 11.0925 130.964 11.1785 131.05 11.2644C131.136 11.3504 131.222 11.5224 131.222 11.6944C131.222 11.8664 131.136 12.0383 131.05 12.1243C130.964 12.2103 130.792 12.2963 130.62 12.2963H128.557V17.1977C128.557 17.7996 128.729 18.3156 129.073 18.7455C129.416 19.1755 129.932 19.3475 130.448 19.3475H130.964C131.136 19.2615 131.308 19.3475 131.48 19.5194Z" fill="#343D46"/>
<path d="M140.934 11.1786C141.622 11.5225 142.138 12.0385 142.568 12.8124C142.998 13.5003 143.17 14.3602 143.17 15.3061V20.0355C143.17 20.2075 143.084 20.3795 142.998 20.5514C142.826 20.7234 142.74 20.7234 142.482 20.7234C142.31 20.7234 142.138 20.6374 141.966 20.5514C141.794 20.3795 141.794 20.2935 141.794 20.0355V15.3061C141.794 14.1882 141.536 13.4143 140.934 12.8124C140.332 12.2105 139.558 11.9525 138.612 11.9525C138.01 11.9525 137.494 12.0385 136.978 12.2965C136.462 12.5544 136.118 12.8124 135.86 13.2423C135.603 13.6723 135.431 14.1022 135.431 14.6182V20.0355C135.431 20.2075 135.345 20.3795 135.259 20.5514C135.173 20.6374 135.001 20.7234 134.743 20.7234C134.571 20.7234 134.399 20.6374 134.227 20.5514C134.055 20.4655 134.055 20.2935 134.055 20.0355V7.22307C134.055 7.05109 134.141 6.87911 134.227 6.70714C134.399 6.53516 134.571 6.53516 134.743 6.53516C134.915 6.53516 135.087 6.62115 135.259 6.70714C135.345 6.87911 135.431 7.05109 135.431 7.22307V12.0385C135.86 11.6085 136.29 11.2646 136.892 11.0066C137.494 10.7486 138.096 10.6627 138.784 10.6627C139.472 10.6627 140.246 10.8346 140.934 11.1786Z" fill="#343D46"/>
<path d="M146.524 8.51319C146.352 8.34122 146.266 8.08325 146.266 7.82528C146.266 7.56731 146.352 7.30934 146.524 7.13736C146.696 6.96538 146.954 6.87939 147.211 6.87939C147.469 6.87939 147.727 6.96538 147.899 7.13736C148.071 7.30934 148.157 7.56731 148.157 7.82528C148.157 8.08325 148.071 8.34122 147.899 8.51319C147.727 8.68517 147.469 8.77116 147.211 8.77116C146.954 8.85715 146.696 8.77116 146.524 8.51319ZM146.696 20.4657C146.524 20.2938 146.524 20.1218 146.524 19.9498V11.4368C146.524 11.2649 146.61 11.0929 146.696 10.9209C146.868 10.7489 147.04 10.7489 147.211 10.7489C147.383 10.7489 147.555 10.8349 147.727 10.9209C147.813 11.0929 147.899 11.2649 147.899 11.4368V19.9498C147.899 20.1218 147.813 20.2938 147.727 20.4657C147.641 20.6377 147.469 20.6377 147.211 20.6377C147.04 20.7237 146.868 20.6377 146.696 20.4657Z" fill="#343D46"/>
<path d="M158.481 11.1785C159.169 11.5225 159.685 12.0384 160.115 12.8123C160.544 13.5003 160.716 14.3601 160.716 15.306V20.0355C160.716 20.2074 160.63 20.3794 160.544 20.5514C160.372 20.7234 160.287 20.7234 160.029 20.7234C159.857 20.7234 159.685 20.6374 159.513 20.5514C159.341 20.3794 159.341 20.2934 159.341 20.0355V15.306C159.341 14.1882 159.083 13.4143 158.481 12.8123C157.879 12.2104 157.105 11.9524 156.159 11.9524C155.557 11.9524 155.041 12.0384 154.525 12.2964C154.009 12.5544 153.665 12.8123 153.407 13.2423C153.149 13.6722 152.977 14.1022 152.977 14.6181V20.0355C152.977 20.2074 152.891 20.3794 152.805 20.5514C152.719 20.6374 152.547 20.7234 152.289 20.7234C152.118 20.7234 151.946 20.6374 151.774 20.5514C151.602 20.4654 151.602 20.2934 151.602 20.0355V11.5225C151.602 11.3505 151.688 11.1785 151.774 11.0066C151.946 10.8346 152.118 10.8346 152.289 10.8346C152.461 10.8346 152.633 10.9206 152.805 11.0066C152.891 11.1785 152.977 11.3505 152.977 11.5225V12.0384C153.407 11.6085 153.837 11.2645 154.439 11.0066C155.041 10.7486 155.643 10.6626 156.331 10.6626C157.019 10.6626 157.793 10.8346 158.481 11.1785Z" fill="#343D46"/>
<path d="M170.95 11.2646C171.724 11.6945 172.326 12.2964 172.756 13.0704C173.186 13.8443 173.444 14.7042 173.444 15.736V19.4336C173.444 20.3795 173.186 21.2394 172.756 22.0993C172.326 22.8732 171.724 23.4751 170.95 23.991C170.176 24.421 169.316 24.6789 168.37 24.6789C167.424 24.6789 166.564 24.507 165.877 24.163C165.189 23.819 164.501 23.3031 164.071 22.7012C163.985 22.6152 163.899 22.4432 163.899 22.2712C163.899 22.0993 163.985 21.9273 164.157 21.8413C164.243 21.7553 164.415 21.7553 164.587 21.7553C164.673 21.7553 164.845 21.7553 164.931 21.8413C165.017 21.9273 165.103 21.9273 165.189 22.0133C165.533 22.4432 166.049 22.8732 166.564 23.0451C167.08 23.3031 167.768 23.3891 168.456 23.3891C169.144 23.3891 169.746 23.2171 170.262 22.8732C170.778 22.5292 171.208 22.0993 171.552 21.4973C171.896 20.8954 171.982 20.2075 171.982 19.4336V18.5737C171.638 19.2616 171.122 19.7775 170.434 20.2075C169.746 20.6374 168.972 20.8094 168.198 20.8094C167.252 20.8094 166.393 20.5514 165.619 20.1215C164.845 19.6915 164.329 19.0896 163.899 18.3157C163.469 17.5418 163.297 16.6819 163.297 15.736C163.297 14.7901 163.555 13.8443 163.985 13.0704C164.415 12.2964 165.017 11.6945 165.791 11.2646C166.564 10.8346 167.424 10.5767 168.37 10.5767C169.316 10.6626 170.176 10.8346 170.95 11.2646ZM170.176 19.0036C170.692 18.6597 171.208 18.2297 171.466 17.6278C171.81 17.0259 171.896 16.4239 171.896 15.65C171.896 14.9621 171.724 14.2742 171.466 13.6723C171.122 13.0704 170.692 12.6404 170.176 12.2965C169.66 11.9525 168.972 11.7805 168.284 11.7805C167.596 11.7805 166.908 11.9525 166.393 12.2965C165.877 12.6404 165.361 13.0704 165.103 13.6723C164.759 14.2742 164.673 14.8761 164.673 15.65C164.673 16.338 164.845 17.0259 165.103 17.6278C165.447 18.2297 165.877 18.6597 166.393 19.0036C166.908 19.3476 167.596 19.5196 168.284 19.5196C168.972 19.5196 169.66 19.3476 170.176 19.0036Z" fill="#343D46"/>
<path d="M183.33 20.1214C182.556 19.6915 181.954 19.0896 181.524 18.3157C181.094 17.5418 180.836 16.6819 180.836 15.736C180.836 14.7901 181.094 13.9302 181.524 13.1563C181.954 12.3824 182.556 11.7805 183.33 11.3505C184.104 10.9206 184.963 10.6626 185.909 10.6626C186.855 10.6626 187.715 10.9206 188.489 11.3505C189.263 11.7805 189.865 12.3824 190.295 13.1563C190.725 13.9302 190.983 14.7901 190.983 15.736C190.983 16.6819 190.725 17.5418 190.295 18.3157C189.865 19.0896 189.263 19.6915 188.489 20.1214C187.715 20.5514 186.855 20.8094 185.909 20.8094C184.963 20.8094 184.104 20.5514 183.33 20.1214ZM187.801 19.0036C188.317 18.6596 188.833 18.2297 189.091 17.6277C189.435 17.0258 189.521 16.4239 189.521 15.65C189.521 14.9621 189.349 14.2742 189.091 13.6722C188.747 13.0703 188.317 12.6404 187.801 12.2964C187.285 11.9524 186.597 11.7805 185.909 11.7805C185.221 11.7805 184.619 11.9524 184.018 12.2964C183.416 12.6404 182.986 13.0703 182.728 13.6722C182.384 14.2742 182.212 14.8761 182.212 15.65C182.212 16.3379 182.384 17.0258 182.728 17.6277C183.072 18.2297 183.502 18.6596 184.018 19.0036C184.619 19.3475 185.221 19.5195 185.909 19.5195C186.683 19.5195 187.285 19.3475 187.801 19.0036Z" fill="#343D46"/>
<path d="M201.387 11.3505C202.161 11.7805 202.763 12.3824 203.193 13.1563C203.623 13.9302 203.881 14.7901 203.881 15.736C203.881 16.6819 203.623 17.5418 203.193 18.3157C202.763 19.0896 202.161 19.6915 201.387 20.1214C200.614 20.5514 199.84 20.8094 198.894 20.8094C198.12 20.8094 197.346 20.6374 196.744 20.2934C196.056 19.9495 195.54 19.5195 195.11 18.9176V24.2489C195.11 24.4209 195.024 24.5929 194.938 24.7649C194.766 24.9369 194.594 24.9369 194.422 24.9369C194.25 24.9369 194.078 24.8509 193.906 24.7649C193.82 24.5929 193.734 24.4209 193.734 24.2489V20.2074C193.734 20.2074 193.734 20.1214 193.734 20.0355V15.736C193.734 14.7901 193.992 13.9302 194.422 13.1563C194.852 12.3824 195.454 11.7805 196.228 11.3505C197.002 10.9206 197.862 10.6626 198.808 10.6626C199.754 10.6626 200.614 10.8346 201.387 11.3505ZM200.7 19.0036C201.301 18.6596 201.731 18.2297 201.989 17.6277C202.333 17.0258 202.505 16.4239 202.505 15.65C202.505 14.9621 202.333 14.2742 201.989 13.6722C201.645 13.0703 201.215 12.6404 200.7 12.2964C200.098 11.9524 199.496 11.7805 198.808 11.7805C198.12 11.7805 197.518 11.9524 196.916 12.2964C196.4 12.6404 195.884 13.0703 195.626 13.6722C195.282 14.2742 195.11 14.8761 195.11 15.65C195.11 15.822 195.11 15.9939 195.11 16.0799V16.1659C195.196 17.1118 195.626 17.8857 196.314 18.4876C197.002 19.0896 197.776 19.4335 198.722 19.4335C199.496 19.5195 200.098 19.3475 200.7 19.0036Z" fill="#343D46"/>
<path d="M211.449 19.5194C211.535 19.6914 211.621 19.8634 211.621 20.0354C211.621 20.2073 211.535 20.3793 211.363 20.5513C211.191 20.7233 211.019 20.7233 210.847 20.7233H210.503C209.901 20.7233 209.299 20.5513 208.783 20.2933C208.267 19.9494 207.837 19.6054 207.579 19.0035C207.322 18.4876 207.15 17.8856 207.15 17.1977V12.3823H205.946C205.774 12.3823 205.602 12.2963 205.516 12.2103C205.43 12.1243 205.344 11.9524 205.344 11.7804C205.344 11.6084 205.43 11.4364 205.516 11.3504C205.602 11.2644 205.774 11.1785 205.946 11.1785H207.15V8.25481C207.15 8.08283 207.236 7.91085 207.322 7.73887C207.408 7.56689 207.579 7.56689 207.837 7.56689C208.009 7.56689 208.181 7.65288 208.353 7.73887C208.525 7.91085 208.525 8.08283 208.525 8.25481V11.0925H210.589C210.761 11.0925 210.933 11.1785 211.019 11.2644C211.105 11.3504 211.191 11.5224 211.191 11.6944C211.191 11.8664 211.105 12.0383 211.019 12.1243C210.933 12.2103 210.761 12.2963 210.589 12.2963H208.525V17.1977C208.525 17.7996 208.697 18.3156 209.041 18.7455C209.385 19.1755 209.901 19.3475 210.417 19.3475H210.933C211.191 19.2615 211.363 19.3475 211.449 19.5194Z" fill="#343D46"/>
<path d="M214.203 8.51319C214.031 8.34122 213.945 8.08325 213.945 7.82528C213.945 7.56731 214.031 7.30934 214.203 7.13736C214.375 6.96538 214.633 6.87939 214.891 6.87939C215.149 6.87939 215.407 6.96538 215.579 7.13736C215.751 7.30934 215.837 7.56731 215.837 7.82528C215.837 8.08325 215.751 8.34122 215.579 8.51319C215.407 8.68517 215.149 8.77116 214.891 8.77116C214.633 8.85715 214.375 8.77116 214.203 8.51319ZM214.375 20.4657C214.203 20.2938 214.203 20.1218 214.203 19.9498V11.4368C214.203 11.2649 214.289 11.0929 214.375 10.9209C214.547 10.7489 214.719 10.7489 214.891 10.7489C215.063 10.7489 215.235 10.8349 215.407 10.9209C215.493 11.0929 215.579 11.2649 215.579 11.4368V19.9498C215.579 20.1218 215.493 20.2938 215.407 20.4657C215.321 20.6377 215.149 20.6377 214.891 20.6377C214.719 20.7237 214.547 20.6377 214.375 20.4657Z" fill="#343D46"/>
<path d="M221.08 20.1214C220.306 19.6915 219.704 19.0896 219.274 18.3157C218.844 17.5418 218.586 16.6819 218.586 15.736C218.586 14.7901 218.758 13.9302 219.188 13.1563C219.618 12.3824 220.134 11.7805 220.908 11.3505C221.596 10.9206 222.455 10.6626 223.401 10.6626C224.949 10.6626 226.153 11.2645 227.099 12.3824C227.185 12.4684 227.271 12.6404 227.271 12.7263C227.271 12.8983 227.185 13.0703 226.927 13.2423C226.841 13.3283 226.669 13.3283 226.583 13.3283C226.411 13.3283 226.239 13.2423 226.067 13.0703C225.723 12.6404 225.293 12.3824 224.863 12.2104C224.433 12.0384 223.917 11.9524 223.401 11.9524C222.713 11.9524 222.112 12.1244 221.596 12.4684C221.08 12.8123 220.65 13.2423 220.392 13.8442C220.134 14.4461 219.962 15.0481 219.962 15.822C219.962 16.5099 220.134 17.1978 220.392 17.7997C220.736 18.4017 221.08 18.8316 221.682 19.1756C222.197 19.5195 222.885 19.6915 223.573 19.6915C224.519 19.6915 225.293 19.4335 225.895 18.9176C226.067 18.7456 226.239 18.7456 226.411 18.7456C226.583 18.7456 226.669 18.8316 226.841 18.9176C227.013 19.0896 227.099 19.2615 227.099 19.4335C227.099 19.6055 227.013 19.6915 226.927 19.8635C226.067 20.6374 224.949 21.0673 223.659 21.0673C222.627 20.8094 221.768 20.5514 221.08 20.1214Z" fill="#343D46"/>
<path d="M237.075 11.3505C237.849 11.7805 238.451 12.3824 238.881 13.1563C239.311 13.9302 239.569 14.7901 239.569 15.736V20.0355C239.569 20.2074 239.483 20.3794 239.397 20.5514C239.225 20.7234 239.053 20.7234 238.881 20.7234C238.709 20.7234 238.537 20.6374 238.365 20.5514C238.193 20.4654 238.193 20.2934 238.193 20.0355V18.9176C237.763 19.5195 237.247 19.9495 236.559 20.2934C235.871 20.6374 235.183 20.8094 234.409 20.8094C233.463 20.8094 232.689 20.5514 231.916 20.1214C231.142 19.6915 230.54 19.0896 230.11 18.3157C229.68 17.5418 229.422 16.6819 229.422 15.736C229.422 14.7901 229.68 13.9302 230.11 13.1563C230.54 12.3824 231.142 11.7805 231.916 11.3505C232.689 10.9206 233.549 10.6626 234.495 10.6626C235.441 10.6626 236.301 10.8346 237.075 11.3505ZM236.387 19.0036C236.903 18.6596 237.419 18.2297 237.677 17.6277C238.021 17.0258 238.193 16.4239 238.193 15.65C238.193 14.9621 238.021 14.2742 237.677 13.6722C237.333 13.0703 236.903 12.6404 236.387 12.2964C235.871 11.9524 235.183 11.7805 234.495 11.7805C233.807 11.7805 233.205 11.9524 232.603 12.2964C232.002 12.6404 231.572 13.0703 231.314 13.6722C230.97 14.2742 230.798 14.8761 230.798 15.65C230.798 16.3379 230.97 17.0258 231.314 17.6277C231.658 18.2297 232.088 18.6596 232.603 19.0036C233.205 19.3475 233.807 19.5195 234.495 19.5195C235.183 19.5195 235.871 19.3475 236.387 19.0036Z" fill="#343D46"/>
<path d="M242.664 19.7776C242.235 19.1757 241.977 18.4018 241.977 17.5419V7.13713C241.977 6.96516 242.063 6.79318 242.149 6.6212C242.321 6.53521 242.407 6.44922 242.664 6.44922C242.836 6.44922 243.008 6.53521 243.18 6.6212C243.266 6.70719 243.352 6.87917 243.352 7.13713V17.5419C243.352 18.0578 243.438 18.4877 243.696 18.8317C243.868 19.1757 244.212 19.3476 244.47 19.3476H244.9C245.072 19.3476 245.244 19.4336 245.33 19.5196C245.416 19.6056 245.502 19.7776 245.502 20.0356C245.502 20.2075 245.416 20.3795 245.244 20.5515C245.072 20.6375 244.9 20.7235 244.642 20.7235H244.384C243.696 20.7235 243.094 20.3795 242.664 19.7776Z" fill="#343D46"/>
<path d="M51.1637 0C45.6604 0 40.4151 3.35359 36.5455 9.11489L28.3765 20.2075C24.937 25.5389 20.0356 28.5485 14.9622 28.5485C7.48109 28.5485 1.37583 22.4433 1.37583 14.9622C1.37583 14.3602 1.37583 13.7583 1.46182 13.2424H31.3862C31.4722 13.2424 31.6441 13.2424 31.7301 13.1564C32.0741 12.9844 32.1601 12.5545 31.9021 12.2105C28.8065 7.65306 22.5292 0 14.9622 0C6.70718 0 0 6.70718 0 14.9622C0 23.2172 6.70718 29.9243 14.9622 29.9243C20.4655 29.9243 25.7968 26.6567 29.4944 20.9814L37.6634 9.88879C41.189 4.47145 46.0904 1.37583 51.0778 1.37583C58.5588 1.37583 64.6641 7.48109 64.6641 14.9622C64.6641 22.4433 58.5588 28.5485 51.0778 28.5485C44.4566 28.5485 38.6093 21.7553 35.7716 17.7138C35.5137 17.3699 35.1697 17.3699 34.8257 17.5419C34.4818 17.7998 34.4818 18.1438 34.6538 18.4877C37.6634 22.7012 43.8546 29.8384 51.0778 29.8384C59.3327 29.8384 66.0399 23.1312 66.0399 14.8762C66.1259 6.70718 59.4187 0 51.1637 0ZM14.9622 1.37583C17.9718 1.37583 21.1534 2.83765 24.421 5.58932C26.7427 7.56708 28.6345 9.97478 30.0103 11.8666H1.71979C3.09562 5.84729 8.51296 1.37583 14.9622 1.37583Z" fill="#343D46"/>
</svg>
