<svg width="176" height="22" viewBox="0 0 176 22" fill="none" xmlns="http://www.w3.org/2000/svg">
<path d="M59.5651 8.05336C60.0569 8.36072 60.4257 8.79102 60.7331 9.28278C60.9789 9.83602 61.1634 10.3893 61.1634 11.0654C61.1634 11.1884 61.1019 11.3113 61.0404 11.3728C60.9789 11.4343 60.856 11.4957 60.7331 11.4957H55.508C55.5695 12.2334 55.8768 12.7866 56.3686 13.2169C56.8604 13.6472 57.4751 13.8931 58.2127 13.8931C58.5201 13.8931 58.8274 13.8316 59.1348 13.7087C59.4422 13.5858 59.688 13.4628 59.8725 13.2784C59.9954 13.2169 60.1183 13.1555 60.2413 13.1555C60.3642 13.1555 60.4257 13.2169 60.5486 13.2784C60.6716 13.4013 60.7331 13.5243 60.7331 13.6472C60.7331 13.7702 60.6716 13.8316 60.6101 13.9546C60.3028 14.2005 59.9339 14.3849 59.5036 14.5693C59.0733 14.7537 58.643 14.8152 58.2127 14.8152C57.5365 14.8152 56.9218 14.6308 56.3686 14.3234C55.8154 14.0161 55.3851 13.5858 55.0777 13.0325C54.7703 12.4793 54.5859 11.8646 54.5859 11.1884C54.5859 10.5122 54.7089 9.83602 55.0162 9.28278C55.3236 8.72954 55.6924 8.29925 56.2457 7.99189C56.7374 7.68454 57.3521 7.50012 58.0283 7.50012C58.5201 7.62306 59.0733 7.74601 59.5651 8.05336ZM56.2457 9.09837C55.8154 9.52867 55.5695 10.0204 55.4465 10.6966H60.2413C60.1798 10.0204 59.9339 9.4672 59.5036 9.09837C59.0733 8.66807 58.5816 8.48366 57.9054 8.48366C57.2292 8.48366 56.676 8.72954 56.2457 9.09837Z" fill="white"/>
<path d="M68.417 8.11408C68.417 8.17555 68.417 8.23703 68.3556 8.2985L65.5279 14.4456C65.405 14.6915 65.2206 14.8144 65.0361 14.8144C64.8517 14.8144 64.6673 14.6915 64.5444 14.4456L61.6552 8.2985C61.6552 8.23703 61.5938 8.17555 61.5938 8.11408C61.5938 7.92967 61.7167 7.80673 61.9011 7.68379C61.9626 7.62231 62.024 7.62231 62.0855 7.62231C62.147 7.62231 62.2699 7.62231 62.3314 7.68379C62.3929 7.74526 62.4543 7.80673 62.5158 7.8682L65.0361 13.2777L67.495 7.8682C67.5565 7.80673 67.5565 7.68379 67.6794 7.68379C67.7409 7.62231 67.8638 7.62231 67.9253 7.62231C67.9867 7.62231 68.0482 7.62231 68.1097 7.68379C68.2941 7.80673 68.417 7.92967 68.417 8.11408Z" fill="white"/>
<path d="M74.194 8.05336C74.6858 8.36072 75.0546 8.79102 75.3619 9.28278C75.6078 9.83602 75.7922 10.3893 75.7922 11.0654C75.7922 11.1884 75.7308 11.3113 75.6693 11.3728C75.6078 11.4343 75.4849 11.4957 75.3619 11.4957H70.1369C70.1984 12.2334 70.5057 12.7866 70.9975 13.2169C71.4893 13.6472 72.104 13.8931 72.8416 13.8931C73.149 13.8931 73.4563 13.8316 73.7637 13.7087C74.0711 13.5858 74.3169 13.4628 74.5013 13.2784C74.6243 13.2169 74.7472 13.1555 74.8702 13.1555C74.9931 13.1555 75.0546 13.2169 75.1775 13.2784C75.3005 13.4013 75.3619 13.5243 75.3619 13.6472C75.3619 13.7702 75.3005 13.8316 75.239 13.9546C74.9316 14.2005 74.5628 14.3849 74.1325 14.5693C73.7022 14.7537 73.2719 14.8152 72.8416 14.8152C72.1655 14.8152 71.5507 14.6308 70.9975 14.3234C70.4443 14.0161 70.014 13.5858 69.7066 13.0325C69.3993 12.4793 69.2148 11.8646 69.2148 11.1884C69.2148 10.5122 69.3378 9.83602 69.6451 9.28278C69.9525 8.72954 70.3213 8.29925 70.8746 7.99189C71.3663 7.68454 71.981 7.50012 72.6572 7.50012C73.0875 7.62306 73.6408 7.74601 74.194 8.05336ZM70.8131 9.09837C70.3828 9.52867 70.1369 10.0204 70.014 10.6966H74.7472C74.6858 10.0204 74.4399 9.4672 74.0096 9.09837C73.5793 8.66807 73.0875 8.48366 72.4113 8.48366C71.7966 8.48366 71.2434 8.72954 70.8131 9.09837Z" fill="white"/>
<path d="M81.5092 7.74459C81.6936 7.86754 81.8166 7.99048 81.8166 8.17489C81.8166 8.23636 81.8166 8.23636 81.8166 8.29783C81.7551 8.42078 81.7551 8.48225 81.6321 8.54372C81.5707 8.60519 81.4477 8.60519 81.3248 8.60519C81.2633 8.60519 81.1404 8.60519 80.8945 8.60519C80.833 8.60519 80.7101 8.60519 80.5871 8.60519C79.9109 8.60519 79.4192 8.7896 78.9889 9.09696C78.5586 9.46578 78.3742 9.89608 78.3742 10.4493V14.322C78.3742 14.5064 78.3127 14.6294 78.2512 14.6908C78.1898 14.7523 78.0668 14.8138 77.8824 14.8138C77.698 14.8138 77.575 14.7523 77.5136 14.6908C77.4521 14.6294 77.3906 14.5064 77.3906 14.322V8.17489C77.3906 7.99048 77.4521 7.86754 77.5136 7.80606C77.575 7.74459 77.698 7.68312 77.8824 7.68312C78.0668 7.68312 78.1898 7.74459 78.2512 7.80606C78.3127 7.86754 78.3742 7.99048 78.3742 8.17489V8.72813C78.62 8.3593 78.9274 8.05195 79.3577 7.86754C79.7265 7.68312 80.1568 7.56018 80.6486 7.56018C81.0174 7.62165 81.2633 7.62165 81.5092 7.74459Z" fill="white"/>
<path d="M89.2569 8.11475C89.2569 8.17622 89.2569 8.29916 89.1954 8.36063L84.9539 17.6428C84.8924 17.8272 84.7695 17.9501 84.5851 17.9501C84.5236 17.9501 84.4007 17.9501 84.3392 17.8887C84.1548 17.8272 84.0318 17.7042 84.0318 17.5198C84.0318 17.4584 84.0318 17.3354 84.0933 17.2739L85.3842 14.4463L82.4951 8.4221C82.4336 8.36063 82.4336 8.29916 82.4336 8.17622C82.4336 7.9918 82.5565 7.86886 82.7409 7.80739C82.8024 7.74592 82.8639 7.74592 82.9868 7.74592C83.1712 7.74592 83.2942 7.80739 83.3557 7.9918L85.876 13.3398L88.2734 7.9918C88.3348 7.80739 88.5192 7.68445 88.6422 7.68445C88.7036 7.68445 88.8266 7.68445 88.8881 7.74592C89.134 7.80739 89.2569 7.93033 89.2569 8.11475Z" fill="white"/>
<path d="M93.9894 13.9538C94.0509 14.0767 94.1124 14.1997 94.1124 14.3226C94.1124 14.4456 94.0509 14.5685 93.928 14.6914C93.805 14.8144 93.6821 14.8144 93.5591 14.8144H93.3132C92.883 14.8144 92.4527 14.6914 92.0838 14.507C91.715 14.2611 91.4076 14.0153 91.2232 13.585C91.0388 13.2161 90.9159 12.7858 90.9159 12.2941V8.85168H90.0553C89.9324 8.85168 89.8094 8.79021 89.7479 8.72874C89.6865 8.66727 89.625 8.54433 89.625 8.42138C89.625 8.29844 89.6865 8.1755 89.7479 8.11403C89.8094 8.05256 89.9324 7.99109 90.0553 7.99109H90.9159V5.90107C90.9159 5.77813 90.9774 5.65519 91.0388 5.53224C91.1003 5.4093 91.2232 5.4093 91.4076 5.4093C91.5306 5.4093 91.6535 5.47077 91.7765 5.53224C91.8994 5.65519 91.8994 5.77813 91.8994 5.90107V7.92962H93.3747C93.4977 7.92962 93.6206 7.99109 93.6821 8.05256C93.7435 8.11403 93.805 8.23697 93.805 8.35991C93.805 8.48286 93.7435 8.6058 93.6821 8.66727C93.6206 8.72874 93.4977 8.79021 93.3747 8.79021H91.8994V12.2941C91.8994 12.7244 92.0224 13.0932 92.2682 13.4005C92.5141 13.7079 92.8829 13.8308 93.2518 13.8308H93.6206C93.7435 13.7694 93.8665 13.8308 93.9894 13.9538Z" fill="white"/>
<path d="M100.75 7.99192C101.241 8.23781 101.61 8.60664 101.918 9.15988C102.225 9.65164 102.348 10.2664 102.348 10.9425V14.3234C102.348 14.4464 102.287 14.5693 102.225 14.6923C102.102 14.8152 102.041 14.8152 101.856 14.8152C101.733 14.8152 101.61 14.7537 101.487 14.6923C101.364 14.5693 101.364 14.5079 101.364 14.3234V10.9425C101.364 10.1434 101.18 9.59017 100.75 9.15988C100.319 8.72958 99.7662 8.54516 99.09 8.54516C98.6597 8.54516 98.2909 8.60664 97.9221 8.79105C97.5532 8.97546 97.3073 9.15988 97.1229 9.46723C96.9385 9.77459 96.8156 10.0819 96.8156 10.4508V14.3234C96.8156 14.4464 96.7541 14.5693 96.6926 14.6923C96.6312 14.7537 96.5082 14.8152 96.3238 14.8152C96.2009 14.8152 96.0779 14.7537 95.955 14.6923C95.832 14.6308 95.832 14.5079 95.832 14.3234V5.16425C95.832 5.04131 95.8935 4.91837 95.955 4.79543C96.0779 4.67249 96.2009 4.67249 96.3238 4.67249C96.4467 4.67249 96.5697 4.73396 96.6926 4.79543C96.7541 4.91837 96.8156 5.04131 96.8156 5.16425V8.60664C97.1229 8.29928 97.4303 8.0534 97.8606 7.86898C98.2909 7.68457 98.7212 7.6231 99.2129 7.6231C99.7047 7.6231 100.258 7.74604 100.75 7.99192Z" fill="white"/>
<path d="M104.747 6.08506C104.624 5.96212 104.562 5.77771 104.562 5.5933C104.562 5.40888 104.624 5.22447 104.747 5.10153C104.87 4.97859 105.054 4.91711 105.239 4.91711C105.423 4.91711 105.607 4.97859 105.73 5.10153C105.853 5.22447 105.915 5.40888 105.915 5.5933C105.915 5.77771 105.853 5.96212 105.73 6.08506C105.607 6.20801 105.423 6.26948 105.239 6.26948C105.054 6.33095 104.87 6.26948 104.747 6.08506ZM104.87 14.6295C104.747 14.5066 104.747 14.3837 104.747 14.2607V8.17508C104.747 8.05214 104.808 7.9292 104.87 7.80626C104.993 7.68331 105.116 7.68331 105.239 7.68331C105.362 7.68331 105.485 7.74478 105.607 7.80626C105.669 7.9292 105.73 8.05214 105.73 8.17508V14.2607C105.73 14.3837 105.669 14.5066 105.607 14.6295C105.546 14.7525 105.423 14.7525 105.239 14.7525C105.116 14.814 104.993 14.7525 104.87 14.6295Z" fill="white"/>
<path d="M113.293 7.99114C113.784 8.23703 114.153 8.60585 114.461 9.15909C114.768 9.65086 114.891 10.2656 114.891 10.9418V14.3227C114.891 14.4456 114.829 14.5686 114.768 14.6915C114.645 14.8144 114.584 14.8144 114.399 14.8144C114.276 14.8144 114.153 14.753 114.03 14.6915C113.907 14.5686 113.907 14.5071 113.907 14.3227V10.9418C113.907 10.1426 113.723 9.58939 113.293 9.15909C112.862 8.72879 112.309 8.54438 111.633 8.54438C111.203 8.54438 110.834 8.60585 110.465 8.79027C110.096 8.97468 109.85 9.15909 109.666 9.46645C109.481 9.7738 109.359 10.0812 109.359 10.45V14.3227C109.359 14.4456 109.297 14.5686 109.236 14.6915C109.174 14.753 109.051 14.8144 108.867 14.8144C108.744 14.8144 108.621 14.753 108.498 14.6915C108.375 14.63 108.375 14.5071 108.375 14.3227V8.23703C108.375 8.11408 108.436 7.99114 108.498 7.8682C108.621 7.74526 108.744 7.74526 108.867 7.74526C108.99 7.74526 109.113 7.80673 109.236 7.8682C109.297 7.99114 109.359 8.11408 109.359 8.23703V8.60585C109.666 8.2985 109.973 8.05261 110.404 7.8682C110.834 7.68379 111.264 7.62231 111.756 7.62231C112.248 7.62231 112.801 7.74526 113.293 7.99114Z" fill="white"/>
<path d="M122.205 8.05195C122.759 8.35931 123.189 8.7896 123.496 9.34284C123.804 9.89608 123.988 10.5108 123.988 11.2484V13.8917C123.988 14.5679 123.804 15.1826 123.496 15.7973C123.189 16.3505 122.759 16.7808 122.205 17.1497C121.652 17.457 121.037 17.6414 120.361 17.6414C119.685 17.6414 119.07 17.5185 118.579 17.2726C118.087 17.0267 117.595 16.6579 117.288 16.2276C117.226 16.1661 117.165 16.0432 117.165 15.9203C117.165 15.7973 117.226 15.6744 117.349 15.6129C117.411 15.5514 117.533 15.5514 117.656 15.5514C117.718 15.5514 117.841 15.5514 117.902 15.6129C117.964 15.6744 118.025 15.6744 118.087 15.7358C118.333 16.0432 118.701 16.3505 119.07 16.4735C119.439 16.6579 119.931 16.7194 120.423 16.7194C120.914 16.7194 121.345 16.5964 121.714 16.3505C122.082 16.1047 122.39 15.7973 122.636 15.367C122.881 14.9367 122.943 14.4449 122.943 13.8917V13.277C122.697 13.7688 122.328 14.1376 121.836 14.4449C121.345 14.7523 120.791 14.8752 120.238 14.8752C119.562 14.8752 118.947 14.6908 118.394 14.3835C117.841 14.0761 117.472 13.6458 117.165 13.0926C116.857 12.5393 116.734 11.9246 116.734 11.2484C116.734 10.5723 116.919 9.89608 117.226 9.34284C117.534 8.7896 117.964 8.35931 118.517 8.05195C119.07 7.74459 119.685 7.56018 120.361 7.56018C121.037 7.62165 121.652 7.74459 122.205 8.05195ZM121.652 13.5843C122.021 13.3385 122.39 13.0311 122.574 12.6008C122.82 12.1705 122.881 11.7402 122.881 11.187C122.881 10.6952 122.759 10.2034 122.574 9.77314C122.328 9.34284 122.021 9.03549 121.652 8.7896C121.283 8.54372 120.791 8.42078 120.3 8.42078C119.808 8.42078 119.316 8.54372 118.947 8.7896C118.579 9.03549 118.21 9.34284 118.025 9.77314C117.779 10.2034 117.718 10.6337 117.718 11.187C117.718 11.6787 117.841 12.1705 118.025 12.6008C118.271 13.0311 118.579 13.3385 118.947 13.5843C119.316 13.8302 119.808 13.9532 120.3 13.9532C120.791 13.9532 121.283 13.8302 121.652 13.5843Z" fill="white"/>
<path d="M131.056 14.3841C130.503 14.0768 130.073 13.6465 129.765 13.0932C129.458 12.54 129.273 11.9253 129.273 11.2491C129.273 10.5729 129.458 9.95822 129.765 9.40498C130.073 8.85174 130.503 8.42144 131.056 8.11408C131.609 7.80673 132.224 7.62231 132.9 7.62231C133.576 7.62231 134.191 7.80673 134.744 8.11408C135.298 8.42144 135.728 8.85174 136.035 9.40498C136.343 9.95822 136.527 10.5729 136.527 11.2491C136.527 11.9253 136.343 12.54 136.035 13.0932C135.728 13.6465 135.298 14.0768 134.744 14.3841C134.191 14.6915 133.576 14.8759 132.9 14.8759C132.224 14.8759 131.609 14.6915 131.056 14.3841ZM134.253 13.585C134.621 13.3391 134.99 13.0318 135.175 12.6015C135.421 12.1712 135.482 11.7409 135.482 11.1876C135.482 10.6959 135.359 10.2041 135.175 9.7738C134.929 9.3435 134.621 9.03615 134.253 8.79027C133.884 8.54438 133.392 8.42144 132.9 8.42144C132.408 8.42144 131.978 8.54438 131.548 8.79027C131.118 9.03615 130.81 9.3435 130.626 9.7738C130.38 10.2041 130.257 10.6344 130.257 11.1876C130.257 11.6794 130.38 12.1712 130.626 12.6015C130.872 13.0318 131.179 13.3391 131.548 13.585C131.978 13.8309 132.408 13.9538 132.9 13.9538C133.453 13.9538 133.884 13.8309 134.253 13.585Z" fill="white"/>
<path d="M143.967 8.11408C144.52 8.42144 144.951 8.85174 145.258 9.40498C145.565 9.95822 145.75 10.5729 145.75 11.2491C145.75 11.9253 145.565 12.54 145.258 13.0932C144.951 13.6465 144.52 14.0768 143.967 14.3841C143.414 14.6915 142.861 14.8759 142.184 14.8759C141.631 14.8759 141.078 14.753 140.648 14.5071C140.156 14.2612 139.787 13.9538 139.48 13.5235V17.3347C139.48 17.4577 139.418 17.5806 139.357 17.7036C139.234 17.8265 139.111 17.8265 138.988 17.8265C138.865 17.8265 138.742 17.765 138.619 17.7036C138.558 17.5806 138.496 17.4577 138.496 17.3347V14.4456C138.496 14.4456 138.496 14.3841 138.496 14.3227V11.2491C138.496 10.5729 138.681 9.95822 138.988 9.40498C139.295 8.85174 139.726 8.42144 140.279 8.11408C140.832 7.80673 141.447 7.62231 142.123 7.62231C142.799 7.62231 143.414 7.74526 143.967 8.11408ZM143.475 13.585C143.906 13.3391 144.213 13.0318 144.397 12.6015C144.643 12.1712 144.766 11.7409 144.766 11.1876C144.766 10.6959 144.643 10.2041 144.397 9.7738C144.151 9.34351 143.844 9.03615 143.475 8.79027C143.045 8.54438 142.615 8.42144 142.123 8.42144C141.631 8.42144 141.201 8.54438 140.771 8.79027C140.402 9.03615 140.033 9.34351 139.848 9.7738C139.603 10.2041 139.48 10.6344 139.48 11.1876C139.48 11.3106 139.48 11.4335 139.48 11.495V11.5565C139.541 12.2326 139.848 12.7859 140.34 13.2162C140.832 13.6465 141.385 13.8924 142.061 13.8924C142.615 13.9538 143.045 13.8309 143.475 13.585Z" fill="white"/>
<path d="M151.157 13.9538C151.219 14.0767 151.28 14.1997 151.28 14.3226C151.28 14.4456 151.219 14.5685 151.096 14.6914C150.973 14.8144 150.85 14.8144 150.727 14.8144H150.481C150.051 14.8144 149.621 14.6914 149.252 14.507C148.883 14.2611 148.576 14.0153 148.391 13.585C148.207 13.2161 148.084 12.7858 148.084 12.2941V8.85168H147.223C147.1 8.85168 146.977 8.79021 146.916 8.72874C146.854 8.66727 146.793 8.54433 146.793 8.42138C146.793 8.29844 146.854 8.1755 146.916 8.11403C146.977 8.05256 147.1 7.99109 147.223 7.99109H148.084V5.90107C148.084 5.77813 148.145 5.65519 148.207 5.53224C148.268 5.4093 148.391 5.4093 148.576 5.4093C148.699 5.4093 148.822 5.47077 148.944 5.53224C149.067 5.65519 149.067 5.77813 149.067 5.90107V7.92962H150.543C150.666 7.92962 150.789 7.99109 150.85 8.05256C150.912 8.11403 150.973 8.23697 150.973 8.35991C150.973 8.48286 150.912 8.6058 150.85 8.66727C150.789 8.72874 150.666 8.79021 150.543 8.79021H149.067V12.2941C149.067 12.7244 149.19 13.0932 149.436 13.4005C149.682 13.7079 150.051 13.8308 150.42 13.8308H150.789C150.973 13.7694 151.096 13.8308 151.157 13.9538Z" fill="white"/>
<path d="M153.126 6.08506C153.003 5.96212 152.941 5.77771 152.941 5.5933C152.941 5.40888 153.003 5.22447 153.126 5.10153C153.249 4.97859 153.433 4.91711 153.618 4.91711C153.802 4.91711 153.986 4.97859 154.109 5.10153C154.232 5.22447 154.294 5.40888 154.294 5.5933C154.294 5.77771 154.232 5.96212 154.109 6.08506C153.986 6.20801 153.802 6.26948 153.618 6.26948C153.433 6.33095 153.249 6.26948 153.126 6.08506ZM153.249 14.6295C153.126 14.5066 153.126 14.3837 153.126 14.2607V8.17508C153.126 8.05214 153.187 7.9292 153.249 7.80626C153.372 7.68331 153.495 7.68331 153.618 7.68331C153.741 7.68331 153.863 7.74478 153.986 7.80626C154.048 7.9292 154.109 8.05214 154.109 8.17508V14.2607C154.109 14.3837 154.048 14.5066 153.986 14.6295C153.925 14.7525 153.802 14.7525 153.618 14.7525C153.495 14.814 153.372 14.7525 153.249 14.6295Z" fill="white"/>
<path d="M158.04 14.3841C157.487 14.0768 157.057 13.6465 156.75 13.0932C156.442 12.54 156.258 11.9253 156.258 11.2491C156.258 10.5729 156.381 9.95822 156.688 9.40498C156.995 8.85174 157.364 8.42144 157.918 8.11408C158.409 7.80673 159.024 7.62231 159.7 7.62231C160.807 7.62231 161.667 8.05261 162.343 8.85174C162.405 8.91321 162.466 9.03615 162.466 9.09762C162.466 9.22056 162.405 9.34351 162.221 9.46645C162.159 9.52792 162.036 9.52792 161.975 9.52792C161.852 9.52792 161.729 9.46645 161.606 9.34351C161.36 9.03615 161.053 8.85174 160.745 8.72879C160.438 8.60585 160.069 8.54438 159.7 8.54438C159.208 8.54438 158.778 8.66732 158.409 8.91321C158.04 9.15909 157.733 9.46645 157.549 9.89675C157.364 10.327 157.241 10.7573 157.241 11.3106C157.241 11.8023 157.364 12.2941 157.549 12.7244C157.795 13.1547 158.04 13.4621 158.471 13.708C158.84 13.9538 159.331 14.0768 159.823 14.0768C160.499 14.0768 161.053 13.8924 161.483 13.5235C161.606 13.4006 161.729 13.4006 161.852 13.4006C161.975 13.4006 162.036 13.4621 162.159 13.5235C162.282 13.6465 162.343 13.7694 162.343 13.8924C162.343 14.0153 162.282 14.0768 162.221 14.1997C161.606 14.753 160.807 15.0603 159.885 15.0603C159.147 14.8759 158.532 14.6915 158.04 14.3841Z" fill="white"/>
<path d="M169.475 8.11408C170.028 8.42144 170.458 8.85174 170.766 9.40498C171.073 9.95822 171.258 10.5729 171.258 11.2491V14.3227C171.258 14.4456 171.196 14.5685 171.135 14.6915C171.012 14.8144 170.889 14.8144 170.766 14.8144C170.643 14.8144 170.52 14.753 170.397 14.6915C170.274 14.63 170.274 14.5071 170.274 14.3227V13.5235C169.967 13.9538 169.598 14.2612 169.106 14.5071C168.614 14.753 168.122 14.8759 167.569 14.8759C166.893 14.8759 166.34 14.6915 165.787 14.3841C165.233 14.0768 164.803 13.6465 164.496 13.0932C164.188 12.54 164.004 11.9253 164.004 11.2491C164.004 10.5729 164.188 9.95822 164.496 9.40498C164.803 8.85174 165.233 8.42144 165.787 8.11408C166.34 7.80673 166.955 7.62231 167.631 7.62231C168.307 7.62231 168.922 7.74526 169.475 8.11408ZM168.983 13.585C169.352 13.3391 169.721 13.0318 169.905 12.6015C170.151 12.1712 170.274 11.7409 170.274 11.1876C170.274 10.6959 170.151 10.2041 169.905 9.7738C169.659 9.3435 169.352 9.03615 168.983 8.79027C168.614 8.54438 168.122 8.42144 167.631 8.42144C167.139 8.42144 166.709 8.54438 166.278 8.79027C165.848 9.03615 165.541 9.3435 165.356 9.7738C165.11 10.2041 164.987 10.6344 164.987 11.1876C164.987 11.6794 165.11 12.1712 165.356 12.6015C165.602 13.0318 165.91 13.3391 166.278 13.585C166.709 13.8309 167.139 13.9538 167.631 13.9538C168.122 13.9538 168.614 13.8309 168.983 13.585Z" fill="white"/>
<path d="M173.472 14.1384C173.165 13.7081 172.98 13.1548 172.98 12.5401V5.10212C172.98 4.97918 173.042 4.85624 173.103 4.73329C173.226 4.67182 173.288 4.61035 173.472 4.61035C173.595 4.61035 173.718 4.67182 173.841 4.73329C173.903 4.79476 173.964 4.91771 173.964 5.10212V12.5401C173.964 12.9089 174.025 13.2163 174.21 13.4622C174.333 13.7081 174.579 13.831 174.763 13.831H175.07C175.193 13.831 175.316 13.8925 175.378 13.954C175.439 14.0154 175.501 14.1384 175.501 14.3228C175.501 14.4457 175.439 14.5687 175.316 14.6916C175.193 14.7531 175.07 14.8146 174.886 14.8146H174.702C174.21 14.8146 173.78 14.5687 173.472 14.1384Z" fill="white"/>
<path d="M36.5753 0C32.6411 0 28.8914 2.39737 26.1252 6.51594L20.2855 14.4457C17.8266 18.2569 14.3228 20.4084 10.696 20.4084C5.34798 20.4084 0.983537 16.044 0.983537 10.696C0.983537 10.2657 0.983537 9.83537 1.04501 9.46655H22.4369C22.4984 9.46655 22.6214 9.46655 22.6828 9.40508C22.9287 9.28213 22.9902 8.97478 22.8058 8.72889C20.5928 5.47093 16.1054 0 10.696 0C4.79474 0 0 4.79474 0 10.696C0 16.5972 4.79474 21.3919 10.696 21.3919C14.6301 21.3919 18.4413 19.056 21.0846 14.9989L26.9243 7.06917C29.4447 3.1965 32.9485 0.983537 36.5138 0.983537C41.8618 0.983537 46.2263 5.34798 46.2263 10.696C46.2263 16.044 41.8618 20.4084 36.5138 20.4084C31.7806 20.4084 27.6005 15.5522 25.572 12.663C25.3876 12.4172 25.1417 12.4172 24.8958 12.5401C24.6499 12.7245 24.6499 12.9704 24.7728 13.2163C26.9243 16.2284 31.3503 21.3305 36.5138 21.3305C42.4151 21.3305 47.2098 16.5357 47.2098 10.6345C47.2713 4.79474 42.4765 0 36.5753 0ZM10.696 0.983537C12.8475 0.983537 15.1219 2.02855 17.4578 3.99562C19.1175 5.40946 20.4699 7.13065 21.4534 8.48301H1.22942C2.21296 4.18003 6.08564 0.983537 10.696 0.983537Z" fill="white"/>
</svg>
