<svg width="376" height="182" viewBox="0 0 376 182" fill="none" xmlns="http://www.w3.org/2000/svg">
<g opacity="0.03">
<path d="M218.341 66.0195C210.22 66.0195 202.479 70.9686 196.768 79.4709L184.713 95.841C179.637 103.709 172.404 108.15 164.917 108.15C153.876 108.15 144.866 99.1404 144.866 88.1001C144.866 87.2118 144.866 86.3235 144.993 85.5621H189.154C189.281 85.5621 189.535 85.5621 189.662 85.4352C190.17 85.1814 190.297 84.5469 189.916 84.0393C185.347 77.3136 176.084 66.0195 164.917 66.0195C152.734 66.0195 142.836 75.9177 142.836 88.1001C142.836 100.283 152.734 110.181 164.917 110.181C173.038 110.181 180.906 105.359 186.363 96.9831L198.418 80.613C203.621 72.6183 210.854 68.0499 218.215 68.0499C229.255 68.0499 238.265 77.0598 238.265 88.1001C238.265 99.1404 229.255 108.15 218.215 108.15C208.443 108.15 199.814 98.1252 195.626 92.1609C195.246 91.6533 194.738 91.6533 194.23 91.9071C193.723 92.2878 193.723 92.7954 193.977 93.303C198.418 99.5211 207.555 110.054 218.215 110.054C230.397 110.054 240.295 100.156 240.295 87.9732C240.422 75.9177 230.524 66.0195 218.341 66.0195ZM164.917 68.0499C169.358 68.0499 174.053 70.2072 178.876 74.268C182.302 77.1867 185.094 80.7399 187.124 83.5317H145.374C147.404 74.6487 155.399 68.0499 164.917 68.0499Z" fill="white" fill-opacity="0.8"/>
<path d="M285.254 11C255.755 11 227.638 28.9763 206.896 59.8588L163.107 119.319C144.67 147.897 118.397 164.029 91.2021 164.029C51.1011 164.029 18.3749 131.303 18.3749 91.2021C18.3749 87.9756 18.3749 84.7491 18.8358 81.9835H179.24C179.701 81.9835 180.623 81.9835 181.084 81.5226C182.928 80.6007 183.388 78.296 182.006 76.4523C165.412 52.0229 131.764 11 91.2021 11C46.9527 11 11 46.9527 11 91.2021C11 135.452 46.9527 171.404 91.2021 171.404C120.702 171.404 149.28 153.889 169.1 123.467L212.888 64.0071C231.786 34.9684 258.059 18.3749 284.793 18.3749C324.895 18.3749 357.621 51.1011 357.621 91.2021C357.621 131.303 324.895 164.029 284.793 164.029C249.302 164.029 217.958 127.616 202.748 105.952C201.365 104.108 199.521 104.108 197.677 105.03C195.834 106.413 195.834 108.257 196.756 110.1C212.888 132.686 246.075 170.943 284.793 170.943C329.043 170.943 364.996 134.991 364.996 90.7412C365.457 46.9527 329.504 11 285.254 11ZM91.2021 18.3749C107.335 18.3749 124.389 26.2107 141.905 40.9606C154.35 51.562 164.49 64.4681 171.865 74.6086H20.2186C27.5935 42.3434 56.6322 18.3749 91.2021 18.3749Z" stroke="white" stroke-width="21"/>
</g>
</svg>
