<svg width="18" height="26" viewBox="0 0 18 26" fill="none" xmlns="http://www.w3.org/2000/svg">
<path d="M1.84907 11.9972C0.377267 14.3386 -0.402289 16.9588 1.04436 19.505C2.21494 21.5654 4.32183 22.9932 6.38227 24.0581C7.83886 24.811 9.3991 25.4612 10.9854 25.8895C11.7159 26.0868 12.6092 25.4668 11.5532 25.1817C7.66532 24.1318 1.66772 21.3872 1.82742 16.6107C1.97061 12.3277 6.31267 8.40604 9.6603 6.30134C11.0844 5.40603 12.6384 4.60458 14.2512 4.0235C13.6056 4.81009 12.96 5.59668 12.3143 6.38328C11.792 7.01961 12.8468 8.16707 13.4603 7.41958C14.645 5.97628 15.8297 4.53298 17.0143 3.08966C17.3425 2.68978 16.9611 1.87257 16.476 1.79975C14.6297 1.52259 12.7833 1.24542 10.937 0.96826C9.98045 0.82468 10.0497 2.38903 10.8676 2.5118C11.9051 2.66755 12.9426 2.8233 13.9802 2.97904C9.12801 4.42279 4.50326 7.77488 1.84907 11.9972Z" fill="#1C7468"/>
</svg>
