<svg width="188" height="188" viewBox="0 0 188 188" fill="none" xmlns="http://www.w3.org/2000/svg">
<circle cx="94" cy="94" r="94" fill="#DCFFF9"/>
<mask id="mask0_410_33876" style="mask-type:alpha" maskUnits="userSpaceOnUse" x="0" y="0" width="188" height="188">
<circle cx="94" cy="94" r="94" fill="#D7FFF8"/>
</mask>
<g mask="url(#mask0_410_33876)">
<path opacity="0.1" d="M104.934 113.37L110.278 110.235L107.94 116.394L104.934 113.37Z" fill="#376867"/>
<path opacity="0.5" d="M152.119 85.6449L119.019 100.08L138.282 82.0305C133.551 81.3815 127.873 80.7889 122.13 80.4582L118.871 98.4375L114.175 80.1893C104.472 80.1167 95.7907 81.1157 92.6715 84.2526C90.4571 86.4802 95.7707 99.9079 101.162 108.982L118.988 100.375L118.858 100.707L121.06 122.365L120.22 122.101C120.236 122.192 120.252 122.282 120.266 122.373C120.273 122.426 120.279 122.478 120.284 122.531C129.883 124.544 140.354 123.725 143.73 122.266C151.529 118.894 154.72 104.708 155.153 99.6436C155.418 96.5307 156.954 89.4162 152.119 85.6449Z" fill="#A7D6D3"/>
<g opacity="0.6">
<path opacity="0.7" d="M119.735 105.774L119.136 100.749L154.599 90.9389L154.393 90.1832L119.168 100.454L123.361 81.396L122.187 81.3419L118.97 99.3452L118.852 98.3624L114.323 80.5615L114.009 80.9293L117.619 95.1992C116.532 93.7181 114.196 90.4853 112.873 88.3235C111.127 85.4678 109.425 81.0228 109.408 80.9788L108.888 81.1789C108.905 81.2237 110.624 85.7166 112.399 88.6171C113.423 90.2914 115.129 92.7067 116.39 94.4528C114.442 93.0065 110.694 90.252 108.415 88.7593C105.371 86.7658 101.869 80.5291 101.829 80.4719L101.354 80.4812C101.521 80.723 104.845 86.9289 108.108 89.0668C111.249 91.1243 117.404 95.73 117.225 95.7424L117.291 95.6891C117.648 96.1774 117.899 96.515 117.976 96.6193L118.573 98.9782L118.771 100.452L100.887 108.798L101.229 109.503L118.788 100.891L118.853 101.466L121.209 122.738L120.873 119.441L121.116 121.6L121.635 121.712L119.885 107.03L125.509 112.464L128.816 122.85L136.23 122.823L136.542 122.504L120.295 106.449L150.43 114.518L150.545 114.085L152.454 110.681L137.512 110.569L119.735 105.774Z" fill="#ADBCBB"/>
<path opacity="0.6" d="M122.137 81.3409L122.187 81.3432L122.279 80.8325L122.137 81.3409Z" fill="#ADBCBB"/>
</g>
<path opacity="0.1" d="M106.095 116.043L104.652 114.356C105.149 114.995 105.632 115.563 106.095 116.043Z" fill="#376867"/>
<path opacity="0.4" d="M117.498 105.867L107.59 117.103L108.184 117.448L117.457 106.221L117.498 105.867Z" fill="white"/>
<path opacity="0.1" d="M114.838 120.019L111.71 119.492L108.185 117.447L108.059 117.605L112.272 119.819L115.249 120.264L117.458 106.223L117.306 106.398L114.838 120.019Z" fill="#376867"/>
<path opacity="0.1" d="M115.271 120.276L117.48 105.981L108.184 117.448L111.708 119.492L115.271 120.276Z" fill="#376867"/>
<path d="M127.029 58.5965C126.397 58.2967 125.774 57.9761 125.13 57.7033C121.328 56.0947 117.835 53.9452 114.434 51.6195C111.933 49.9097 109.414 48.2192 106.604 47.0347C103.889 45.8904 100.978 44.4711 98.0344 44.383C96.2579 44.3297 93.2301 44.3312 91.4658 44.5507C89.1531 44.8389 75.267 46.2868 63.9179 49.7621C61.47 50.5116 58.9699 51.0795 56.4998 51.7509C52.0741 52.9539 47.6492 54.16 43.2266 55.3754C39.6873 56.3481 26.5962 60.9337 25.2812 61.405C27.3781 61.5078 33.1249 64.5505 40.4516 67.1094C34.8116 65.9806 30.402 66.0857 28.7292 67.7693C26.9395 69.5695 26.8835 73.6537 27.8343 78.5206L45.6476 68.7351C45.7237 68.7559 45.7997 68.7768 45.8765 68.7977C48.0471 67.9872 57.5237 62.9797 57.6028 62.9619C57.6796 62.8962 57.7126 62.8622 57.7518 62.8452C60.1029 61.8014 62.4524 60.7537 64.8081 59.7191C66.8443 58.8252 68.8766 57.9204 70.9297 57.0667C73.469 56.012 76.0213 54.9898 78.5967 54.0263C81.6744 52.8743 84.7728 51.7857 87.9303 50.8794C90.8521 50.041 93.7839 49.222 96.8193 48.9014C98.1658 48.7592 99.5268 48.7191 100.865 48.9246C104.35 49.4592 107.283 51.1961 109.97 53.3765C112.482 55.414 114.934 57.5256 117.406 59.6125C119.177 61.1076 121.152 62.2024 123.515 62.0935C126.464 61.9575 127.559 60.6842 127.637 60.5428C128.118 59.6743 127.927 59.0222 127.029 58.5965Z" fill="#1C7468"/>
<path d="M58.652 53.0591C61.123 52.3877 63.6223 51.8198 66.0701 51.0703C77.42 47.5942 91.3054 46.1471 93.618 45.8589C95.3816 45.6394 98.4093 45.6371 100.187 45.6912C103.13 45.7793 106.041 47.1986 108.756 48.3429C109.998 48.8668 111.183 49.4895 112.335 50.1687C110.437 48.9147 108.491 47.7395 106.381 46.8494C103.666 45.7051 100.755 44.2858 97.8118 44.1977C96.0352 44.1444 93.0074 44.1459 91.2431 44.3654C88.9305 44.6536 75.0451 46.1015 63.6952 49.5768C61.2474 50.3263 58.7473 50.8942 56.2771 51.5656C51.8515 52.7686 47.4266 53.9747 43.004 55.19C39.4647 56.1628 26.3735 60.7484 25.0586 61.2197C25.8075 61.256 27.0226 61.6686 28.6071 62.2983C32.2025 61.0366 42.3319 57.5203 45.3789 56.6828C49.8007 55.4682 54.2256 54.2613 58.652 53.0591Z" fill="#2F8377"/>
<path d="M195.67 61.4899C195.121 60.7505 188.655 64.9714 186.281 66.3058C184.918 67.0723 163.752 80.7835 159.348 83.1022C162.16 86.6788 160.425 95.4436 159.486 101.388C162.861 98.8981 172.766 89.3405 176.434 85.4039C183.948 77.3406 191.684 68.9954 192.435 68.0504C192.463 67.9824 192.478 67.9562 192.478 67.9855C192.478 67.9932 192.463 68.0164 192.435 68.0504C192.253 68.5063 191.529 70.9053 191.141 72.2041C190.696 73.6976 190.28 76.9466 191.008 77.2634C191.735 77.5802 192.83 77.2587 193.257 76.7959C194.463 75.4886 194.777 72.4939 195.389 70.1984C195.762 68.8045 196.799 63.0097 195.67 61.4899Z" fill="#1C7468"/>
<path d="M195.783 61.7234C195.796 61.742 195.809 61.7605 195.822 61.7806C195.778 61.6817 195.729 61.5898 195.67 61.5102C195.121 60.7708 187.877 64.4594 185.504 65.7929C184.14 66.5594 162.974 80.2707 158.57 82.5894C159.239 83.4408 159.651 84.5859 159.878 85.9171C165.995 81.1175 185.048 67.2965 186.395 66.5401C188.768 65.205 195.235 60.984 195.783 61.7234Z" fill="#2F8377"/>
<path opacity="0.2" d="M193.256 76.7954C188.709 74.8831 175.432 92.8508 174.263 94.5306C173.094 96.2103 146.877 125.942 146.877 125.942C146.877 125.942 124.36 124.015 120.576 124.755C112.189 126.398 97.0293 118.745 94.5246 120.425C90.9062 122.161 86.4129 123.295 83.3921 122.777C75.3249 121.392 70.6466 114.805 70.0044 114.629C45.0112 107.798 38.5632 102.581 39.2314 97.5786C40.001 91.8155 77.1107 75.4718 85.396 73.3888C94.3026 71.1489 128.369 61.518 128.369 61.518L124.918 60.6217C124.918 60.6217 89.4806 68.0514 81.4995 70.2527C57.4156 76.8974 33.8134 95.5628 33.8134 95.5628C33.8134 95.5628 30.5106 98.0268 31.5683 100.519C33.3333 104.677 37.2712 109.702 43.091 112.436C54.6137 117.849 68.933 117.562 69.9522 117.48C72.2672 120.455 75.6683 126.406 83.3921 127.312C89.5014 128.029 94.0407 124.009 95.5269 123.784C95.9294 123.723 109.441 130.21 122.135 131.623C130.343 132.538 142.715 131.236 149.967 130.13C152.416 129.757 153.983 128.685 155.014 127.741C159.608 123.532 166.749 109.983 169.087 107.128C171.424 104.274 193.256 76.7954 193.256 76.7954Z" fill="#181C26"/>
<path fill-rule="evenodd" clip-rule="evenodd" d="M32.25 65.8206C32.6855 65.5767 33.1172 65.4764 33.608 65.8206C33.1087 65.8206 32.6794 65.8206 32.25 65.8206Z" fill="black"/>
<path opacity="0.4" fill-rule="evenodd" clip-rule="evenodd" d="M29.2877 68.4062C24.6116 73.1101 33.4161 95.573 38.8618 101.051C43.4818 105.698 61.2666 117.374 70.5903 107.995C73.4084 105.16 74.9876 94.6683 73.5958 83.8606C72.8823 78.3076 34.3816 63.2829 29.2877 68.4062Z" fill="#A7D6D3"/>
<path d="M100.834 76.0251C89.0332 78.153 85.805 81.4004 83.258 80.8279C80.7111 80.2553 79.2587 78.9125 77.2955 77.9065C71.4435 74.9056 61.9231 69.6578 52.1447 67.1807C25.3157 60.3838 25.116 58.0837 23.9593 65.0954C22.9846 71.0014 26.1314 82.2719 30.4741 93.16C37.7102 111.302 57.8608 115.11 65.8764 113.766C71.9212 112.753 74.4121 107.98 75.4137 105.404C76.3392 103.023 78.7725 89.4976 84.1713 90.0988C89.3351 90.6736 91.445 98.6102 96.8185 110.53C105.404 129.575 134.455 127.877 139.019 127.653C143.584 127.429 148.927 127.876 155.384 114.998C161.842 102.119 162.639 85.8655 160.737 83.7809C155.222 77.7319 112.635 73.8973 100.834 76.0251ZM69.978 107.043C60.6543 116.422 43.4439 105.871 38.8239 101.222C33.3782 95.7444 24.5738 73.2807 29.2498 68.5776C34.343 63.4543 70.9496 77.6708 73.0956 83.4131C75.2416 89.1554 72.7953 104.208 69.978 107.043ZM154.031 100.659C153.238 105.681 150.473 118.79 142.676 122.161C137.358 124.46 115.604 125.823 106.215 116.379C100.039 110.166 89.8797 88.5906 92.8007 85.6522C100.148 78.2611 135.512 82.0386 145.237 84.4206C155.562 86.9495 155.666 90.2973 154.031 100.659Z" fill="#25344C"/>
<path d="M51.7004 67.5664C68.7448 73.0066 80.5694 81.263 83.1701 81.8363C85.77 82.4088 89.7779 77.3766 101.984 76.563C124.955 75.0324 156.777 78.3362 161.378 84.9809C161.225 83.9896 161.265 82.5471 160.96 82.2126C155.445 76.1643 111.967 72.8296 100.166 74.9575C88.3654 77.0853 86.0266 79.8328 83.4804 79.2603C80.9334 78.6878 79.481 77.3449 77.5178 76.339C71.6658 73.338 62.1455 68.0903 52.3678 65.6132C27.6434 59.3494 27.4828 57.8327 24.7969 61.9485C27.1818 60.9727 36.2628 62.6385 51.7004 67.5664Z" fill="#2F8377"/>
<path d="M165.851 86.0073L171.714 81.2285L171.482 83.898L165.805 88.9001L165.851 86.0073Z" fill="#1A2735"/>
<path d="M39.3453 99.7856C34.4519 94.8631 26.8456 76.2239 28.7474 69.0824C24.9116 74.5836 33.382 95.971 38.6779 101.298C43.2979 105.945 60.5082 116.497 69.8319 107.118C70.3634 106.584 70.8811 105.615 71.3573 104.357C71.0785 104.887 70.7912 105.313 70.4994 105.606C61.1757 114.985 43.9653 104.433 39.3453 99.7856Z" fill="#1F2C3D"/>
<path d="M142.528 122.236C146.378 120.572 149 116.534 150.765 112.268C149.026 115.952 146.587 119.258 143.196 120.725C137.879 123.024 116.124 124.386 106.735 114.942C101.157 109.331 92.3286 91.1846 92.8256 85.5613C92.7664 85.6161 92.7088 85.6718 92.6527 85.7282C89.7317 88.6665 99.8911 110.241 106.067 116.455C115.456 125.898 137.211 124.535 142.528 122.236Z" fill="#1F2C3D"/>
<path d="M110.406 119.343L110.482 119.367C110.46 119.354 110.438 119.341 110.416 119.329L110.406 119.343Z" fill="white"/>
<path opacity="0.6" d="M122.679 149.698L106.777 157.764C106.777 157.764 108.539 164.707 110.877 166.348C115.48 169.577 122.299 170.57 123.495 171.005C124.689 171.439 122.679 149.698 122.679 149.698Z" fill="#99CECC"/>
<path opacity="0.6" d="M125.148 149.651L132.607 141.14L141.737 143.828L125.148 149.651Z" fill="#99CECC"/>
<path opacity="0.6" d="M119.675 145.957L105.582 145.325C105.582 145.325 105.29 140.392 105.644 139.137C105.999 137.883 119.675 145.957 119.675 145.957Z" fill="#99CECC"/>
<path opacity="0.6" d="M109.098 137.425L113.18 138.508L110.211 136.007L109.098 137.425Z" fill="#99CECC"/>
<path opacity="0.6" d="M126.576 146.086L126.465 140.412L128.988 141.159L126.576 146.086Z" fill="#99CECC"/>
<path opacity="0.6" d="M122.421 141.382L122.339 141.199L121.363 139.031L122.115 139.002L122.421 141.382Z" fill="#99CECC"/>
<path opacity="0.6" d="M105.582 145.325L105.666 146.002L119.526 146.478L119.674 145.958L105.582 145.325Z" fill="#7AA09D"/>
<path opacity="0.6" d="M141.737 143.827L141.495 145.115L125.426 150.341L125.148 149.651L141.737 143.827Z" fill="#7AA09D"/>
<path opacity="0.6" d="M109.098 137.425L109.479 137.995L113.013 138.779L113.18 138.508L109.098 137.425Z" fill="#7AA09D"/>
<path opacity="0.6" d="M102.828 151.797H112.848L102.939 154.261L102.828 151.797Z" fill="#99CECC"/>
<path opacity="0.6" d="M126.875 155.045L130.883 163.333L132.441 162.212L126.875 155.045Z" fill="#99CECC"/>
<path opacity="0.6" d="M133.777 155.941L140.457 154.597L139.789 148.774L133.777 155.941Z" fill="#99CECC"/>
</g>
</svg>
