<svg width="38" height="38" viewBox="0 0 38 38" fill="none" xmlns="http://www.w3.org/2000/svg">
<path opacity="0.2" d="M16.0312 23.75C20.95 23.75 24.9375 19.7625 24.9375 14.8438C24.9375 9.92496 20.95 5.9375 16.0312 5.9375C11.1125 5.9375 7.125 9.92496 7.125 14.8438C7.125 19.7625 11.1125 23.75 16.0312 23.75Z" fill="white"/>
<path d="M16.0312 23.75C20.95 23.75 24.9375 19.7625 24.9375 14.8438C24.9375 9.92496 20.95 5.9375 16.0312 5.9375C11.1125 5.9375 7.125 9.92496 7.125 14.8438C7.125 19.7625 11.1125 23.75 16.0312 23.75Z" stroke="white" stroke-width="1.5" stroke-miterlimit="10"/>
<path d="M3.29688 29.6872C4.85745 27.8279 6.80622 26.3329 9.00627 25.3072C11.2063 24.2815 13.6043 23.75 16.0317 23.75C18.4591 23.75 20.857 24.2815 23.0571 25.3073C25.2571 26.333 27.2059 27.828 28.7665 29.6873" stroke="white" stroke-width="1.5" stroke-linecap="round" stroke-linejoin="round"/>
<path d="M30.0781 9.50032L30.0781 3.16699" stroke="white" stroke-width="1.5" stroke-linecap="round" stroke-linejoin="round"/>
<path d="M26.9167 6.33398L33.25 6.33398" stroke="white" stroke-width="1.5" stroke-linecap="round" stroke-linejoin="round"/>
</svg>
