<svg width="38" height="38" viewBox="0 0 38 38" fill="none" xmlns="http://www.w3.org/2000/svg">
<path opacity="0.2" d="M6.27344 10.6875H32.9074L28.9888 24.4025C28.847 24.8987 28.5474 25.3353 28.1354 25.6461C27.7234 25.9569 27.2213 26.125 26.7052 26.125H12.4756C11.9595 26.125 11.4574 25.9569 11.0454 25.6461C10.6334 25.3353 10.3338 24.8987 10.192 24.4025L6.27344 10.6875Z" fill="white"/>
<path d="M11.875 34.4375C13.1867 34.4375 14.25 33.3742 14.25 32.0625C14.25 30.7508 13.1867 29.6875 11.875 29.6875C10.5633 29.6875 9.5 30.7508 9.5 32.0625C9.5 33.3742 10.5633 34.4375 11.875 34.4375Z" fill="white"/>
<path d="M27.3125 34.4375C28.6242 34.4375 29.6875 33.3742 29.6875 32.0625C29.6875 30.7508 28.6242 29.6875 27.3125 29.6875C26.0008 29.6875 24.9375 30.7508 24.9375 32.0625C24.9375 33.3742 26.0008 34.4375 27.3125 34.4375Z" fill="white"/>
<path d="M6.27679 10.6875H32.9107L28.9922 24.4025C28.8504 24.8987 28.5508 25.3353 28.1387 25.6461C27.7267 25.9569 27.2246 26.125 26.7085 26.125H12.479C11.9629 26.125 11.4608 25.9569 11.0488 25.6461C10.6367 25.3353 10.3371 24.8987 10.1953 24.4025L4.82643 5.61127C4.75554 5.36314 4.60575 5.14486 4.39973 4.98946C4.19371 4.83406 3.94268 4.75 3.68462 4.75H1.1875" stroke="white" stroke-width="1.5" stroke-linecap="round" stroke-linejoin="round"/>
</svg>
