<svg width="38" height="38" viewBox="0 0 38 38" fill="none" xmlns="http://www.w3.org/2000/svg">
<path opacity="0.2" d="M26.125 21.375H2.375V27.3125C2.375 27.6274 2.50011 27.9295 2.72281 28.1522C2.94551 28.3749 3.24756 28.5 3.5625 28.5H6.53125C6.53125 27.5552 6.90658 26.649 7.57468 25.9809C8.24278 25.3128 9.14892 24.9375 10.0938 24.9375C11.0386 24.9375 11.9447 25.3128 12.6128 25.9809C13.2809 26.649 13.6562 27.5552 13.6562 28.5H24.3438C24.3435 27.8746 24.5079 27.2601 24.8206 26.7184C25.1332 26.1767 25.583 25.7269 26.1247 25.4143L26.125 21.375Z" fill="white"/>
<path opacity="0.2" d="M31.469 28.5C31.4689 27.8747 31.3042 27.2604 30.9914 26.7189C30.6787 26.1774 30.229 25.7277 29.6875 25.415C29.1459 25.1023 28.5317 24.9376 27.9063 24.9375C27.281 24.9374 26.6667 25.1018 26.125 25.4143L26.1253 17.8125H35.6253V27.3125C35.6253 27.6274 35.5002 27.9295 35.2775 28.1522C35.0548 28.3749 34.7527 28.5 34.4378 28.5H31.469Z" fill="white"/>
<path d="M35.625 17.8125H26.125V11.875H32.446C32.6834 11.875 32.9152 11.9461 33.1118 12.0792C33.3083 12.2122 33.4604 12.4011 33.5486 12.6215L35.625 17.8125Z" stroke="white" stroke-width="1.5" stroke-linecap="round" stroke-linejoin="round"/>
<path d="M2.375 21.375H26.125" stroke="white" stroke-width="1.5" stroke-linecap="round" stroke-linejoin="round"/>
<path d="M27.9062 32.0625C29.8738 32.0625 31.4688 30.4675 31.4688 28.5C31.4688 26.5325 29.8738 24.9375 27.9062 24.9375C25.9387 24.9375 24.3438 26.5325 24.3438 28.5C24.3438 30.4675 25.9387 32.0625 27.9062 32.0625Z" stroke="white" stroke-width="1.5" stroke-miterlimit="10"/>
<path d="M10.0938 32.0625C12.0613 32.0625 13.6562 30.4675 13.6562 28.5C13.6562 26.5325 12.0613 24.9375 10.0938 24.9375C8.12624 24.9375 6.53125 26.5325 6.53125 28.5C6.53125 30.4675 8.12624 32.0625 10.0938 32.0625Z" stroke="white" stroke-width="1.5" stroke-miterlimit="10"/>
<path d="M24.3438 28.5H13.6562" stroke="white" stroke-width="1.5" stroke-linecap="round" stroke-linejoin="round"/>
<path d="M6.53125 28.5H3.5625C3.24756 28.5 2.94551 28.3749 2.72281 28.1522C2.50011 27.9295 2.375 27.6274 2.375 27.3125V10.6875C2.375 10.3726 2.50011 10.0705 2.72281 9.84781C2.94551 9.62511 3.24756 9.5 3.5625 9.5H26.125V25.4147" stroke="white" stroke-width="1.5" stroke-linecap="round" stroke-linejoin="round"/>
<path d="M26.125 25.4147V17.8125H35.625V27.3125C35.625 27.6274 35.4999 27.9295 35.2772 28.1522C35.0545 28.3749 34.7524 28.5 34.4375 28.5H31.4688" stroke="white" stroke-width="1.5" stroke-linecap="round" stroke-linejoin="round"/>
</svg>
